<svg width="150" height="150" viewBox="0 0 150 150" fill="none" xmlns="http://www.w3.org/2000/svg">
<path d="M123.047 50.3906C132.755 50.3906 140.625 42.5206 140.625 32.8125C140.625 23.1044 132.755 15.2344 123.047 15.2344C113.339 15.2344 105.469 23.1044 105.469 32.8125C105.469 42.5206 113.339 50.3906 123.047 50.3906Z" fill="#2EC2F5"/>
<path opacity="0.7" d="M75 114.258C60.237 114.258 46.0786 108.394 35.6396 97.9545C25.2005 87.5154 19.3359 73.3571 19.3359 58.594C19.3359 43.831 25.2005 29.6726 35.6396 19.2336C46.0786 8.79457 60.237 2.92998 75 2.92998C87.2583 2.89033 99.1805 6.93554 108.884 14.4267L106.741 17.2145C97.6517 10.1972 86.4832 6.40802 75 6.4456C64.686 6.4456 54.6036 9.50405 46.0279 15.2342C37.4521 20.9643 30.7681 29.1088 26.8211 38.6377C22.8741 48.1666 21.8414 58.6519 23.8536 68.7677C25.8657 78.8835 30.8324 88.1755 38.1255 95.4686C45.4186 102.762 54.7105 107.728 64.8263 109.74C74.9422 111.753 85.4275 110.72 94.9563 106.773C104.485 102.826 112.63 96.1419 118.36 87.5662C124.09 78.9904 127.148 68.908 127.148 58.594C127.148 57.0766 127.083 55.5499 126.954 54.0576L130.456 53.7555C130.594 55.3462 130.664 56.9758 130.664 58.594C130.647 73.3519 124.777 87.5006 114.342 97.936C103.907 108.371 89.7579 114.241 75 114.258Z" fill="#2EC2F5"/>
<path d="M114.828 38.6094L128.888 24.5495L131.374 27.035L117.314 41.0949L114.828 38.6094Z" fill="white"/>
<path d="M121.359 25.7812C121.359 24.4868 120.31 23.4375 119.016 23.4375C117.721 23.4375 116.672 24.4868 116.672 25.7812C116.672 27.0757 117.721 28.125 119.016 28.125C120.31 28.125 121.359 27.0757 121.359 25.7812Z" fill="white"/>
<path d="M130.734 39.8438C130.734 38.5493 129.685 37.5 128.391 37.5C127.096 37.5 126.047 38.5493 126.047 39.8438C126.047 41.1382 127.096 42.1875 128.391 42.1875C129.685 42.1875 130.734 41.1382 130.734 39.8438Z" fill="white"/>
<path d="M17.9924 108.816L22.2739 113.811C22.7637 114.383 23.3903 114.821 24.0951 115.085L31.136 117.434L24.7305 104.623L23.1457 98.2841C22.9318 97.4289 22.3953 96.6896 21.6486 96.2211C20.9019 95.7526 20.0029 95.5912 19.1399 95.7707C18.2769 95.9503 17.5168 96.4567 17.0188 97.1841C16.5208 97.9115 16.3237 98.8034 16.4685 99.6729L17.9924 108.816Z" fill="#CC9F7A"/>
<path d="M52.4332 121.179L44.3487 109.756C43.7402 108.896 42.8295 108.298 41.7987 108.08C40.768 107.863 39.6933 108.044 38.7897 108.585C37.886 109.126 37.2202 109.989 36.9253 111C36.6305 112.011 36.7283 113.097 37.1994 114.039L40.3471 120.509L24.0943 115.087C23.3895 114.823 22.763 114.384 22.2731 113.813L12.0634 101.901C11.6766 101.451 11.199 101.087 10.6619 100.833C10.1248 100.58 9.54017 100.442 8.94636 100.431C8.35256 100.419 7.76292 100.532 7.21603 100.764C6.66914 100.995 6.17731 101.34 5.77273 101.775C5.11656 102.517 4.73389 103.461 4.68821 104.451C4.64254 105.441 4.93659 106.416 5.5216 107.216L17.9375 124.953C18.3495 125.542 18.8311 126.078 19.3719 126.552L27.8029 133.929C30.9613 136.692 36.693 142.566 36.3544 147.282L55.9375 147.657C56.164 139.458 57.4433 128.23 52.4332 121.179Z" fill="#D9A982"/>
<path d="M132.007 108.816L127.725 113.811C127.236 114.383 126.609 114.821 125.904 115.085L118.863 117.434L125.269 104.623L126.854 98.2841C127.067 97.4289 127.604 96.6896 128.351 96.2211C129.097 95.7526 129.996 95.5912 130.859 95.7707C131.722 95.9503 132.483 96.4567 132.981 97.1841C133.478 97.9115 133.676 98.8034 133.531 99.6729L132.007 108.816Z" fill="#CC9F7A"/>
<path d="M97.5662 121.179L105.651 109.756C106.259 108.896 107.17 108.298 108.201 108.08C109.231 107.863 110.306 108.044 111.21 108.585C112.113 109.126 112.779 109.989 113.074 111C113.369 112.011 113.271 113.097 112.8 114.039L109.652 120.509L125.905 115.087C126.61 114.823 127.236 114.384 127.726 113.813L137.936 101.901C138.323 101.451 138.8 101.087 139.338 100.833C139.875 100.58 140.459 100.442 141.053 100.431C141.647 100.419 142.236 100.532 142.783 100.764C143.33 100.995 143.822 101.34 144.227 101.775C144.883 102.517 145.266 103.461 145.311 104.451C145.357 105.441 145.063 106.416 144.478 107.216L132.062 124.953C131.65 125.542 131.168 126.078 130.628 126.552L122.197 133.929C119.038 136.692 113.306 142.566 113.645 147.282L94.0619 147.657C93.8354 139.458 92.5561 128.23 97.5662 121.179Z" fill="#D9A982"/>
<path opacity="0.7" d="M105.443 80.5832L105.31 80.5141C104.63 80.1516 104.049 79.6278 103.619 78.9886C103.188 78.3495 102.921 77.6145 102.841 76.848L99.8995 49.6928C99.6015 46.7102 98.3825 43.8942 96.4116 41.6357C94.4408 39.3772 91.8158 37.7881 88.901 37.0889L95.1057 29.4271C95.49 28.7497 95.6957 27.9857 95.7035 27.2069C95.7112 26.4281 95.5207 25.6602 95.15 24.9752C94.7792 24.2903 94.2403 23.711 93.584 23.2917C92.9276 22.8724 92.1754 22.6269 91.3981 22.5784H88.0978L88.0264 22.5773C87.8767 21.5258 87.3562 20.5623 86.5588 19.8605C85.7614 19.1588 84.7396 18.7649 83.6775 18.75H66.3243C65.2623 18.765 64.2404 19.1588 63.4431 19.8605C62.6457 20.5623 62.1252 21.5258 61.9754 22.5773L61.9042 22.5784H58.6037C57.8264 22.6269 57.0742 22.8724 56.4179 23.2917C55.7615 23.711 55.2226 24.2903 54.8519 24.9753C54.4811 25.6602 54.2906 26.4282 54.2984 27.207C54.3061 27.9858 54.5119 28.7498 54.8962 29.4272L61.1009 37.0889C58.186 37.7881 55.5611 39.3772 53.5902 41.6358C51.6194 43.8943 50.4004 46.7102 50.1023 49.6929L47.1613 76.848C47.0808 77.6145 46.8135 78.3495 46.383 78.9886C45.9524 79.6278 45.3717 80.1516 44.6917 80.5141L44.5592 80.5832C43.8371 80.9702 43.2345 81.5473 42.8167 82.252C42.3988 82.9568 42.1815 83.7623 42.1884 84.5816V84.592C42.1649 85.7534 42.6034 86.8767 43.4076 87.715C44.2119 88.5533 45.316 89.0379 46.4775 89.0625H103.524C104.686 89.0379 105.79 88.5533 106.594 87.715C107.398 86.8767 107.837 85.7534 107.813 84.592V84.5816C107.82 83.7623 107.603 82.9568 107.185 82.252C106.767 81.5473 106.165 80.9702 105.443 80.5832Z" fill="black"/>
<path d="M68.1526 36.7481H81.8713L87.7051 25.1823C87.9599 24.5928 88.0934 23.958 88.0976 23.3158C88.1151 22.1248 87.6596 20.9754 86.8311 20.1195C86.0026 19.2637 84.8686 18.7712 83.6776 18.75H66.3464C65.1554 18.7712 64.0214 19.2637 63.1928 20.1195C62.3643 20.9753 61.9088 22.1247 61.9263 23.3158C61.9304 23.958 62.064 24.5928 62.3189 25.1823L68.1526 36.7481Z" fill="#82DFFF"/>
<path d="M105.31 80.5161C104.63 80.1535 104.05 79.6297 103.619 78.9905C103.188 78.3514 102.921 77.6164 102.841 76.85L99.8995 49.6947C99.5709 46.1972 97.9648 42.9434 95.3883 40.5554C92.8119 38.1673 89.4457 36.8126 85.9333 36.75H64.0685C60.5561 36.8126 57.1899 38.1673 54.6134 40.5554C52.037 42.9434 50.4309 46.1972 50.1022 49.6947L47.1613 76.85C47.0807 77.6164 46.8135 78.3514 46.3829 78.9905C45.9523 79.6297 45.3716 80.1535 44.6916 80.5161L44.5592 80.5851C43.8371 80.9722 43.2345 81.5492 42.8166 82.254C42.3988 82.9587 42.1815 83.7643 42.1884 84.5836V84.594C42.1648 85.7554 42.6034 86.8787 43.4076 87.7169C44.2119 88.5552 45.316 89.0399 46.4775 89.0644H103.524C104.686 89.0399 105.79 88.5552 106.594 87.7169C107.398 86.8787 107.837 85.7554 107.813 84.594V84.5836C107.82 83.7643 107.603 82.9587 107.185 82.254C106.767 81.5493 106.165 80.9722 105.443 80.5852L105.31 80.5161Z" fill="#2EC2F5"/>
<path d="M75 82.0312C85.3553 82.0312 93.75 73.6366 93.75 63.2812C93.75 52.9259 85.3553 44.5312 75 44.5312C64.6447 44.5312 56.25 52.9259 56.25 63.2812C56.25 73.6366 64.6447 82.0312 75 82.0312Z" fill="white"/>
<path opacity="0.7" d="M75.0011 61.5234C74.3599 61.5232 73.7332 61.3329 73.2002 60.9765C72.6672 60.6201 72.2518 60.1137 72.0066 59.5212C71.7614 58.9288 71.6973 58.277 71.8225 57.6481C71.9478 57.0193 72.2566 56.4417 72.7101 55.9884C73.1636 55.5351 73.7413 55.2264 74.3701 55.1014C74.999 54.9764 75.6508 55.0407 76.2432 55.2861C76.8355 55.5315 77.3418 55.9471 77.698 56.4802C78.0542 57.0134 78.2443 57.6401 78.2443 58.2813H81.7599C81.755 56.7997 81.2626 55.3608 80.3588 54.1867C79.455 53.0126 78.19 52.1685 76.7589 51.7847V49.2188H73.2433V51.7848C71.6613 52.2075 70.2874 53.1915 69.3778 54.5531C68.4683 55.9147 68.0854 57.5608 68.3007 59.184C68.516 60.8072 69.3147 62.2966 70.5477 63.374C71.7807 64.4514 73.3637 65.0433 75.0011 65.0391C75.6422 65.0393 76.269 65.2296 76.802 65.586C77.335 65.9424 77.7504 66.4488 77.9956 67.0413C78.2408 67.6337 78.3048 68.2855 78.1796 68.9144C78.0544 69.5432 77.7455 70.1208 77.292 70.5741C76.8386 71.0274 76.2609 71.3361 75.632 71.4611C75.0031 71.5861 74.3513 71.5218 73.759 71.2764C73.1666 71.031 72.6603 70.6154 72.3041 70.0823C71.9479 69.5491 71.7578 68.9224 71.7578 68.2812H68.2422C68.2471 69.7628 68.7395 71.2017 69.6433 72.3758C70.5471 73.5498 71.8122 74.3939 73.2433 74.7777V77.3438H76.7589V74.7778C78.3408 74.3551 79.7148 73.3711 80.6243 72.0095C81.5339 70.6479 81.9167 69.0018 81.7015 67.3786C81.4862 65.7554 80.6875 64.266 79.4545 63.1885C78.2215 62.1111 76.6385 61.5192 75.0011 61.5234Z" fill="black"/>
</svg>
