<svg width="150" height="150" viewBox="0 0 150 150" fill="none" xmlns="http://www.w3.org/2000/svg">
<path d="M66.9963 77.036L66.9733 83.769C66.9504 87.047 64.7956 90.3021 60.5089 92.8008C51.8899 97.821 37.8378 97.821 29.1727 92.8008C24.7715 90.2791 22.5938 86.9553 22.5938 83.6544L22.6396 76.8984L66.9963 77.036Z" fill="#FFD06C"/>
<path d="M60.5235 86.0558C58.8544 87.0271 56.9862 87.8243 54.9686 88.3973C53.4491 88.8706 51.8549 89.2192 50.2109 89.4434C49.4138 89.568 48.5917 89.6428 47.7698 89.6925C43.3359 90.0662 38.7525 89.6178 34.6674 88.3724C32.6995 87.7995 30.8562 87.0271 29.1873 86.0558C20.4939 81.049 20.444 72.9035 29.0628 67.8967C30.7566 66.9253 32.6497 66.1282 34.6674 65.5304C38.7277 64.3097 43.3359 63.8863 47.7698 64.235C48.5917 64.2849 49.4138 64.3845 50.2109 64.509C51.8549 64.7582 53.4491 65.1068 54.9686 65.5801C56.9365 66.1531 58.8047 66.9253 60.4487 67.8967C69.1421 72.9035 69.1919 81.024 60.5235 86.0558Z" fill="#F9A83D"/>
<path d="M44.8866 86.8411C39.4826 86.8411 34.4401 85.6479 30.6871 83.4809C27.4657 81.6217 25.6166 79.2343 25.6133 76.9307C25.6099 74.625 27.3695 72.3315 30.5673 70.4735C34.3036 68.302 39.3382 67.1055 44.7433 67.1055C50.1507 67.1055 55.2021 68.3031 58.9675 70.4768C62.172 72.327 64.0122 74.7055 64.0155 77.0024C64.0178 79.316 62.2504 81.6184 59.0357 83.4854C55.3129 85.649 50.2872 86.8411 44.8866 86.8411Z" fill="#FFD06C"/>
<path d="M54.4803 80.655L53.3713 80.0148L52.3498 80.6084L53.4588 81.2487L51.9933 82.1003L50.8843 81.4601L50.6009 81.6248L48.9749 82.5697L47.3437 83.5176L44.9266 82.1221L46.5578 81.1741L37.4976 75.9432L35.8664 76.8912L33.4492 75.4957L35.0805 74.5477L36.7064 73.6028L36.9898 73.4381L35.8432 72.776L37.3086 71.9244L38.4553 72.5864L39.4768 71.9928L38.3302 71.3308L39.7528 70.504L40.9372 71.1878C43.0565 70.1932 45.3902 70.1217 47.4413 71.3059C49.0778 72.2507 49.53 73.4598 48.4352 74.3829C49.6183 73.8887 51.6161 73.2453 54.4854 74.9019C55.9605 75.7535 57.3155 77.1988 54.7132 79.1414L55.903 79.8283L54.4803 80.655ZM49.815 79.2813L50.7884 78.7156C52.0934 77.9572 51.6813 77.1988 50.7392 76.6549C49.3449 75.8499 48.0736 75.9214 47.1002 76.4871L46.0412 77.1025L49.815 79.2813ZM43.8717 75.8499L44.7649 75.3309C45.8667 74.6906 45.6966 74.0286 44.7114 73.4598C44.017 73.0589 42.8299 72.8444 41.648 73.5313L40.7548 74.0504L43.8717 75.8499Z" fill="#F9A83D"/>
<path d="M66.9963 67.3094L66.9733 74.0424C66.9504 77.3204 64.7956 80.5755 60.5089 83.0742C51.8899 88.0944 37.8378 88.0944 29.1727 83.0742C24.7715 80.5526 22.5938 77.2288 22.5938 73.9278L22.6396 67.1719L66.9963 67.3094Z" fill="#FFD06C"/>
<path d="M60.5235 76.3292C58.8544 77.3006 56.9862 78.0977 54.9686 78.6707C53.4491 79.144 51.8549 79.4926 50.2109 79.7169C49.4138 79.8414 48.5917 79.9162 47.7698 79.9659C43.3359 80.3396 38.7525 79.8913 34.6674 78.6458C32.6995 78.0729 30.8562 77.3006 29.1873 76.3292C20.4939 71.3224 20.444 63.1769 29.0628 58.1701C30.7566 57.1988 32.6497 56.4016 34.6674 55.8038C38.7277 54.5831 43.3359 54.1597 47.7698 54.5085C48.5917 54.5584 49.4138 54.6579 50.2109 54.7825C51.8549 55.0316 53.4491 55.3803 54.9686 55.8535C56.9365 56.4266 58.8047 57.1988 60.4487 58.1701C69.1421 63.1769 69.1919 71.2975 60.5235 76.3292Z" fill="#F9A83D"/>
<path d="M44.8866 77.1145C39.4826 77.1145 34.4401 75.9213 30.6871 73.7543C27.4657 71.8952 25.6166 69.5077 25.6133 67.2042C25.6099 64.8984 27.3695 62.6049 30.5673 60.7469C34.3036 58.5754 39.3382 57.3789 44.7433 57.3789C50.1507 57.3789 55.2021 58.5766 58.9675 60.7503C62.172 62.6005 64.0122 64.979 64.0155 67.2758C64.0178 69.5894 62.2504 71.8918 59.0357 73.7588C55.3129 75.9224 50.2872 77.1145 44.8866 77.1145Z" fill="#FFD06C"/>
<path d="M54.4803 70.9285L53.3713 70.2882L52.3498 70.8819L53.4588 71.5221L51.9933 72.3738L50.8843 71.7335L50.6009 71.8982L48.9749 72.8431L47.3437 73.7911L44.9266 72.3955L46.5578 71.4476L37.4976 66.2167L35.8664 67.1646L33.4492 65.7691L35.0805 64.8211L36.7064 63.8762L36.9898 63.7115L35.8432 63.0495L37.3086 62.1979L38.4553 62.8599L39.4768 62.2662L38.3302 61.6042L39.7528 60.7774L40.9372 61.4612C43.0565 60.4666 45.3902 60.3951 47.4413 61.5793C49.0778 62.5241 49.53 63.7332 48.4352 64.6563C49.6183 64.1621 51.6161 63.5188 54.4854 65.1754C55.9605 66.027 57.3155 67.4722 54.7132 69.4148L55.903 70.1017L54.4803 70.9285ZM49.815 69.5547L50.7884 68.989C52.0934 68.2306 51.6813 67.4723 50.7392 66.9284C49.3449 66.1234 48.0736 66.1949 47.1002 66.7605L46.0412 67.3759L49.815 69.5547ZM43.8717 66.1234L44.7649 65.6043C45.8667 64.964 45.6966 64.302 44.7114 63.7332C44.017 63.3323 42.8299 63.1178 41.648 63.8047L40.7548 64.3238L43.8717 66.1234Z" fill="#F9A83D"/>
<path d="M66.9963 57.5868L66.9733 64.3197C66.9504 67.5978 64.7956 70.8528 60.5089 73.3516C51.8899 78.3718 37.8378 78.3718 29.1727 73.3516C24.7715 70.8299 22.5938 67.5061 22.5938 64.2052L22.6396 57.4492L66.9963 57.5868Z" fill="#FFD06C"/>
<path d="M60.5235 66.6066C58.8544 67.5779 56.9862 68.3751 54.9686 68.9481C53.4491 69.4214 51.8549 69.77 50.2109 69.9942C49.4138 70.1187 48.5917 70.1936 47.7698 70.2433C43.3359 70.617 38.7525 70.1686 34.6674 68.9231C32.6995 68.3503 30.8562 67.5779 29.1873 66.6066C20.4939 61.5997 20.444 53.4543 29.0628 48.4475C30.7566 47.4761 32.6497 46.679 34.6674 46.0812C38.7277 44.8605 43.3359 44.4371 47.7698 44.7858C48.5917 44.8357 49.4138 44.9353 50.2109 45.0598C51.8549 45.309 53.4491 45.6576 54.9686 46.1309C56.9365 46.7039 58.8047 47.4761 60.4487 48.4475C69.1421 53.4543 69.1919 61.5748 60.5235 66.6066Z" fill="#F9A83D"/>
<path d="M44.8866 67.3918C39.4826 67.3918 34.4401 66.1987 30.6871 64.0317C27.4657 62.1725 25.6166 59.785 25.6133 57.4815C25.6099 55.1757 27.3695 52.8823 30.5673 51.0242C34.3036 48.8528 39.3382 47.6562 44.7433 47.6562C50.1507 47.6562 55.2021 48.8539 58.9675 51.0276C62.172 52.8778 64.0122 55.2563 64.0155 57.5531C64.0178 59.8667 62.2504 62.1692 59.0357 64.0362C55.3129 66.1998 50.2872 67.3918 44.8866 67.3918Z" fill="#FFD06C"/>
<path d="M54.4803 61.2058L53.3713 60.5656L52.3498 61.1592L53.4588 61.7995L51.9933 62.6511L50.8843 62.0108L50.6009 62.1756L48.9749 63.1204L47.3437 64.0684L44.9266 62.6729L46.5578 61.7249L37.4976 56.494L35.8664 57.442L33.4492 56.0464L35.0805 55.0985L36.7064 54.1536L36.9898 53.9889L35.8432 53.3268L37.3086 52.4752L38.4553 53.1372L39.4768 52.5436L38.3302 51.8815L39.7528 51.0548L40.9372 51.7386C43.0565 50.744 45.3902 50.6725 47.4413 51.8566C49.0778 52.8015 49.53 54.0106 48.4352 54.9337C49.6183 54.4395 51.6161 53.7961 54.4854 55.4527C55.9605 56.3043 57.3155 57.7496 54.7132 59.6922L55.903 60.3791L54.4803 61.2058ZM49.815 59.8321L50.7884 59.2664C52.0934 58.508 51.6813 57.7496 50.7392 57.2057C49.3449 56.4007 48.0736 56.4722 47.1002 57.0379L46.0412 57.6533L49.815 59.8321ZM43.8717 56.4007L44.7649 55.8817C45.8667 55.2414 45.6966 54.5794 44.7114 54.0106C44.017 53.6096 42.8299 53.3952 41.648 54.0821L40.7548 54.6011L43.8717 56.4007Z" fill="#F9A83D"/>
<path d="M66.9963 47.8602L66.9733 54.5932C66.9504 57.8712 64.7956 61.1263 60.5089 63.625C51.8899 68.6452 37.8378 68.6452 29.1727 63.625C24.7715 61.1033 22.5938 57.7796 22.5938 54.4786L22.6396 47.7227L66.9963 47.8602Z" fill="#FFD06C"/>
<path d="M60.5235 56.88C58.8544 57.8514 56.9862 58.6485 54.9686 59.2215C53.4491 59.6948 51.8549 60.0434 50.2109 60.2677C49.4138 60.3922 48.5917 60.467 47.7698 60.5167C43.3359 60.8904 38.7525 60.4421 34.6674 59.1966C32.6995 58.6237 30.8562 57.8514 29.1873 56.88C20.4939 51.8732 20.444 43.7277 29.0628 38.7209C30.7566 37.7495 32.6497 36.9524 34.6674 36.3546C38.7277 35.1339 43.3359 34.7105 47.7698 35.0593C48.5917 35.1091 49.4138 35.2087 50.2109 35.3332C51.8549 35.5824 53.4491 35.931 54.9686 36.4043C56.9365 36.9773 58.8047 37.7495 60.4487 38.7209C69.1421 43.7277 69.1919 51.8482 60.5235 56.88Z" fill="#F9A83D"/>
<path d="M44.8866 57.6653C39.4826 57.6653 34.4401 56.4721 30.6871 54.3051C27.4657 52.446 25.6166 50.0585 25.6133 47.7549C25.6099 45.4492 27.3695 43.1557 30.5673 41.2977C34.3036 39.1262 39.3382 37.9297 44.7433 37.9297C50.1507 37.9297 55.2021 39.1273 58.9675 41.301C62.172 43.1512 64.0122 45.5298 64.0155 47.8266C64.0178 50.1402 62.2504 52.4426 59.0357 54.3096C55.3129 56.4732 50.2872 57.6653 44.8866 57.6653Z" fill="#FFD06C"/>
<path d="M54.4803 51.4793L53.3713 50.839L52.3498 51.4326L53.4588 52.0729L51.9933 52.9245L50.8843 52.2843L50.6009 52.449L48.9749 53.3939L47.3437 54.3419L44.9266 52.9463L46.5578 51.9984L37.4976 46.7674L35.8664 47.7154L33.4492 46.3199L35.0805 45.3719L36.7064 44.427L36.9898 44.2623L35.8432 43.6003L37.3086 42.7486L38.4553 43.4107L39.4768 42.817L38.3302 42.155L39.7528 41.3282L40.9372 42.012C43.0565 41.0174 45.3902 40.9459 47.4413 42.1301C49.0778 43.0749 49.53 44.284 48.4352 45.2071C49.6183 44.7129 51.6161 44.0695 54.4854 45.7262C55.9605 46.5778 57.3155 48.023 54.7132 49.9656L55.903 50.6525L54.4803 51.4793ZM49.815 50.1055L50.7884 49.5398C52.0934 48.7814 51.6813 48.0231 50.7392 47.4791C49.3449 46.6741 48.0736 46.7456 47.1002 47.3113L46.0412 47.9267L49.815 50.1055ZM43.8717 46.6742L44.7649 46.1551C45.8667 45.5148 45.6966 44.8528 44.7114 44.284C44.017 43.8831 42.8299 43.6686 41.648 44.3555L40.7548 44.8746L43.8717 46.6742Z" fill="#F9A83D"/>
<path d="M66.9963 38.1375L66.9733 44.8705C66.9504 48.1486 64.7956 51.4036 60.5089 53.9023C51.8899 58.9226 37.8378 58.9226 29.1727 53.9023C24.7715 51.3807 22.5938 48.0569 22.5938 44.7559L22.6396 38L66.9963 38.1375Z" fill="#FFD06C"/>
<path d="M60.5235 47.1574C58.8544 48.1287 56.9862 48.9258 54.9686 49.4989C53.4491 49.9721 51.8549 50.3208 50.2109 50.545C49.4138 50.6695 48.5917 50.7443 47.7698 50.7941C43.3359 51.1678 38.7525 50.7194 34.6674 49.4739C32.6995 48.9011 30.8562 48.1287 29.1873 47.1574C20.4939 42.1505 20.444 34.0051 29.0628 28.9982C30.7566 28.0269 32.6497 27.2298 34.6674 26.6319C38.7277 25.4113 43.3359 24.9878 47.7698 25.3366C48.5917 25.3865 49.4138 25.4861 50.2109 25.6106C51.8549 25.8598 53.4491 26.2084 54.9686 26.6817C56.9365 27.2547 58.8047 28.0269 60.4487 28.9982C69.1421 34.0051 69.1919 42.1256 60.5235 47.1574Z" fill="#F9A83D"/>
<path d="M44.8866 47.9426C39.4826 47.9426 34.4401 46.7494 30.6871 44.5825C27.4657 42.7233 25.6166 40.3358 25.6133 38.0323C25.6099 35.7265 27.3695 33.4331 30.5673 31.575C34.3036 29.4036 39.3382 28.207 44.7433 28.207C50.1507 28.207 55.2021 29.4047 58.9675 31.5784C62.172 33.4286 64.0122 35.8071 64.0155 38.1039C64.0178 40.4175 62.2504 42.7199 59.0357 44.5869C55.3129 46.7506 50.2872 47.9426 44.8866 47.9426Z" fill="#FFD06C"/>
<path d="M54.4803 41.7566L53.3713 41.1163L52.3498 41.71L53.4588 42.3503L51.9933 43.2019L50.8843 42.5616L50.6009 42.7263L48.9749 43.6712L47.3437 44.6192L44.9266 43.2237L46.5578 42.2757L37.4976 37.0448L35.8664 37.9928L33.4492 36.5972L35.0805 35.6492L36.7064 34.7044L36.9898 34.5396L35.8432 33.8776L37.3086 33.026L38.4553 33.688L39.4768 33.0944L38.3302 32.4323L39.7528 31.6056L40.9372 32.2894C43.0565 31.2948 45.3902 31.2232 47.4413 32.4074C49.0778 33.3523 49.53 34.5613 48.4352 35.4844C49.6183 34.9903 51.6161 34.3469 54.4854 36.0035C55.9605 36.8551 57.3155 38.3004 54.7132 40.2429L55.903 40.9298L54.4803 41.7566ZM49.815 40.3828L50.7884 39.8172C52.0934 39.0588 51.6813 38.3004 50.7392 37.7565C49.3449 36.9515 48.0736 37.023 47.1002 37.5887L46.0412 38.2041L49.815 40.3828ZM43.8717 36.9515L44.7649 36.4324C45.8667 35.7922 45.6966 35.1301 44.7114 34.5614C44.017 34.1604 42.8299 33.946 41.648 34.6329L40.7548 35.1519L43.8717 36.9515Z" fill="#F9A83D"/>
<path d="M66.9963 28.411L66.9733 35.144C66.9504 38.422 64.7956 41.6771 60.5089 44.1758C51.8899 49.196 37.8378 49.196 29.1727 44.1758C24.7715 41.6541 22.5938 38.3303 22.5938 35.0294L22.6396 28.2734L66.9963 28.411Z" fill="#FFD06C"/>
<path d="M60.5235 37.4308C58.8544 38.4021 56.9862 39.1993 54.9686 39.7723C53.4491 40.2456 51.8549 40.5942 50.2109 40.8185C49.4138 40.943 48.5917 41.0178 47.7698 41.0675C43.3359 41.4412 38.7525 40.9928 34.6674 39.7474C32.6995 39.1745 30.8562 38.4021 29.1873 37.4308C20.4939 32.424 20.444 24.2785 29.0628 19.2717C30.7566 18.3003 32.6497 17.5032 34.6674 16.9054C38.7277 15.6847 43.3359 15.2613 47.7698 15.61C48.5917 15.6599 49.4138 15.7595 50.2109 15.884C51.8549 16.1332 53.4491 16.4818 54.9686 16.9551C56.9365 17.5281 58.8047 18.3003 60.4487 19.2717C69.1421 24.2785 69.1919 32.399 60.5235 37.4308Z" fill="#F9A83D"/>
<path d="M44.8866 38.2161C39.4826 38.2161 34.4401 37.0229 30.6871 34.8559C27.4657 32.9967 25.6166 30.6093 25.6133 28.3057C25.6099 26 27.3695 23.7065 30.5673 21.8485C34.3036 19.677 39.3382 18.4805 44.7433 18.4805C50.1507 18.4805 55.2021 19.6781 58.9675 21.8518C62.172 23.702 64.0122 26.0805 64.0155 28.3774C64.0178 30.691 62.2504 32.9934 59.0357 34.8604C55.3129 37.024 50.2872 38.2161 44.8866 38.2161Z" fill="#FFD06C"/>
<path d="M54.4803 32.03L53.3713 31.3898L52.3498 31.9834L53.4588 32.6237L51.9933 33.4753L50.8843 32.8351L50.6009 32.9998L48.9749 33.9447L47.3437 34.8926L44.9266 33.4971L46.5578 32.5491L37.4976 27.3182L35.8664 28.2662L33.4492 26.8707L35.0805 25.9227L36.7064 24.9778L36.9898 24.8131L35.8432 24.151L37.3086 23.2994L38.4553 23.9614L39.4768 23.3678L38.3302 22.7058L39.7528 21.879L40.9372 22.5628C43.0565 21.5682 45.3902 21.4967 47.4413 22.6809C49.0778 23.6257 49.53 24.8348 48.4352 25.7579C49.6183 25.2637 51.6161 24.6203 54.4854 26.2769C55.9605 27.1285 57.3155 28.5738 54.7132 30.5164L55.903 31.2033L54.4803 32.03ZM49.815 30.6563L50.7884 30.0906C52.0934 29.3322 51.6813 28.5738 50.7392 28.0299C49.3449 27.2249 48.0736 27.2964 47.1002 27.8621L46.0412 28.4775L49.815 30.6563ZM43.8717 27.2249L44.7649 26.7059C45.8667 26.0656 45.6966 25.4036 44.7114 24.8348C44.017 24.4339 42.8299 24.2194 41.648 24.9063L40.7548 25.4254L43.8717 27.2249Z" fill="#F9A83D"/>
<path d="M66.9963 18.6883L66.9733 25.4213C66.9504 28.6993 64.7956 31.9544 60.5089 34.4531C51.8899 39.4733 37.8378 39.4733 29.1727 34.4531C24.7715 31.9315 22.5938 28.6077 22.5938 25.3067L22.6396 18.5508L66.9963 18.6883Z" fill="#FFD06C"/>
<path d="M60.5235 27.7081C58.8544 28.6795 56.9862 29.4766 54.9686 30.0496C53.4491 30.5229 51.8549 30.8715 50.2109 31.0958C49.4138 31.2203 48.5917 31.2951 47.7698 31.3448C43.3359 31.7185 38.7525 31.2702 34.6674 30.0247C32.6995 29.4518 30.8562 28.6795 29.1873 27.7081C20.4939 22.7013 20.444 14.5558 29.0628 9.54901C30.7566 8.57766 32.6497 7.78054 34.6674 7.18273C38.7277 5.96204 43.3359 5.53862 47.7698 5.88739C48.5917 5.93726 49.4138 6.03684 50.2109 6.16136C51.8549 6.41054 53.4491 6.75916 54.9686 7.23245C56.9365 7.80547 58.8047 8.57766 60.4487 9.54901C69.1421 14.5558 69.1919 22.6764 60.5235 27.7081Z" fill="#F9A83D"/>
<path d="M44.8866 28.4934C39.4826 28.4934 34.4401 27.3002 30.6871 25.1332C27.4657 23.2741 25.6166 20.8866 25.6133 18.5831C25.6099 16.2773 27.3695 13.9838 30.5673 12.1258C34.3036 9.95435 39.3382 8.75781 44.7433 8.75781C50.1507 8.75781 55.2021 9.95547 58.9675 12.1292C62.172 13.9794 64.0122 16.3579 64.0155 18.6547C64.0178 20.9683 62.2504 23.2707 59.0357 25.1377C55.3129 27.3013 50.2872 28.4934 44.8866 28.4934Z" fill="#FFD06C"/>
<path d="M53.113 13.7874C54.6588 14.6798 54.6737 16.1053 53.1242 17.0058C51.797 17.7771 49.727 17.878 48.2109 17.2844C46.0707 18.5282 46.4226 17.8781 47.206 19.5862C48.3004 19.566 49.424 19.7719 50.2633 20.2565C51.781 21.1328 51.7612 22.5784 50.2534 23.4547C48.7108 24.3511 46.2429 24.3512 44.7251 23.4749C43.1794 22.5825 43.1714 21.153 44.714 20.2565C45.0267 20.0748 45.3396 19.9335 45.7224 19.8325C45.3694 19.037 45.3258 18.716 45.0224 18.5408C44.719 18.3657 44.1559 18.3364 42.7639 18.1244C42.5909 18.3465 42.3829 18.5484 42.0702 18.7301C40.5276 19.6266 38.0317 19.6105 36.514 18.7342C34.9613 17.8377 34.9602 16.4123 36.5028 15.5158C38.0107 14.6395 40.4994 14.6193 42.0521 15.5158C42.8634 15.9842 43.2576 16.6545 43.1844 17.2643C45.8567 17.6721 45.1883 17.8175 47.12 16.6949C46.0553 15.7984 46.1879 14.5789 47.5498 13.7874C49.0994 12.8869 51.5953 12.9111 53.113 13.7874Z" fill="#F9A83D"/>
<g opacity="0.35">
<path d="M47.7704 5.88739V31.3448C43.3364 31.7185 38.753 31.2702 34.668 30.0247V7.18273C38.7282 5.96204 43.3364 5.53862 47.7704 5.88739Z" fill="white"/>
<path d="M54.9686 7.23125V30.0484C53.4491 30.5217 51.8549 30.8703 50.2109 31.0946V6.16016C51.8549 6.40934 53.4491 6.75796 54.9686 7.23125Z" fill="white"/>
</g>
<path d="M111.309 78.5321L111.286 85.2651C111.263 88.5431 109.108 91.7982 104.821 94.2969C96.2024 99.3171 82.1503 99.3171 73.4852 94.2969C69.084 91.7752 66.9062 88.4514 66.9062 85.1505L66.9521 78.3945L111.309 78.5321Z" fill="#FFD06C"/>
<path d="M104.836 87.5519C103.167 88.5232 101.299 89.3204 99.2811 89.8934C97.7616 90.3667 96.1674 90.7153 94.5234 90.9395C93.7263 91.0641 92.9042 91.1389 92.0823 91.1886C87.6484 91.5623 83.065 91.1139 78.9799 89.8685C77.012 89.2956 75.1687 88.5232 73.4998 87.5519C64.8064 82.5451 64.7565 74.3996 73.3753 69.3928C75.0691 68.4214 76.9622 67.6243 78.9799 67.0265C83.0402 65.8058 87.6484 65.3824 92.0823 65.7311C92.9042 65.781 93.7263 65.8806 94.5234 66.0051C96.1674 66.2543 97.7616 66.6029 99.2811 67.0762C101.249 67.6492 103.117 68.4214 104.761 69.3928C113.455 74.3996 113.504 82.5201 104.836 87.5519Z" fill="#F9A83D"/>
<path d="M89.1991 88.3371C83.7951 88.3371 78.7526 87.144 74.9996 84.977C71.7782 83.1178 69.9291 80.7304 69.9258 78.4268C69.9224 76.1211 71.682 73.8276 74.8798 71.9696C78.6161 69.7981 83.6507 68.6016 89.0558 68.6016C94.4632 68.6016 99.5146 69.7992 103.28 71.9729C106.485 73.8231 108.325 76.2016 108.328 78.4985C108.33 80.8121 106.563 83.1145 103.348 84.9815C99.6254 87.1451 94.5997 88.3371 89.1991 88.3371Z" fill="#FFD06C"/>
<path d="M98.7928 82.1511L97.6838 81.5109L96.6623 82.1045L97.7713 82.7448L96.3058 83.5964L95.1968 82.9561L94.9134 83.1209L93.2874 84.0658L91.6562 85.0137L89.2391 83.6182L90.8703 82.6702L81.8101 77.4393L80.1789 78.3873L77.7617 76.9918L79.393 76.0438L81.0189 75.0989L81.3023 74.9342L80.1557 74.2721L81.6211 73.4205L82.7678 74.0825L83.7893 73.4889L82.6427 72.8269L84.0653 72.0001L85.2497 72.6839C87.369 71.6893 89.7027 71.6178 91.7538 72.802C93.3903 73.7468 93.8425 74.9559 92.7477 75.879C93.9308 75.3848 95.9286 74.7414 98.7979 76.398C100.273 77.2496 101.628 78.6949 99.0257 80.6375L100.215 81.3244L98.7928 82.1511ZM94.1275 80.7774L95.1009 80.2117C96.4059 79.4533 95.9938 78.6949 95.0517 78.151C93.6574 77.346 92.3861 77.4175 91.4127 77.9832L90.3537 78.5986L94.1275 80.7774ZM88.1842 77.346L89.0774 76.827C90.1792 76.1867 90.0091 75.5247 89.0239 74.9559C88.3295 74.555 87.1424 74.3405 85.9605 75.0274L85.0673 75.5464L88.1842 77.346Z" fill="#F9A83D"/>
<path d="M111.309 68.8055L111.286 75.5385C111.263 78.8165 109.108 82.0716 104.821 84.5703C96.2024 89.5905 82.1503 89.5905 73.4852 84.5703C69.084 82.0487 66.9062 78.7249 66.9062 75.4239L66.9521 68.668L111.309 68.8055Z" fill="#FFD06C"/>
<path d="M104.836 77.8253C103.167 78.7967 101.299 79.5938 99.2811 80.1668C97.7616 80.6401 96.1674 80.9887 94.5234 81.213C93.7263 81.3375 92.9042 81.4123 92.0823 81.462C87.6484 81.8357 83.065 81.3874 78.9799 80.1419C77.012 79.569 75.1687 78.7967 73.4998 77.8253C64.8064 72.8185 64.7565 64.673 73.3753 59.6662C75.0691 58.6948 76.9622 57.8977 78.9799 57.2999C83.0402 56.0792 87.6484 55.6558 92.0823 56.0046C92.9042 56.0544 93.7263 56.154 94.5234 56.2785C96.1674 56.5277 97.7616 56.8763 99.2811 57.3496C101.249 57.9227 103.117 58.6948 104.761 59.6662C113.455 64.673 113.504 72.7936 104.836 77.8253Z" fill="#F9A83D"/>
<path d="M89.1991 78.6106C83.7951 78.6106 78.7526 77.4174 74.9996 75.2504C71.7782 73.3913 69.9291 71.0038 69.9258 68.7003C69.9224 66.3945 71.682 64.101 74.8798 62.243C78.6161 60.0715 83.6507 58.875 89.0558 58.875C94.4632 58.875 99.5146 60.0727 103.28 62.2463C106.485 64.0966 108.325 66.4751 108.328 68.7719C108.33 71.0855 106.563 73.3879 103.348 75.2549C99.6254 77.4185 94.5997 78.6106 89.1991 78.6106Z" fill="#FFD06C"/>
<path d="M98.7928 72.4246L97.6838 71.7843L96.6623 72.378L97.7713 73.0182L96.3058 73.8698L95.1968 73.2296L94.9134 73.3943L93.2874 74.3392L91.6562 75.2872L89.2391 73.8916L90.8703 72.9437L81.8101 67.7128L80.1789 68.6607L77.7617 67.2652L79.393 66.3172L81.0189 65.3723L81.3023 65.2076L80.1557 64.5456L81.6211 63.6939L82.7678 64.356L83.7893 63.7623L82.6427 63.1003L84.0653 62.2735L85.2497 62.9573C87.369 61.9627 89.7027 61.8912 91.7538 63.0754C93.3903 64.0202 93.8425 65.2293 92.7477 66.1524C93.9308 65.6582 95.9286 65.0149 98.7979 66.6715C100.273 67.5231 101.628 68.9683 99.0257 70.9109L100.215 71.5978L98.7928 72.4246ZM94.1275 71.0508L95.1009 70.4851C96.4059 69.7267 95.9938 68.9684 95.0517 68.4244C93.6574 67.6194 92.3861 67.6909 91.4127 68.2566L90.3537 68.872L94.1275 71.0508ZM88.1842 67.6195L89.0774 67.1004C90.1792 66.4601 90.0091 65.7981 89.0239 65.2293C88.3295 64.8284 87.1424 64.6139 85.9605 65.3008L85.0673 65.8199L88.1842 67.6195Z" fill="#F9A83D"/>
<path d="M111.309 59.0828L111.286 65.8158C111.263 69.0939 109.108 72.3489 104.821 74.8476C96.2024 79.8679 82.1503 79.8679 73.4852 74.8476C69.084 72.326 66.9062 69.0022 66.9062 65.7012L66.9521 58.9453L111.309 59.0828Z" fill="#FFD06C"/>
<path d="M104.836 68.1027C103.167 69.074 101.299 69.8711 99.2811 70.4442C97.7616 70.9175 96.1674 71.2661 94.5234 71.4903C93.7263 71.6148 92.9042 71.6896 92.0823 71.7394C87.6484 72.1131 83.065 71.6647 78.9799 70.4192C77.012 69.8464 75.1687 69.074 73.4998 68.1027C64.8064 63.0958 64.7565 54.9504 73.3753 49.9435C75.0691 48.9722 76.9622 48.1751 78.9799 47.5773C83.0402 46.3566 87.6484 45.9332 92.0823 46.2819C92.9042 46.3318 93.7263 46.4314 94.5234 46.5559C96.1674 46.8051 97.7616 47.1537 99.2811 47.627C101.249 48.2 103.117 48.9722 104.761 49.9435C113.455 54.9504 113.504 63.0709 104.836 68.1027Z" fill="#F9A83D"/>
<path d="M89.1991 68.8879C83.7951 68.8879 78.7526 67.6947 74.9996 65.5278C71.7782 63.6686 69.9291 61.2811 69.9258 58.9776C69.9224 56.6718 71.682 54.3784 74.8798 52.5203C78.6161 50.3489 83.6507 49.1523 89.0558 49.1523C94.4632 49.1523 99.5146 50.35 103.28 52.5237C106.485 54.3739 108.325 56.7524 108.328 59.0492C108.33 61.3628 106.563 63.6653 103.348 65.5323C99.6254 67.6959 94.5997 68.8879 89.1991 68.8879Z" fill="#FFD06C"/>
<path d="M98.7928 62.7019L97.6838 62.0616L96.6623 62.6553L97.7713 63.2956L96.3058 64.1472L95.1968 63.5069L94.9134 63.6717L93.2874 64.6165L91.6562 65.5645L89.2391 64.169L90.8703 63.221L81.8101 57.9901L80.1789 58.9381L77.7617 57.5425L79.393 56.5946L81.0189 55.6497L81.3023 55.4849L80.1557 54.8229L81.6211 53.9713L82.7678 54.6333L83.7893 54.0397L82.6427 53.3776L84.0653 52.5509L85.2497 53.2347C87.369 52.2401 89.7027 52.1686 91.7538 53.3527C93.3903 54.2976 93.8425 55.5067 92.7477 56.4298C93.9308 55.9356 95.9286 55.2922 98.7979 56.9488C100.273 57.8004 101.628 59.2457 99.0257 61.1883L100.215 61.8752L98.7928 62.7019ZM94.1275 61.3281L95.1009 60.7625C96.4059 60.0041 95.9938 59.2457 95.0517 58.7018C93.6574 57.8968 92.3861 57.9683 91.4127 58.534L90.3537 59.1494L94.1275 61.3281ZM88.1842 57.8968L89.0774 57.3778C90.1792 56.7375 90.0091 56.0755 89.0239 55.5067C88.3295 55.1057 87.1424 54.8913 85.9605 55.5782L85.0673 56.0972L88.1842 57.8968Z" fill="#F9A83D"/>
<path d="M111.309 49.3563L111.286 56.0893C111.263 59.3673 109.108 62.6224 104.821 65.1211C96.2024 70.1413 82.1503 70.1413 73.4852 65.1211C69.084 62.5994 66.9062 59.2757 66.9062 55.9747L66.9521 49.2188L111.309 49.3563Z" fill="#FFD06C"/>
<path d="M104.836 58.3761C103.167 59.3475 101.299 60.1446 99.2811 60.7176C97.7616 61.1909 96.1674 61.5395 94.5234 61.7638C93.7263 61.8883 92.9042 61.9631 92.0823 62.0128C87.6484 62.3865 83.065 61.9381 78.9799 60.6927C77.012 60.1198 75.1687 59.3475 73.4998 58.3761C64.8064 53.3693 64.7565 45.2238 73.3753 40.217C75.0691 39.2456 76.9622 38.4485 78.9799 37.8507C83.0402 36.63 87.6484 36.2066 92.0823 36.5554C92.9042 36.6052 93.7263 36.7048 94.5234 36.8293C96.1674 37.0785 97.7616 37.4271 99.2811 37.9004C101.249 38.4734 103.117 39.2456 104.761 40.217C113.455 45.2238 113.504 53.3443 104.836 58.3761Z" fill="#F9A83D"/>
<path d="M89.1991 59.1614C83.7951 59.1614 78.7526 57.9682 74.9996 55.8012C71.7782 53.942 69.9291 51.5546 69.9258 49.251C69.9224 46.9453 71.682 44.6518 74.8798 42.7938C78.6161 40.6223 83.6507 39.4258 89.0558 39.4258C94.4632 39.4258 99.5146 40.6234 103.28 42.7971C106.485 44.6473 108.325 47.0259 108.328 49.3227C108.33 51.6363 106.563 53.9387 103.348 55.8057C99.6254 57.9693 94.5997 59.1614 89.1991 59.1614Z" fill="#FFD06C"/>
<path d="M98.7928 52.9753L97.6838 52.3351L96.6623 52.9287L97.7713 53.569L96.3058 54.4206L95.1968 53.7804L94.9134 53.9451L93.2874 54.89L91.6562 55.838L89.2391 54.4424L90.8703 53.4944L81.8101 48.2635L80.1789 49.2115L77.7617 47.816L79.393 46.868L81.0189 45.9231L81.3023 45.7584L80.1557 45.0964L81.6211 44.2447L82.7678 44.9068L83.7893 44.3131L82.6427 43.6511L84.0653 42.8243L85.2497 43.5081C87.369 42.5135 89.7027 42.442 91.7538 43.6262C93.3903 44.571 93.8425 45.7801 92.7477 46.7032C93.9308 46.209 95.9286 45.5656 98.7979 47.2222C100.273 48.0739 101.628 49.5191 99.0257 51.4617L100.215 52.1486L98.7928 52.9753ZM94.1275 51.6016L95.1009 51.0359C96.4059 50.2775 95.9938 49.5191 95.0517 48.9752C93.6574 48.1702 92.3861 48.2417 91.4127 48.8074L90.3537 49.4228L94.1275 51.6016ZM88.1842 48.1702L89.0774 47.6512C90.1792 47.0109 90.0091 46.3489 89.0239 45.7801C88.3295 45.3792 87.1424 45.1647 85.9605 45.8516L85.0673 46.3707L88.1842 48.1702Z" fill="#F9A83D"/>
<path d="M111.309 39.6336L111.286 46.3666C111.263 49.6446 109.108 52.8997 104.821 55.3984C96.2024 60.4187 82.1503 60.4187 73.4852 55.3984C69.084 52.8768 66.9062 49.553 66.9062 46.252L66.9521 39.4961L111.309 39.6336Z" fill="#FFD06C"/>
<path d="M104.836 48.6535C103.167 49.6248 101.299 50.4219 99.2811 50.995C97.7616 51.4682 96.1674 51.8169 94.5234 52.0411C93.7263 52.1656 92.9042 52.2404 92.0823 52.2901C87.6484 52.6638 83.065 52.2155 78.9799 50.97C77.012 50.3971 75.1687 49.6248 73.4998 48.6535C64.8064 43.6466 64.7565 35.5012 73.3753 30.4943C75.0691 29.523 76.9622 28.7258 78.9799 28.128C83.0402 26.9073 87.6484 26.4839 92.0823 26.8327C92.9042 26.8826 93.7263 26.9822 94.5234 27.1067C96.1674 27.3559 97.7616 27.7045 99.2811 28.1778C101.249 28.7508 103.117 29.523 104.761 30.4943C113.455 35.5012 113.504 43.6217 104.836 48.6535Z" fill="#F9A83D"/>
<path d="M89.1991 49.4387C83.7951 49.4387 78.7526 48.2455 74.9996 46.0786C71.7782 44.2194 69.9291 41.8319 69.9258 39.5284C69.9224 37.2226 71.682 34.9292 74.8798 33.0711C78.6161 30.8997 83.6507 29.7031 89.0558 29.7031C94.4632 29.7031 99.5146 30.9008 103.28 33.0745C106.485 34.9247 108.325 37.3032 108.328 39.6C108.33 41.9136 106.563 44.216 103.348 46.083C99.6254 48.2467 94.5997 49.4387 89.1991 49.4387Z" fill="#FFD06C"/>
<path d="M98.7928 43.2527L97.6838 42.6124L96.6623 43.2061L97.7713 43.8463L96.3058 44.698L95.1968 44.0577L94.9134 44.2224L93.2874 45.1673L91.6562 46.1153L89.2391 44.7198L90.8703 43.7718L81.8101 38.5409L80.1789 39.4889L77.7617 38.0933L79.393 37.1453L81.0189 36.2005L81.3023 36.0357L80.1557 35.3737L81.6211 34.5221L82.7678 35.1841L83.7893 34.5904L82.6427 33.9284L84.0653 33.1017L85.2497 33.7854C87.369 32.7908 89.7027 32.7193 91.7538 33.9035C93.3903 34.8484 93.8425 36.0574 92.7477 36.9805C93.9308 36.4864 95.9286 35.843 98.7979 37.4996C100.273 38.3512 101.628 39.7965 99.0257 41.739L100.215 42.4259L98.7928 43.2527ZM94.1275 41.8789L95.1009 41.3132C96.4059 40.5549 95.9938 39.7965 95.0517 39.2526C93.6574 38.4476 92.3861 38.5191 91.4127 39.0848L90.3537 39.7002L94.1275 41.8789ZM88.1842 38.4476L89.0774 37.9285C90.1792 37.2883 90.0091 36.6262 89.0239 36.0575C88.3295 35.6565 87.1424 35.4421 85.9605 36.129L85.0673 36.648L88.1842 38.4476Z" fill="#F9A83D"/>
<path d="M111.309 29.9071L111.286 36.6401C111.263 39.9181 109.108 43.1732 104.821 45.6719C96.2024 50.6921 82.1503 50.6921 73.4852 45.6719C69.084 43.1502 66.9062 39.8264 66.9062 36.5255L66.9521 29.7695L111.309 29.9071Z" fill="#FFD06C"/>
<path d="M104.836 38.9269C103.167 39.8982 101.299 40.6954 99.2811 41.2684C97.7616 41.7417 96.1674 42.0903 94.5234 42.3145C93.7263 42.4391 92.9042 42.5139 92.0823 42.5636C87.6484 42.9373 83.065 42.4889 78.9799 41.2435C77.012 40.6706 75.1687 39.8982 73.4998 38.9269C64.8064 33.9201 64.7565 25.7746 73.3753 20.7678C75.0691 19.7964 76.9622 18.9993 78.9799 18.4015C83.0402 17.1808 87.6484 16.7574 92.0823 17.1061C92.9042 17.156 93.7263 17.2556 94.5234 17.3801C96.1674 17.6293 97.7616 17.9779 99.2811 18.4512C101.249 19.0242 103.117 19.7964 104.761 20.7678C113.455 25.7746 113.504 33.8951 104.836 38.9269Z" fill="#F9A83D"/>
<path d="M89.1991 39.7121C83.7951 39.7121 78.7526 38.519 74.9996 36.352C71.7782 34.4928 69.9291 32.1053 69.9258 29.8018C69.9224 27.4961 71.682 25.2026 74.8798 23.3446C78.6161 21.1731 83.6507 19.9766 89.0558 19.9766C94.4632 19.9766 99.5146 21.1742 103.28 23.3479C106.485 25.1981 108.325 27.5766 108.328 29.8735C108.33 32.1871 106.563 34.4895 103.348 36.3565C99.6254 38.5201 94.5997 39.7121 89.1991 39.7121Z" fill="#FFD06C"/>
<path d="M98.7928 33.5261L97.6838 32.8859L96.6623 33.4795L97.7713 34.1198L96.3058 34.9714L95.1968 34.3311L94.9134 34.4959L93.2874 35.4408L91.6562 36.3887L89.2391 34.9932L90.8703 34.0452L81.8101 28.8143L80.1789 29.7623L77.7617 28.3668L79.393 27.4188L81.0189 26.4739L81.3023 26.3092L80.1557 25.6471L81.6211 24.7955L82.7678 25.4575L83.7893 24.8639L82.6427 24.2019L84.0653 23.3751L85.2497 24.0589C87.369 23.0643 89.7027 22.9928 91.7538 24.177C93.3903 25.1218 93.8425 26.3309 92.7477 27.254C93.9308 26.7598 95.9286 26.1164 98.7979 27.773C100.273 28.6246 101.628 30.0699 99.0257 32.0125L100.215 32.6994L98.7928 33.5261ZM94.1275 32.1524L95.1009 31.5867C96.4059 30.8283 95.9938 30.0699 95.0517 29.526C93.6574 28.721 92.3861 28.7925 91.4127 29.3582L90.3537 29.9736L94.1275 32.1524ZM88.1842 28.721L89.0774 28.202C90.1792 27.5617 90.0091 26.8997 89.0239 26.3309C88.3295 25.93 87.1424 25.7155 85.9605 26.4024L85.0673 26.9214L88.1842 28.721Z" fill="#F9A83D"/>
<path d="M111.309 20.1844L111.286 26.9174C111.263 30.1954 109.108 33.4505 104.821 35.9492C96.2024 40.9694 82.1503 40.9694 73.4852 35.9492C69.084 33.4276 66.9062 30.1038 66.9062 26.8028L66.9521 20.0469L111.309 20.1844Z" fill="#FFD06C"/>
<path d="M104.836 29.2042C103.167 30.1756 101.299 30.9727 99.2811 31.5457C97.7616 32.019 96.1674 32.3676 94.5234 32.5919C93.7263 32.7164 92.9042 32.7912 92.0823 32.8409C87.6484 33.2146 83.065 32.7663 78.9799 31.5208C77.012 30.9479 75.1687 30.1756 73.4998 29.2042C64.8064 24.1974 64.7565 16.0519 73.3753 11.0451C75.0691 10.0738 76.9622 9.27663 78.9799 8.67883C83.0402 7.45813 87.6484 7.03471 92.0823 7.38348C92.9042 7.43335 93.7263 7.53293 94.5234 7.65745C96.1674 7.90664 97.7616 8.25525 99.2811 8.72854C101.249 9.30156 103.117 10.0738 104.761 11.0451C113.455 16.0519 113.504 24.1725 104.836 29.2042Z" fill="#F9A83D"/>
<path d="M89.1991 29.9895C83.7951 29.9895 78.7526 28.7963 74.9996 26.6293C71.7782 24.7702 69.9291 22.3827 69.9258 20.0792C69.9224 17.7734 71.682 15.4799 74.8798 13.6219C78.6161 11.4504 83.6507 10.2539 89.0558 10.2539C94.4632 10.2539 99.5146 11.4516 103.28 13.6253C106.485 15.4755 108.325 17.854 108.328 20.1508C108.33 22.4644 106.563 24.7668 103.348 26.6338C99.6254 28.7974 94.5997 29.9895 89.1991 29.9895Z" fill="#FFD06C"/>
<path d="M98.7928 23.8035L97.6838 23.1632L96.6623 23.7569L97.7713 24.3971L96.3058 25.2488L95.1968 24.6085L94.9134 24.7732L93.2874 25.7181L91.6562 26.6661L89.2391 25.2705L90.8703 24.3226L81.8101 19.0917L80.1789 20.0396L77.7617 18.6441L79.393 17.6961L81.0189 16.7512L81.3023 16.5865L80.1557 15.9245L81.6211 15.0729L82.7678 15.7349L83.7893 15.1412L82.6427 14.4792L84.0653 13.6524L85.2497 14.3362C87.369 13.3416 89.7027 13.2701 91.7538 14.4543C93.3903 15.3991 93.8425 16.6082 92.7477 17.5313C93.9308 17.0371 95.9286 16.3938 98.7979 18.0504C100.273 18.902 101.628 20.3472 99.0257 22.2898L100.215 22.9767L98.7928 23.8035ZM94.1275 22.4297L95.1009 21.864C96.4059 21.1056 95.9938 20.3473 95.0517 19.8034C93.6574 18.9984 92.3861 19.0699 91.4127 19.6355L90.3537 20.2509L94.1275 22.4297ZM88.1842 18.9984L89.0774 18.4793C90.1792 17.839 90.0091 17.177 89.0239 16.6082C88.3295 16.2073 87.1424 15.9928 85.9605 16.6797L85.0673 17.1988L88.1842 18.9984Z" fill="#F9A83D"/>
<g opacity="0.35">
<path d="M92.0829 7.38348V32.8409C87.6489 33.2146 83.0655 32.7663 78.9805 31.5208V8.67883C83.0407 7.45813 87.6489 7.03471 92.0829 7.38348Z" fill="white"/>
<path d="M99.2811 8.72734V31.5445C97.7616 32.0178 96.1674 32.3664 94.5234 32.5907V7.65625C96.1674 7.90544 97.7616 8.25405 99.2811 8.72734Z" fill="white"/>
</g>
<path d="M71.9768 101.223L71.9538 107.956C71.9309 111.234 69.7761 114.49 65.4894 116.988C56.8703 122.008 42.8183 122.008 34.1532 116.988C29.752 114.467 27.5742 111.143 27.5742 107.842L27.6201 101.086L71.9768 101.223Z" fill="#FFD06C"/>
<path d="M65.504 110.243C63.8349 111.215 61.9667 112.012 59.949 112.585C58.4296 113.058 56.8353 113.407 55.1914 113.631C54.3943 113.755 53.5722 113.83 52.7503 113.88C48.3163 114.254 43.7329 113.805 39.6479 112.56C37.6799 111.987 35.8366 111.215 34.1678 110.243C25.4744 105.236 25.4245 97.091 34.0432 92.0842C35.7371 91.1128 37.6302 90.3157 39.6479 89.7179C43.7081 88.4972 48.3163 88.0738 52.7503 88.4225C53.5722 88.4724 54.3943 88.572 55.1914 88.6965C56.8353 88.9457 58.4296 89.2943 59.949 89.7676C61.917 90.3406 63.7852 91.1128 65.4292 92.0842C74.1225 97.091 74.1724 105.212 65.504 110.243Z" fill="#F9A83D"/>
<path d="M49.8671 111.029C44.4631 111.029 39.4206 109.835 35.6676 107.668C32.4462 105.809 30.5971 103.422 30.5938 101.118C30.5904 98.8125 32.3499 96.519 35.5478 94.661C39.284 92.4895 44.3187 91.293 49.7238 91.293C55.1312 91.293 60.1826 92.4906 63.9479 94.6643C67.1525 96.5145 68.9926 98.8931 68.996 101.19C68.9982 103.503 67.2309 105.806 64.0162 107.673C60.2934 109.836 55.2677 111.029 49.8671 111.029Z" fill="#FFD06C"/>
<path d="M59.4608 104.843L58.3518 104.202L57.3302 104.796L58.4392 105.436L56.9738 106.288L55.8648 105.648L55.5813 105.812L53.9554 106.757L52.3242 107.705L49.907 106.31L51.5383 105.362L42.4781 100.131L40.8468 101.079L38.4297 99.6832L40.0609 98.7352L41.6869 97.7903L41.9703 97.6256L40.8237 96.9636L42.2891 96.1119L43.4358 96.7739L44.4573 96.1803L43.3107 95.5183L44.7333 94.6915L45.9177 95.3753C48.0369 94.3807 50.3707 94.3092 52.4218 95.4934C54.0583 96.4382 54.5105 97.6473 53.4157 98.5704C54.5987 98.0762 56.5966 97.4328 59.4659 99.0894C60.941 99.941 62.296 101.386 59.6937 103.329L60.8834 104.016L59.4608 104.843ZM54.7955 103.469L55.7689 102.903C57.0739 102.145 56.6618 101.386 55.7197 100.842C54.3254 100.037 53.0541 100.109 52.0807 100.675L51.0217 101.29L54.7955 103.469ZM48.8522 100.037L49.7454 99.5184C50.8472 98.8781 50.6771 98.2161 49.6919 97.6473C48.9975 97.2464 47.8104 97.0319 46.6284 97.7188L45.7352 98.2379L48.8522 100.037Z" fill="#F9A83D"/>
<path d="M71.9768 91.4969L71.9538 98.2299C71.9309 101.508 69.7761 104.763 65.4894 107.262C56.8703 112.282 42.8183 112.282 34.1532 107.262C29.752 104.74 27.5742 101.416 27.5742 98.1153L27.6201 91.3594L71.9768 91.4969Z" fill="#FFD06C"/>
<path d="M65.504 100.517C63.8349 101.488 61.9667 102.285 59.949 102.858C58.4296 103.332 56.8353 103.68 55.1914 103.904C54.3943 104.029 53.5722 104.104 52.7503 104.153C48.3163 104.527 43.7329 104.079 39.6479 102.833C37.6799 102.26 35.8366 101.488 34.1678 100.517C25.4744 95.5099 25.4245 87.3644 34.0432 82.3576C35.7371 81.3863 37.6302 80.5891 39.6479 79.9913C43.7081 78.7706 48.3163 78.3472 52.7503 78.696C53.5722 78.7459 54.3943 78.8454 55.1914 78.97C56.8353 79.2191 58.4296 79.5678 59.949 80.041C61.917 80.6141 63.7852 81.3863 65.4292 82.3576C74.1225 87.3644 74.1724 95.485 65.504 100.517Z" fill="#F9A83D"/>
<path d="M49.8671 101.302C44.4631 101.302 39.4206 100.109 35.6676 97.9418C32.4462 96.0827 30.5971 93.6952 30.5938 91.3917C30.5904 89.0859 32.3499 86.7924 35.5478 84.9344C39.284 82.7629 44.3187 81.5664 49.7238 81.5664C55.1312 81.5664 60.1826 82.7641 63.9479 84.9378C67.1525 86.788 68.9926 89.1665 68.996 91.4633C68.9982 93.7769 67.2309 96.0793 64.0162 97.9463C60.2934 100.11 55.2677 101.302 49.8671 101.302Z" fill="#FFD06C"/>
<path d="M59.4608 95.116L58.3518 94.4757L57.3302 95.0694L58.4392 95.7096L56.9738 96.5613L55.8648 95.921L55.5813 96.0857L53.9554 97.0306L52.3242 97.9786L49.907 96.583L51.5383 95.6351L42.4781 90.4042L40.8468 91.3521L38.4297 89.9566L40.0609 89.0086L41.6869 88.0637L41.9703 87.899L40.8237 87.237L42.2891 86.3854L43.4358 87.0474L44.4573 86.4537L43.3107 85.7917L44.7333 84.9649L45.9177 85.6487C48.0369 84.6541 50.3707 84.5826 52.4218 85.7668C54.0583 86.7116 54.5105 87.9207 53.4157 88.8438C54.5987 88.3496 56.5966 87.7063 59.4659 89.3629C60.941 90.2145 62.296 91.6597 59.6937 93.6023L60.8834 94.2892L59.4608 95.116ZM54.7955 93.7422L55.7689 93.1765C57.0739 92.4181 56.6618 91.6598 55.7197 91.1159C54.3254 90.3109 53.0541 90.3824 52.0807 90.948L51.0217 91.5634L54.7955 93.7422ZM48.8522 90.3109L49.7454 89.7918C50.8472 89.1515 50.6771 88.4895 49.6919 87.9207C48.9975 87.5198 47.8104 87.3053 46.6284 87.9922L45.7352 88.5113L48.8522 90.3109Z" fill="#F9A83D"/>
<path d="M71.9768 81.7743L71.9538 88.5072C71.9309 91.7853 69.7761 95.0403 65.4894 97.5391C56.8703 102.559 42.8183 102.559 34.1532 97.5391C29.752 95.0174 27.5742 91.6936 27.5742 88.3927L27.6201 81.6367L71.9768 81.7743Z" fill="#FFD06C"/>
<path d="M65.504 90.7941C63.8349 91.7654 61.9667 92.5626 59.949 93.1356C58.4296 93.6089 56.8353 93.9575 55.1914 94.1817C54.3943 94.3062 53.5722 94.3811 52.7503 94.4308C48.3163 94.8045 43.7329 94.3561 39.6479 93.1106C37.6799 92.5378 35.8366 91.7654 34.1678 90.7941C25.4744 85.7872 25.4245 77.6418 34.0432 72.635C35.7371 71.6636 37.6302 70.8665 39.6479 70.2687C43.7081 69.048 48.3163 68.6246 52.7503 68.9733C53.5722 69.0232 54.3943 69.1228 55.1914 69.2473C56.8353 69.4965 58.4296 69.8451 59.949 70.3184C61.917 70.8914 63.7852 71.6636 65.4292 72.635C74.1225 77.6418 74.1724 85.7623 65.504 90.7941Z" fill="#F9A83D"/>
<path d="M49.8671 91.5793C44.4631 91.5793 39.4206 90.3862 35.6676 88.2192C32.4462 86.36 30.5971 83.9725 30.5938 81.669C30.5904 79.3632 32.3499 77.0698 35.5478 75.2117C39.284 73.0403 44.3187 71.8438 49.7238 71.8438C55.1312 71.8438 60.1826 73.0414 63.9479 75.2151C67.1525 77.0653 68.9926 79.4438 68.996 81.7406C68.9982 84.0542 67.2309 86.3567 64.0162 88.2237C60.2934 90.3873 55.2677 91.5793 49.8671 91.5793Z" fill="#FFD06C"/>
<path d="M59.4608 85.3933L58.3518 84.7531L57.3302 85.3467L58.4392 85.987L56.9738 86.8386L55.8648 86.1983L55.5813 86.3631L53.9554 87.3079L52.3242 88.2559L49.907 86.8604L51.5383 85.9124L42.4781 80.6815L40.8468 81.6295L38.4297 80.2339L40.0609 79.286L41.6869 78.3411L41.9703 78.1764L40.8237 77.5143L42.2891 76.6627L43.4358 77.3247L44.4573 76.7311L43.3107 76.069L44.7333 75.2423L45.9177 75.9261C48.0369 74.9315 50.3707 74.86 52.4218 76.0441C54.0583 76.989 54.5105 78.1981 53.4157 79.1212C54.5987 78.627 56.5966 77.9836 59.4659 79.6402C60.941 80.4918 62.296 81.9371 59.6937 83.8797L60.8834 84.5666L59.4608 85.3933ZM54.7955 84.0196L55.7689 83.4539C57.0739 82.6955 56.6618 81.9371 55.7197 81.3932C54.3254 80.5882 53.0541 80.6597 52.0807 81.2254L51.0217 81.8408L54.7955 84.0196ZM48.8522 80.5882L49.7454 80.0692C50.8472 79.4289 50.6771 78.7669 49.6919 78.1981C48.9975 77.7971 47.8104 77.5827 46.6284 78.2696L45.7352 78.7886L48.8522 80.5882Z" fill="#F9A83D"/>
<path d="M71.9768 72.0477L71.9538 78.7807C71.9309 82.0587 69.7761 85.3138 65.4894 87.8125C56.8703 92.8327 42.8183 92.8327 34.1532 87.8125C29.752 85.2908 27.5742 81.9671 27.5742 78.6661L27.6201 71.9102L71.9768 72.0477Z" fill="#FFD06C"/>
<path d="M65.504 81.0675C63.8349 82.0389 61.9667 82.836 59.949 83.409C58.4296 83.8823 56.8353 84.2309 55.1914 84.4552C54.3943 84.5797 53.5722 84.6545 52.7503 84.7042C48.3163 85.0779 43.7329 84.6296 39.6479 83.3841C37.6799 82.8112 35.8366 82.0389 34.1678 81.0675C25.4744 76.0607 25.4245 67.9152 34.0432 62.9084C35.7371 61.937 37.6302 61.1399 39.6479 60.5421C43.7081 59.3214 48.3163 58.898 52.7503 59.2468C53.5722 59.2966 54.3943 59.3962 55.1914 59.5207C56.8353 59.7699 58.4296 60.1185 59.949 60.5918C61.917 61.1648 63.7852 61.937 65.4292 62.9084C74.1225 67.9152 74.1724 76.0357 65.504 81.0675Z" fill="#F9A83D"/>
<path d="M49.8671 81.8528C44.4631 81.8528 39.4206 80.6596 35.6676 78.4926C32.4462 76.6335 30.5971 74.246 30.5938 71.9424C30.5904 69.6367 32.3499 67.3432 35.5478 65.4852C39.284 63.3137 44.3187 62.1172 49.7238 62.1172C55.1312 62.1172 60.1826 63.3148 63.9479 65.4885C67.1525 67.3387 68.9926 69.7173 68.996 72.0141C68.9982 74.3277 67.2309 76.6301 64.0162 78.4971C60.2934 80.6607 55.2677 81.8528 49.8671 81.8528Z" fill="#FFD06C"/>
<path d="M59.4608 75.6668L58.3518 75.0265L57.3302 75.6201L58.4392 76.2604L56.9738 77.112L55.8648 76.4718L55.5813 76.6365L53.9554 77.5814L52.3242 78.5294L49.907 77.1338L51.5383 76.1859L42.4781 70.9549L40.8468 71.9029L38.4297 70.5074L40.0609 69.5594L41.6869 68.6145L41.9703 68.4498L40.8237 67.7878L42.2891 66.9361L43.4358 67.5982L44.4573 67.0045L43.3107 66.3425L44.7333 65.5157L45.9177 66.1995C48.0369 65.2049 50.3707 65.1334 52.4218 66.3176C54.0583 67.2624 54.5105 68.4715 53.4157 69.3946C54.5987 68.9004 56.5966 68.257 59.4659 69.9137C60.941 70.7653 62.296 72.2105 59.6937 74.1531L60.8834 74.84L59.4608 75.6668ZM54.7955 74.293L55.7689 73.7273C57.0739 72.9689 56.6618 72.2106 55.7197 71.6666C54.3254 70.8616 53.0541 70.9331 52.0807 71.4988L51.0217 72.1142L54.7955 74.293ZM48.8522 70.8617L49.7454 70.3426C50.8472 69.7023 50.6771 69.0403 49.6919 68.4715C48.9975 68.0706 47.8104 67.8561 46.6284 68.543L45.7352 69.0621L48.8522 70.8617Z" fill="#F9A83D"/>
<path d="M71.9768 62.325L71.9538 69.058C71.9309 72.3361 69.7761 75.5911 65.4894 78.0898C56.8703 83.1101 42.8183 83.1101 34.1532 78.0898C29.752 75.5682 27.5742 72.2444 27.5742 68.9434L27.6201 62.1875L71.9768 62.325Z" fill="#FFD06C"/>
<path d="M65.504 71.3449C63.8349 72.3162 61.9667 73.1133 59.949 73.6864C58.4296 74.1596 56.8353 74.5083 55.1914 74.7325C54.3943 74.857 53.5722 74.9318 52.7503 74.9816C48.3163 75.3553 43.7329 74.9069 39.6479 73.6614C37.6799 73.0886 35.8366 72.3162 34.1678 71.3449C25.4744 66.338 25.4245 58.1926 34.0432 53.1857C35.7371 52.2144 37.6302 51.4173 39.6479 50.8195C43.7081 49.5988 48.3163 49.1753 52.7503 49.5241C53.5722 49.574 54.3943 49.6736 55.1914 49.7981C56.8353 50.0473 58.4296 50.3959 59.949 50.8692C61.917 51.4422 63.7852 52.2144 65.4292 53.1857C74.1225 58.1926 74.1724 66.3131 65.504 71.3449Z" fill="#F9A83D"/>
<path d="M49.8671 72.1301C44.4631 72.1301 39.4206 70.9369 35.6676 68.77C32.4462 66.9108 30.5971 64.5233 30.5938 62.2198C30.5904 59.914 32.3499 57.6206 35.5478 55.7625C39.284 53.5911 44.3187 52.3945 49.7238 52.3945C55.1312 52.3945 60.1826 53.5922 63.9479 55.7659C67.1525 57.6161 68.9926 59.9946 68.996 62.2914C68.9982 64.605 67.2309 66.9074 64.0162 68.7744C60.2934 70.9381 55.2677 72.1301 49.8671 72.1301Z" fill="#FFD06C"/>
<path d="M59.4608 65.9441L58.3518 65.3038L57.3302 65.8975L58.4392 66.5378L56.9738 67.3894L55.8648 66.7491L55.5813 66.9138L53.9554 67.8587L52.3242 68.8067L49.907 67.4112L51.5383 66.4632L42.4781 61.2323L40.8468 62.1803L38.4297 60.7847L40.0609 59.8368L41.6869 58.8919L41.9703 58.7271L40.8237 58.0651L42.2891 57.2135L43.4358 57.8755L44.4573 57.2819L43.3107 56.6198L44.7333 55.7931L45.9177 56.4769C48.0369 55.4823 50.3707 55.4107 52.4218 56.5949C54.0583 57.5398 54.5105 58.7488 53.4157 59.672C54.5987 59.1778 56.5966 58.5344 59.4659 60.191C60.941 61.0426 62.296 62.4879 59.6937 64.4304L60.8834 65.1173L59.4608 65.9441ZM54.7955 64.5703L55.7689 64.0047C57.0739 63.2463 56.6618 62.4879 55.7197 61.944C54.3254 61.139 53.0541 61.2105 52.0807 61.7762L51.0217 62.3916L54.7955 64.5703ZM48.8522 61.139L49.7454 60.6199C50.8472 59.9797 50.6771 59.3176 49.6919 58.7489C48.9975 58.3479 47.8104 58.1335 46.6284 58.8204L45.7352 59.3394L48.8522 61.139Z" fill="#F9A83D"/>
<path d="M71.9768 52.5985L71.9538 59.3315C71.9309 62.6095 69.7761 65.8646 65.4894 68.3633C56.8703 73.3835 42.8183 73.3835 34.1532 68.3633C29.752 65.8416 27.5742 62.5178 27.5742 59.2169L27.6201 52.4609L71.9768 52.5985Z" fill="#FFD06C"/>
<path d="M65.504 61.6183C63.8349 62.5896 61.9667 63.3868 59.949 63.9598C58.4296 64.4331 56.8353 64.7817 55.1914 65.006C54.3943 65.1305 53.5722 65.2053 52.7503 65.255C48.3163 65.6287 43.7329 65.1803 39.6479 63.9349C37.6799 63.362 35.8366 62.5896 34.1678 61.6183C25.4744 56.6115 25.4245 48.466 34.0432 43.4592C35.7371 42.4878 37.6302 41.6907 39.6479 41.0929C43.7081 39.8722 48.3163 39.4488 52.7503 39.7975C53.5722 39.8474 54.3943 39.947 55.1914 40.0715C56.8353 40.3207 58.4296 40.6693 59.949 41.1426C61.917 41.7156 63.7852 42.4878 65.4292 43.4592C74.1225 48.466 74.1724 56.5865 65.504 61.6183Z" fill="#F9A83D"/>
<path d="M49.8671 62.4036C44.4631 62.4036 39.4206 61.2104 35.6676 59.0434C32.4462 57.1842 30.5971 54.7968 30.5938 52.4932C30.5904 50.1875 32.3499 47.894 35.5478 46.036C39.284 43.8645 44.3187 42.668 49.7238 42.668C55.1312 42.668 60.1826 43.8656 63.9479 46.0393C67.1525 47.8895 68.9926 50.2681 68.996 52.5649C68.9982 54.8785 67.2309 57.1809 64.0162 59.0479C60.2934 61.2115 55.2677 62.4036 49.8671 62.4036Z" fill="#FFD06C"/>
<path d="M59.4608 56.2175L58.3518 55.5773L57.3302 56.1709L58.4392 56.8112L56.9738 57.6628L55.8648 57.0226L55.5813 57.1873L53.9554 58.1322L52.3242 59.0801L49.907 57.6846L51.5383 56.7366L42.4781 51.5057L40.8468 52.4537L38.4297 51.0582L40.0609 50.1102L41.6869 49.1653L41.9703 49.0006L40.8237 48.3386L42.2891 47.4869L43.4358 48.1489L44.4573 47.5553L43.3107 46.8933L44.7333 46.0665L45.9177 46.7503C48.0369 45.7557 50.3707 45.6842 52.4218 46.8684C54.0583 47.8132 54.5105 49.0223 53.4157 49.9454C54.5987 49.4512 56.5966 48.8078 59.4659 50.4644C60.941 51.3161 62.296 52.7613 59.6937 54.7039L60.8834 55.3908L59.4608 56.2175ZM54.7955 54.8438L55.7689 54.2781C57.0739 53.5197 56.6618 52.7613 55.7197 52.2174C54.3254 51.4124 53.0541 51.4839 52.0807 52.0496L51.0217 52.665L54.7955 54.8438ZM48.8522 51.4124L49.7454 50.8934C50.8472 50.2531 50.6771 49.5911 49.6919 49.0223C48.9975 48.6214 47.8104 48.4069 46.6284 49.0938L45.7352 49.6129L48.8522 51.4124Z" fill="#F9A83D"/>
<path d="M71.9768 42.8758L71.9538 49.6088C71.9309 52.8868 69.7761 56.1419 65.4894 58.6406C56.8703 63.6608 42.8183 63.6608 34.1532 58.6406C29.752 56.119 27.5742 52.7952 27.5742 49.4942L27.6201 42.7383L71.9768 42.8758Z" fill="#FFD06C"/>
<path d="M65.504 51.8956C63.8349 52.867 61.9667 53.6641 59.949 54.2371C58.4296 54.7104 56.8353 55.059 55.1914 55.2833C54.3943 55.4078 53.5722 55.4826 52.7503 55.5323C48.3163 55.906 43.7329 55.4577 39.6479 54.2122C37.6799 53.6393 35.8366 52.867 34.1678 51.8956C25.4744 46.8888 25.4245 38.7433 34.0432 33.7365C35.7371 32.7652 37.6302 31.968 39.6479 31.3702C43.7081 30.1495 48.3163 29.7261 52.7503 30.0749C53.5722 30.1248 54.3943 30.2243 55.1914 30.3489C56.8353 30.598 58.4296 30.9467 59.949 31.4199C61.917 31.993 63.7852 32.7652 65.4292 33.7365C74.1225 38.7433 74.1724 46.8639 65.504 51.8956Z" fill="#F9A83D"/>
<path d="M49.8671 52.6809C44.4631 52.6809 39.4206 51.4877 35.6676 49.3207C32.4462 47.4616 30.5971 45.0741 30.5938 42.7706C30.5904 40.4648 32.3499 38.1713 35.5478 36.3133C39.284 34.1419 44.3187 32.9453 49.7238 32.9453C55.1312 32.9453 60.1826 34.143 63.9479 36.3167C67.1525 38.1669 68.9926 40.5454 68.996 42.8422C68.9982 45.1558 67.2309 47.4582 64.0162 49.3252C60.2934 51.4888 55.2677 52.6809 49.8671 52.6809Z" fill="#FFD06C"/>
<path d="M58.2106 39.7338L60.4486 41.7392L50.1287 47.7364L45.811 43.9611L44.5447 45.1819L43.0554 44.322L44.5696 42.8627L39.1409 38.0581L43.3747 35.5977L47.9756 39.6366L49.4952 38.1804L50.9845 39.0403L49.2224 40.7381L52.0867 43.2926L58.2106 39.7338Z" fill="#F9A83D"/>
<g opacity="0.35">
<path d="M52.7509 30.0749V55.5323C48.3169 55.906 43.7335 55.4577 39.6484 54.2122V31.3702C43.7087 30.1495 48.3169 29.7261 52.7509 30.0749Z" fill="white"/>
<path d="M59.9491 31.4187V54.2359C58.4296 54.7092 56.8354 55.0578 55.1914 55.2821V30.3477C56.8354 30.5968 58.4296 30.9455 59.9491 31.4187Z" fill="white"/>
</g>
<path d="M126.35 70.9333C126.119 72.7795 125.859 74.6257 125.571 76.4429C125.571 76.4717 125.571 76.5006 125.542 76.5295C125.282 78.1449 124.994 79.7602 124.676 81.3467C124.532 81.9526 124.417 82.5584 124.273 83.1641C124.042 84.2314 123.811 85.2698 123.552 86.3372C123.378 87.0584 123.177 87.7795 122.975 88.5294C122.628 89.9717 122.196 91.4429 121.763 92.8563C121.244 94.6448 120.667 96.4045 120.061 98.1352C114.061 115.241 104.6 130.443 91.9072 143.308L91.4746 143.77L91.013 143.828C87.7534 144.289 84.6957 144.347 81.84 144.03C80.686 143.885 79.5899 143.683 78.5226 143.424C77.3977 143.135 76.3304 142.789 75.3207 142.385C75.0034 142.27 74.7149 142.154 74.4265 142.01C74.1381 141.924 73.8784 141.779 73.59 141.635C73.1572 141.433 72.7533 141.202 72.3496 140.972C72.263 140.943 72.2053 140.914 72.1188 140.856L61.3304 134.597C57.6091 132.404 54.4939 129.231 51.9265 124.962C45.9553 114.981 43.4746 99.4911 44.5996 78.9813L44.6861 77.5679L45.84 76.9045C47.6285 75.8661 49.388 74.741 51.1187 73.5007C53.1957 72.0584 55.215 70.4719 57.2054 68.7699C58.5611 67.6448 59.8592 66.4333 61.1573 65.193C63.1188 63.3468 65.0226 61.3275 66.9265 59.1929C71.3399 54.2315 75.5804 48.6064 79.5899 42.3469L79.8207 41.9718L80.3976 41.0487L80.4265 41.0776L80.4841 41.1063L81.2052 41.3949C88.0995 44.1929 95.5708 44.3659 103.503 42.0005C105.696 41.3371 107.888 40.5007 110.138 39.4622C111.753 38.7411 113.398 37.8756 115.042 36.9525H115.071L116.196 36.2891L126.984 42.5486H127.013V42.6353L127.1 43.8179C127.677 53.1064 127.446 62.1642 126.35 70.9333Z" fill="#2EC2F5"/>
<path d="M120.065 98.1361C114.058 115.257 104.596 130.456 91.9201 143.312L91.4696 143.763L91.019 143.823C83.6297 144.874 77.322 143.883 72.1256 140.849C68.486 135.38 41.402 138.214 44.6113 78.9722L44.7015 77.5604L45.8429 76.8996C59.8843 68.5701 70.7244 56.1774 79.6049 42.3266L80.4157 41.0651L81.2268 41.3955C92.6048 46.0162 104.284 43.0308 115.049 36.95L116.22 36.2891L127.004 42.567L127.094 43.8285C128.325 63.0224 125.952 81.2851 120.065 98.1361Z" fill="#2EC2F5"/>
<path d="M127.001 42.5589L125.855 43.2109C115.153 49.2911 103.377 52.2463 92.013 47.6631L91.2036 47.3259L80.4102 41.0522L81.2198 41.3895C92.6175 46.0082 104.367 43.0136 115.061 36.9373L116.208 36.2852L127.001 42.5589Z" fill="#2EC2F5"/>
<path d="M72.1367 140.846C68.4615 135.331 41.3894 137.842 44.6137 78.9644L44.7036 77.5703L55.4746 83.844L55.407 85.2156C54.3721 104.134 55.7493 131.369 72.1367 140.846Z" fill="#2EC2F5"/>
<path d="M91.1982 47.328L92.011 47.657C102.11 51.748 113.497 50.2486 125.848 43.2126L127.004 42.5547L127.086 43.8393C128.321 63.0141 125.95 81.2874 120.053 98.1348C114.061 115.251 104.592 130.446 91.9114 143.308L91.4715 143.753L91.0293 143.817C60.0529 148.2 53.7001 116.459 55.4063 85.2237L55.4809 83.8486L56.6369 83.1717C68.9876 75.9459 80.3458 64.3134 90.3885 48.5938L91.1982 47.328Z" fill="#BDEEFF"/>
<path d="M116.191 56.8047C116.161 79.6631 110.484 108.679 87.7457 133.13C83.7679 133.456 80.3219 133.015 77.3134 131.961C64.3049 124.357 62.3902 103.418 62.6646 88.2838C72.9072 81.105 82.4891 71.1925 91.2301 58.7271C98.9497 60.7997 107.3 60.1388 116.191 56.8047Z" fill="white"/>
<path d="M119.964 55.2266C117.48 56.306 118.914 55.7427 116.208 56.7641C116.17 79.6191 110.482 108.669 87.746 133.123C83.7148 133.449 80.2288 132.996 77.1953 131.937C80.9798 134.199 85.8719 135.415 91.6523 134.948C115.465 109.336 120.458 78.5221 119.964 55.2266Z" fill="#2EC2F5"/>
<path d="M93.5811 92.6542C94.8452 90.5478 95.6032 88.1888 95.6032 86.0823C95.6032 82.6274 93.4124 81.0265 90.4636 82.0375C90.9691 82.7118 91.2221 83.7228 91.2221 84.8182C91.2221 86.9247 90.4636 89.2837 89.1995 91.3063L93.4124 101.839L82.3745 108.158L81.1953 112.708L97.794 103.102L93.5811 92.6542Z" fill="#2EC2F5"/>
<path d="M89.196 91.3078C90.4601 89.2852 91.2187 86.9262 91.2187 84.8197C91.2187 83.7243 90.9656 82.7133 90.4601 82.0391C90.1233 82.1234 89.7859 82.2921 89.3647 82.5446C85.9942 84.5667 83.214 89.3695 83.2983 93.2456C83.2983 95.3521 83.972 96.8687 85.2361 97.4585L82.3711 108.16L93.409 101.84L89.196 91.3078Z" fill="#1D2943"/>
<path d="M91.2045 47.3284L90.3948 48.5876C81.7638 62.0888 70.5418 75.0793 56.6432 83.1711L55.474 83.8458L44.7031 77.5721L45.8499 76.8975C59.7606 68.7976 70.9083 55.8863 79.6016 42.3364L80.411 41.0547L91.2045 47.3284Z" fill="#2EC2F5"/>
</svg>
