<svg width="150" height="150" viewBox="0 0 150 150" fill="none" xmlns="http://www.w3.org/2000/svg">
<path d="M66.9963 77.034L66.9733 83.767C66.9504 87.045 64.7956 90.3001 60.5089 92.7988C51.8899 97.819 37.8378 97.819 29.1727 92.7988C24.7715 90.2772 22.5938 86.9534 22.5938 83.6524L22.6396 76.8965L66.9963 77.034Z" fill="#FFD06C"/>
<path d="M60.5235 86.0538C58.8544 87.0252 56.9862 87.8223 54.9686 88.3953C53.4491 88.8686 51.8549 89.2172 50.2109 89.4415C49.4138 89.566 48.5917 89.6408 47.7698 89.6905C43.3359 90.0642 38.7525 89.6159 34.6674 88.3704C32.6995 87.7975 30.8562 87.0252 29.1873 86.0538C20.4939 81.047 20.444 72.9016 29.0628 67.8947C30.7566 66.9234 32.6497 66.1262 34.6674 65.5284C38.7277 64.3077 43.3359 63.8843 47.7698 64.2331C48.5917 64.283 49.4138 64.3825 50.2109 64.5071C51.8549 64.7562 53.4491 65.1049 54.9686 65.5781C56.9365 66.1512 58.8047 66.9234 60.4487 67.8947C69.1421 72.9016 69.1919 81.0221 60.5235 86.0538Z" fill="#F9A83D"/>
<path d="M44.8866 86.8411C39.4826 86.8411 34.4401 85.6479 30.6871 83.4809C27.4657 81.6217 25.6166 79.2343 25.6133 76.9307C25.6099 74.625 27.3695 72.3315 30.5673 70.4735C34.3036 68.302 39.3382 67.1055 44.7433 67.1055C50.1507 67.1055 55.2021 68.3031 58.9675 70.4768C62.172 72.327 64.0122 74.7055 64.0155 77.0024C64.0178 79.316 62.2504 81.6184 59.0357 83.4854C55.3129 85.649 50.2872 86.8411 44.8866 86.8411Z" fill="#FFD06C"/>
<path d="M54.4803 80.655L53.3713 80.0148L52.3498 80.6084L53.4588 81.2487L51.9933 82.1003L50.8843 81.4601L50.6009 81.6248L48.9749 82.5697L47.3437 83.5176L44.9266 82.1221L46.5578 81.1741L37.4976 75.9432L35.8664 76.8912L33.4492 75.4957L35.0805 74.5477L36.7064 73.6028L36.9898 73.4381L35.8432 72.776L37.3086 71.9244L38.4553 72.5864L39.4768 71.9928L38.3302 71.3308L39.7528 70.504L40.9372 71.1878C43.0565 70.1932 45.3902 70.1217 47.4413 71.3059C49.0778 72.2507 49.53 73.4598 48.4352 74.3829C49.6183 73.8887 51.6161 73.2453 54.4854 74.9019C55.9605 75.7535 57.3155 77.1988 54.7132 79.1414L55.903 79.8283L54.4803 80.655ZM49.815 79.2813L50.7884 78.7156C52.0934 77.9572 51.6813 77.1988 50.7392 76.6549C49.3449 75.8499 48.0736 75.9214 47.1002 76.4871L46.0412 77.1025L49.815 79.2813ZM43.8717 75.8499L44.7649 75.3309C45.8667 74.6906 45.6966 74.0286 44.7114 73.4598C44.017 73.0589 42.8299 72.8444 41.648 73.5313L40.7548 74.0504L43.8717 75.8499Z" fill="#F9A83D"/>
<path d="M66.9963 67.3094L66.9733 74.0424C66.9504 77.3204 64.7956 80.5755 60.5089 83.0742C51.8899 88.0944 37.8378 88.0944 29.1727 83.0742C24.7715 80.5526 22.5938 77.2288 22.5938 73.9278L22.6396 67.1719L66.9963 67.3094Z" fill="#FFD06C"/>
<path d="M60.5235 76.3292C58.8544 77.3006 56.9862 78.0977 54.9686 78.6707C53.4491 79.144 51.8549 79.4926 50.2109 79.7169C49.4138 79.8414 48.5917 79.9162 47.7698 79.9659C43.3359 80.3396 38.7525 79.8913 34.6674 78.6458C32.6995 78.0729 30.8562 77.3006 29.1873 76.3292C20.4939 71.3224 20.444 63.1769 29.0628 58.1701C30.7566 57.1988 32.6497 56.4016 34.6674 55.8038C38.7277 54.5831 43.3359 54.1597 47.7698 54.5085C48.5917 54.5584 49.4138 54.6579 50.2109 54.7825C51.8549 55.0316 53.4491 55.3803 54.9686 55.8535C56.9365 56.4266 58.8047 57.1988 60.4487 58.1701C69.1421 63.1769 69.1919 71.2975 60.5235 76.3292Z" fill="#F9A83D"/>
<path d="M44.8866 77.1164C39.4826 77.1164 34.4401 75.9233 30.6871 73.7563C27.4657 71.8971 25.6166 69.5096 25.6133 67.2061C25.6099 64.9004 27.3695 62.6069 30.5673 60.7489C34.3036 58.5774 39.3382 57.3809 44.7433 57.3809C50.1507 57.3809 55.2021 58.5785 58.9675 60.7522C62.172 62.6024 64.0122 64.9809 64.0155 67.2778C64.0178 69.5914 62.2504 71.8938 59.0357 73.7608C55.3129 75.9244 50.2872 77.1164 44.8866 77.1164Z" fill="#FFD06C"/>
<path d="M54.4803 70.9304L53.3713 70.2902L52.3498 70.8838L53.4588 71.5241L51.9933 72.3757L50.8843 71.7354L50.6009 71.9002L48.9749 72.8451L47.3437 73.793L44.9266 72.3975L46.5578 71.4495L37.4976 66.2186L35.8664 67.1666L33.4492 65.7711L35.0805 64.8231L36.7064 63.8782L36.9898 63.7135L35.8432 63.0514L37.3086 62.1998L38.4553 62.8618L39.4768 62.2682L38.3302 61.6062L39.7528 60.7794L40.9372 61.4632C43.0565 60.4686 45.3902 60.3971 47.4413 61.5812C49.0778 62.5261 49.53 63.7352 48.4352 64.6583C49.6183 64.1641 51.6161 63.5207 54.4854 65.1773C55.9605 66.0289 57.3155 67.4742 54.7132 69.4168L55.903 70.1037L54.4803 70.9304ZM49.815 69.5567L50.7884 68.991C52.0934 68.2326 51.6813 67.4742 50.7392 66.9303C49.3449 66.1253 48.0736 66.1968 47.1002 66.7625L46.0412 67.3779L49.815 69.5567ZM43.8717 66.1253L44.7649 65.6063C45.8667 64.966 45.6966 64.304 44.7114 63.7352C44.017 63.3343 42.8299 63.1198 41.648 63.8067L40.7548 64.3257L43.8717 66.1253Z" fill="#F9A83D"/>
<path d="M66.9963 57.5848L66.9733 64.3178C66.9504 67.5958 64.7956 70.8509 60.5089 73.3496C51.8899 78.3698 37.8378 78.3698 29.1727 73.3496C24.7715 70.828 22.5938 67.5042 22.5938 64.2032L22.6396 57.4473L66.9963 57.5848Z" fill="#FFD06C"/>
<path d="M60.5235 66.6046C58.8544 67.576 56.9862 68.3731 54.9686 68.9461C53.4491 69.4194 51.8549 69.768 50.2109 69.9923C49.4138 70.1168 48.5917 70.1916 47.7698 70.2413C43.3359 70.615 38.7525 70.1667 34.6674 68.9212C32.6995 68.3483 30.8562 67.576 29.1873 66.6046C20.4939 61.5978 20.444 53.4523 29.0628 48.4455C30.7566 47.4741 32.6497 46.677 34.6674 46.0792C38.7277 44.8585 43.3359 44.4351 47.7698 44.7839C48.5917 44.8337 49.4138 44.9333 50.2109 45.0578C51.8549 45.307 53.4491 45.6556 54.9686 46.1289C56.9365 46.702 58.8047 47.4741 60.4487 48.4455C69.1421 53.4523 69.1919 61.5729 60.5235 66.6046Z" fill="#F9A83D"/>
<path d="M44.8866 67.3918C39.4826 67.3918 34.4401 66.1987 30.6871 64.0317C27.4657 62.1725 25.6166 59.785 25.6133 57.4815C25.6099 55.1757 27.3695 52.8823 30.5673 51.0242C34.3036 48.8528 39.3382 47.6562 44.7433 47.6562C50.1507 47.6562 55.2021 48.8539 58.9675 51.0276C62.172 52.8778 64.0122 55.2563 64.0155 57.5531C64.0178 59.8667 62.2504 62.1692 59.0357 64.0362C55.3129 66.1998 50.2872 67.3918 44.8866 67.3918Z" fill="#FFD06C"/>
<path d="M54.4803 61.2058L53.3713 60.5656L52.3498 61.1592L53.4588 61.7995L51.9933 62.6511L50.8843 62.0108L50.6009 62.1756L48.9749 63.1204L47.3437 64.0684L44.9266 62.6729L46.5578 61.7249L37.4976 56.494L35.8664 57.442L33.4492 56.0464L35.0805 55.0985L36.7064 54.1536L36.9898 53.9889L35.8432 53.3268L37.3086 52.4752L38.4553 53.1372L39.4768 52.5436L38.3302 51.8815L39.7528 51.0548L40.9372 51.7386C43.0565 50.744 45.3902 50.6725 47.4413 51.8566C49.0778 52.8015 49.53 54.0106 48.4352 54.9337C49.6183 54.4395 51.6161 53.7961 54.4854 55.4527C55.9605 56.3043 57.3155 57.7496 54.7132 59.6922L55.903 60.3791L54.4803 61.2058ZM49.815 59.8321L50.7884 59.2664C52.0934 58.508 51.6813 57.7496 50.7392 57.2057C49.3449 56.4007 48.0736 56.4722 47.1002 57.0379L46.0412 57.6533L49.815 59.8321ZM43.8717 56.4007L44.7649 55.8817C45.8667 55.2414 45.6966 54.5794 44.7114 54.0106C44.017 53.6096 42.8299 53.3952 41.648 54.0821L40.7548 54.6011L43.8717 56.4007Z" fill="#F9A83D"/>
<path d="M66.9963 47.8621L66.9733 54.5951C66.9504 57.8732 64.7956 61.1282 60.5089 63.6269C51.8899 68.6472 37.8378 68.6472 29.1727 63.6269C24.7715 61.1053 22.5938 57.7815 22.5938 54.4805L22.6396 47.7246L66.9963 47.8621Z" fill="#FFD06C"/>
<path d="M60.5235 56.882C58.8544 57.8533 56.9862 58.6504 54.9686 59.2235C53.4491 59.6968 51.8549 60.0454 50.2109 60.2696C49.4138 60.3941 48.5917 60.4689 47.7698 60.5187C43.3359 60.8924 38.7525 60.444 34.6674 59.1985C32.6995 58.6257 30.8562 57.8533 29.1873 56.882C20.4939 51.8751 20.444 43.7297 29.0628 38.7228C30.7566 37.7515 32.6497 36.9544 34.6674 36.3566C38.7277 35.1359 43.3359 34.7124 47.7698 35.0612C48.5917 35.1111 49.4138 35.2107 50.2109 35.3352C51.8549 35.5844 53.4491 35.933 54.9686 36.4063C56.9365 36.9793 58.8047 37.7515 60.4487 38.7228C69.1421 43.7297 69.1919 51.8502 60.5235 56.882Z" fill="#F9A83D"/>
<path d="M44.8866 57.6692C39.4826 57.6692 34.4401 56.476 30.6871 54.309C27.4657 52.4499 25.6166 50.0624 25.6133 47.7589C25.6099 45.4531 27.3695 43.1596 30.5673 41.3016C34.3036 39.1301 39.3382 37.9336 44.7433 37.9336C50.1507 37.9336 55.2021 39.1312 58.9675 41.3049C62.172 43.1552 64.0122 45.5337 64.0155 47.8305C64.0178 50.1441 62.2504 52.4465 59.0357 54.3135C55.3129 56.4771 50.2872 57.6692 44.8866 57.6692Z" fill="#FFD06C"/>
<path d="M54.4803 51.4832L53.3713 50.8429L52.3498 51.4365L53.4588 52.0768L51.9933 52.9284L50.8843 52.2882L50.6009 52.4529L48.9749 53.3978L47.3437 54.3458L44.9266 52.9502L46.5578 52.0023L37.4976 46.7713L35.8664 47.7193L33.4492 46.3238L35.0805 45.3758L36.7064 44.4309L36.9898 44.2662L35.8432 43.6042L37.3086 42.7525L38.4553 43.4146L39.4768 42.8209L38.3302 42.1589L39.7528 41.3321L40.9372 42.0159C43.0565 41.0213 45.3902 40.9498 47.4413 42.134C49.0778 43.0788 49.53 44.2879 48.4352 45.211C49.6183 44.7168 51.6161 44.0734 54.4854 45.7301C55.9605 46.5817 57.3155 48.0269 54.7132 49.9695L55.903 50.6564L54.4803 51.4832ZM49.815 50.1094L50.7884 49.5437C52.0934 48.7853 51.6813 48.027 50.7392 47.483C49.3449 46.678 48.0736 46.7495 47.1002 47.3152L46.0412 47.9306L49.815 50.1094ZM43.8717 46.6781L44.7649 46.159C45.8667 45.5187 45.6966 44.8567 44.7114 44.2879C44.017 43.887 42.8299 43.6725 41.648 44.3594L40.7548 44.8785L43.8717 46.6781Z" fill="#F9A83D"/>
<path d="M66.9963 38.1375L66.9733 44.8705C66.9504 48.1486 64.7956 51.4036 60.5089 53.9023C51.8899 58.9226 37.8378 58.9226 29.1727 53.9023C24.7715 51.3807 22.5938 48.0569 22.5938 44.7559L22.6396 38L66.9963 38.1375Z" fill="#FFD06C"/>
<path d="M60.5235 47.1574C58.8544 48.1287 56.9862 48.9258 54.9686 49.4989C53.4491 49.9721 51.8549 50.3208 50.2109 50.545C49.4138 50.6695 48.5917 50.7443 47.7698 50.7941C43.3359 51.1678 38.7525 50.7194 34.6674 49.4739C32.6995 48.9011 30.8562 48.1287 29.1873 47.1574C20.4939 42.1505 20.444 34.0051 29.0628 28.9982C30.7566 28.0269 32.6497 27.2298 34.6674 26.6319C38.7277 25.4113 43.3359 24.9878 47.7698 25.3366C48.5917 25.3865 49.4138 25.4861 50.2109 25.6106C51.8549 25.8598 53.4491 26.2084 54.9686 26.6817C56.9365 27.2547 58.8047 28.0269 60.4487 28.9982C69.1421 34.0051 69.1919 42.1256 60.5235 47.1574Z" fill="#F9A83D"/>
<path d="M44.8866 47.9446C39.4826 47.9446 34.4401 46.7514 30.6871 44.5844C27.4657 42.7253 25.6166 40.3378 25.6133 38.0342C25.6099 35.7285 27.3695 33.435 30.5673 31.577C34.3036 29.4055 39.3382 28.209 44.7433 28.209C50.1507 28.209 55.2021 29.4066 58.9675 31.5803C62.172 33.4305 64.0122 35.8091 64.0155 38.1059C64.0178 40.4195 62.2504 42.7219 59.0357 44.5889C55.3129 46.7525 50.2872 47.9446 44.8866 47.9446Z" fill="#FFD06C"/>
<path d="M54.4803 41.7586L53.3713 41.1183L52.3498 41.7119L53.4588 42.3522L51.9933 43.2038L50.8843 42.5636L50.6009 42.7283L48.9749 43.6732L47.3437 44.6212L44.9266 43.2256L46.5578 42.2777L37.4976 37.0467L35.8664 37.9947L33.4492 36.5992L35.0805 35.6512L36.7064 34.7063L36.9898 34.5416L35.8432 33.8796L37.3086 33.0279L38.4553 33.69L39.4768 33.0963L38.3302 32.4343L39.7528 31.6075L40.9372 32.2913C43.0565 31.2967 45.3902 31.2252 47.4413 32.4094C49.0778 33.3542 49.53 34.5633 48.4352 35.4864C49.6183 34.9922 51.6161 34.3488 54.4854 36.0054C55.9605 36.8571 57.3155 38.3023 54.7132 40.2449L55.903 40.9318L54.4803 41.7586ZM49.815 40.3848L50.7884 39.8191C52.0934 39.0607 51.6813 38.3023 50.7392 37.7584C49.3449 36.9534 48.0736 37.0249 47.1002 37.5906L46.0412 38.206L49.815 40.3848ZM43.8717 36.9535L44.7649 36.4344C45.8667 35.7941 45.6966 35.1321 44.7114 34.5633C44.017 34.1624 42.8299 33.9479 41.648 34.6348L40.7548 35.1539L43.8717 36.9535Z" fill="#F9A83D"/>
<path d="M66.9963 28.4129L66.9733 35.1459C66.9504 38.4239 64.7956 41.679 60.5089 44.1777C51.8899 49.198 37.8378 49.198 29.1727 44.1777C24.7715 41.6561 22.5938 38.3323 22.5938 35.0313L22.6396 28.2754L66.9963 28.4129Z" fill="#FFD06C"/>
<path d="M60.5235 37.4327C58.8544 38.4041 56.9862 39.2012 54.9686 39.7743C53.4491 40.2475 51.8549 40.5962 50.2109 40.8204C49.4138 40.9449 48.5917 41.0197 47.7698 41.0694C43.3359 41.4431 38.7525 40.9948 34.6674 39.7493C32.6995 39.1764 30.8562 38.4041 29.1873 37.4327C20.4939 32.4259 20.444 24.2805 29.0628 19.2736C30.7566 18.3023 32.6497 17.5051 34.6674 16.9073C38.7277 15.6866 43.3359 15.2632 47.7698 15.612C48.5917 15.6619 49.4138 15.7614 50.2109 15.886C51.8549 16.1352 53.4491 16.4838 54.9686 16.9571C56.9365 17.5301 58.8047 18.3023 60.4487 19.2736C69.1421 24.2805 69.1919 32.401 60.5235 37.4327Z" fill="#F9A83D"/>
<path d="M44.8866 38.22C39.4826 38.22 34.4401 37.0268 30.6871 34.8598C27.4657 33.0006 25.6166 30.6132 25.6133 28.3096C25.6099 26.0039 27.3695 23.7104 30.5673 21.8524C34.3036 19.6809 39.3382 18.4844 44.7433 18.4844C50.1507 18.4844 55.2021 19.682 58.9675 21.8557C62.172 23.7059 64.0122 26.0845 64.0155 28.3813C64.0178 30.6949 62.2504 32.9973 59.0357 34.8643C55.3129 37.0279 50.2872 38.22 44.8866 38.22Z" fill="#FFD06C"/>
<path d="M54.4803 32.0339L53.3713 31.3937L52.3498 31.9873L53.4588 32.6276L51.9933 33.4792L50.8843 32.839L50.6009 33.0037L48.9749 33.9486L47.3437 34.8965L44.9266 33.501L46.5578 32.553L37.4976 27.3221L35.8664 28.2701L33.4492 26.8746L35.0805 25.9266L36.7064 24.9817L36.9898 24.817L35.8432 24.155L37.3086 23.3033L38.4553 23.9653L39.4768 23.3717L38.3302 22.7097L39.7528 21.8829L40.9372 22.5667C43.0565 21.5721 45.3902 21.5006 47.4413 22.6848C49.0778 23.6296 49.53 24.8387 48.4352 25.7618C49.6183 25.2676 51.6161 24.6242 54.4854 26.2808C55.9605 27.1325 57.3155 28.5777 54.7132 30.5203L55.903 31.2072L54.4803 32.0339ZM49.815 30.6602L50.7884 30.0945C52.0934 29.3361 51.6813 28.5777 50.7392 28.0338C49.3449 27.2288 48.0736 27.3003 47.1002 27.866L46.0412 28.4814L49.815 30.6602ZM43.8717 27.2288L44.7649 26.7098C45.8667 26.0695 45.6966 25.4075 44.7114 24.8387C44.017 24.4378 42.8299 24.2233 41.648 24.9102L40.7548 25.4293L43.8717 27.2288Z" fill="#F9A83D"/>
<path d="M66.9963 18.6883L66.9733 25.4213C66.9504 28.6993 64.7956 31.9544 60.5089 34.4531C51.8899 39.4733 37.8378 39.4733 29.1727 34.4531C24.7715 31.9315 22.5938 28.6077 22.5938 25.3067L22.6396 18.5508L66.9963 18.6883Z" fill="#FFD06C"/>
<path d="M60.5235 27.7081C58.8544 28.6795 56.9862 29.4766 54.9686 30.0496C53.4491 30.5229 51.8549 30.8715 50.2109 31.0958C49.4138 31.2203 48.5917 31.2951 47.7698 31.3448C43.3359 31.7185 38.7525 31.2702 34.6674 30.0247C32.6995 29.4518 30.8562 28.6795 29.1873 27.7081C20.4939 22.7013 20.444 14.5558 29.0628 9.54901C30.7566 8.57766 32.6497 7.78054 34.6674 7.18273C38.7277 5.96204 43.3359 5.53862 47.7698 5.88739C48.5917 5.93726 49.4138 6.03684 50.2109 6.16136C51.8549 6.41054 53.4491 6.75916 54.9686 7.23245C56.9365 7.80547 58.8047 8.57766 60.4487 9.54901C69.1421 14.5558 69.1919 22.6764 60.5235 27.7081Z" fill="#F9A83D"/>
<path d="M44.8866 28.4953C39.4826 28.4953 34.4401 27.3022 30.6871 25.1352C27.4657 23.276 25.6166 20.8886 25.6133 18.585C25.6099 16.2793 27.3695 13.9858 30.5673 12.1278C34.3036 9.9563 39.3382 8.75977 44.7433 8.75977C50.1507 8.75977 55.2021 9.95742 58.9675 12.1311C62.172 13.9813 64.0122 16.3598 64.0155 18.6567C64.0178 20.9703 62.2504 23.2727 59.0357 25.1397C55.3129 27.3033 50.2872 28.4953 44.8866 28.4953Z" fill="#FFD06C"/>
<path d="M53.113 13.7893C54.6588 14.6818 54.6737 16.1072 53.1242 17.0077C51.797 17.779 49.727 17.88 48.2109 17.2864C46.0707 18.5301 46.4226 17.88 47.206 19.5881C48.3004 19.5679 49.424 19.7739 50.2633 20.2584C51.781 21.1347 51.7612 22.5804 50.2534 23.4566C48.7108 24.3531 46.2429 24.3531 44.7251 23.4769C43.1794 22.5844 43.1714 21.1549 44.714 20.2585C45.0267 20.0767 45.3396 19.9354 45.7224 19.8345C45.3694 19.039 45.3258 18.7179 45.0224 18.5428C44.719 18.3676 44.1559 18.3384 42.7639 18.1264C42.5909 18.3484 42.3829 18.5503 42.0702 18.7321C40.5276 19.6285 38.0317 19.6124 36.514 18.7361C34.9613 17.8397 34.9602 16.4142 36.5028 15.5178C38.0107 14.6415 40.4994 14.6213 42.0521 15.5177C42.8634 15.9861 43.2576 16.6565 43.1844 17.2662C45.8567 17.6741 45.1883 17.8195 47.12 16.6968C46.0553 15.8004 46.1879 14.5809 47.5498 13.7894C49.0994 12.8889 51.5953 12.9131 53.113 13.7893Z" fill="#F9A83D"/>
<g opacity="0.35">
<path d="M47.7704 5.88739V31.3448C43.3364 31.7185 38.753 31.2702 34.668 30.0247V7.18273C38.7282 5.96204 43.3364 5.53862 47.7704 5.88739Z" fill="white"/>
<path d="M54.9686 7.2332V30.0504C53.4491 30.5237 51.8549 30.8723 50.2109 31.0965V6.16211C51.8549 6.4113 53.4491 6.75991 54.9686 7.2332Z" fill="white"/>
</g>
<path d="M111.309 78.5301L111.286 85.2631C111.263 88.5411 109.108 91.7962 104.821 94.2949C96.2024 99.3151 82.1503 99.3151 73.4852 94.2949C69.084 91.7733 66.9062 88.4495 66.9062 85.1485L66.9521 78.3926L111.309 78.5301Z" fill="#FFD06C"/>
<path d="M104.836 87.5499C103.167 88.5213 101.299 89.3184 99.2811 89.8914C97.7616 90.3647 96.1674 90.7133 94.5234 90.9376C93.7263 91.0621 92.9042 91.1369 92.0823 91.1866C87.6484 91.5603 83.065 91.112 78.9799 89.8665C77.012 89.2936 75.1687 88.5213 73.4998 87.5499C64.8064 82.5431 64.7565 74.3976 73.3753 69.3908C75.0691 68.4195 76.9622 67.6223 78.9799 67.0245C83.0402 65.8038 87.6484 65.3804 92.0823 65.7292C92.9042 65.7791 93.7263 65.8786 94.5234 66.0032C96.1674 66.2523 97.7616 66.601 99.2811 67.0742C101.249 67.6473 103.117 68.4195 104.761 69.3908C113.455 74.3976 113.504 82.5182 104.836 87.5499Z" fill="#F9A83D"/>
<path d="M89.1991 88.3371C83.7951 88.3371 78.7526 87.144 74.9996 84.977C71.7782 83.1178 69.9291 80.7304 69.9258 78.4268C69.9224 76.1211 71.682 73.8276 74.8798 71.9696C78.6161 69.7981 83.6507 68.6016 89.0558 68.6016C94.4632 68.6016 99.5146 69.7992 103.28 71.9729C106.485 73.8231 108.325 76.2016 108.328 78.4985C108.33 80.8121 106.563 83.1145 103.348 84.9815C99.6254 87.1451 94.5997 88.3371 89.1991 88.3371Z" fill="#FFD06C"/>
<path d="M98.7928 82.1511L97.6838 81.5109L96.6623 82.1045L97.7713 82.7448L96.3058 83.5964L95.1968 82.9561L94.9134 83.1209L93.2874 84.0658L91.6562 85.0137L89.2391 83.6182L90.8703 82.6702L81.8101 77.4393L80.1789 78.3873L77.7617 76.9918L79.393 76.0438L81.0189 75.0989L81.3023 74.9342L80.1557 74.2721L81.6211 73.4205L82.7678 74.0825L83.7893 73.4889L82.6427 72.8269L84.0653 72.0001L85.2497 72.6839C87.369 71.6893 89.7027 71.6178 91.7538 72.802C93.3903 73.7468 93.8425 74.9559 92.7477 75.879C93.9308 75.3848 95.9286 74.7414 98.7979 76.398C100.273 77.2496 101.628 78.6949 99.0257 80.6375L100.215 81.3244L98.7928 82.1511ZM94.1275 80.7774L95.1009 80.2117C96.4059 79.4533 95.9938 78.6949 95.0517 78.151C93.6574 77.346 92.3861 77.4175 91.4127 77.9832L90.3537 78.5986L94.1275 80.7774ZM88.1842 77.346L89.0774 76.827C90.1792 76.1867 90.0091 75.5247 89.0239 74.9559C88.3295 74.555 87.1424 74.3405 85.9605 75.0274L85.0673 75.5464L88.1842 77.346Z" fill="#F9A83D"/>
<path d="M111.309 68.8055L111.286 75.5385C111.263 78.8165 109.108 82.0716 104.821 84.5703C96.2024 89.5905 82.1503 89.5905 73.4852 84.5703C69.084 82.0487 66.9062 78.7249 66.9062 75.4239L66.9521 68.668L111.309 68.8055Z" fill="#FFD06C"/>
<path d="M104.836 77.8253C103.167 78.7967 101.299 79.5938 99.2811 80.1668C97.7616 80.6401 96.1674 80.9887 94.5234 81.213C93.7263 81.3375 92.9042 81.4123 92.0823 81.462C87.6484 81.8357 83.065 81.3874 78.9799 80.1419C77.012 79.569 75.1687 78.7967 73.4998 77.8253C64.8064 72.8185 64.7565 64.673 73.3753 59.6662C75.0691 58.6948 76.9622 57.8977 78.9799 57.2999C83.0402 56.0792 87.6484 55.6558 92.0823 56.0046C92.9042 56.0544 93.7263 56.154 94.5234 56.2785C96.1674 56.5277 97.7616 56.8763 99.2811 57.3496C101.249 57.9227 103.117 58.6948 104.761 59.6662C113.455 64.673 113.504 72.7936 104.836 77.8253Z" fill="#F9A83D"/>
<path d="M89.1991 78.6125C83.7951 78.6125 78.7526 77.4194 74.9996 75.2524C71.7782 73.3932 69.9291 71.0057 69.9258 68.7022C69.9224 66.3964 71.682 64.103 74.8798 62.2449C78.6161 60.0735 83.6507 58.877 89.0558 58.877C94.4632 58.877 99.5146 60.0746 103.28 62.2483C106.485 64.0985 108.325 66.477 108.328 68.7738C108.33 71.0875 106.563 73.3899 103.348 75.2569C99.6254 77.4205 94.5997 78.6125 89.1991 78.6125Z" fill="#FFD06C"/>
<path d="M98.7928 72.4265L97.6838 71.7863L96.6623 72.3799L97.7713 73.0202L96.3058 73.8718L95.1968 73.2315L94.9134 73.3963L93.2874 74.3412L91.6562 75.2891L89.2391 73.8936L90.8703 72.9456L81.8101 67.7147L80.1789 68.6627L77.7617 67.2671L79.393 66.3192L81.0189 65.3743L81.3023 65.2096L80.1557 64.5475L81.6211 63.6959L82.7678 64.3579L83.7893 63.7643L82.6427 63.1023L84.0653 62.2755L85.2497 62.9593C87.369 61.9647 89.7027 61.8932 91.7538 63.0773C93.3903 64.0222 93.8425 65.2313 92.7477 66.1544C93.9308 65.6602 95.9286 65.0168 98.7979 66.6734C100.273 67.525 101.628 68.9703 99.0257 70.9129L100.215 71.5998L98.7928 72.4265ZM94.1275 71.0528L95.1009 70.4871C96.4059 69.7287 95.9938 68.9703 95.0517 68.4264C93.6574 67.6214 92.3861 67.6929 91.4127 68.2586L90.3537 68.874L94.1275 71.0528ZM88.1842 67.6214L89.0774 67.1024C90.1792 66.4621 90.0091 65.8001 89.0239 65.2313C88.3295 64.8303 87.1424 64.6159 85.9605 65.3028L85.0673 65.8218L88.1842 67.6214Z" fill="#F9A83D"/>
<path d="M111.309 59.0809L111.286 65.8139C111.263 69.0919 109.108 72.347 104.821 74.8457C96.2024 79.8659 82.1503 79.8659 73.4852 74.8457C69.084 72.324 66.9062 69.0003 66.9062 65.6993L66.9521 58.9434L111.309 59.0809Z" fill="#FFD06C"/>
<path d="M104.836 68.1007C103.167 69.0721 101.299 69.8692 99.2811 70.4422C97.7616 70.9155 96.1674 71.2641 94.5234 71.4884C93.7263 71.6129 92.9042 71.6877 92.0823 71.7374C87.6484 72.1111 83.065 71.6628 78.9799 70.4173C77.012 69.8444 75.1687 69.0721 73.4998 68.1007C64.8064 63.0939 64.7565 54.9484 73.3753 49.9416C75.0691 48.9702 76.9622 48.1731 78.9799 47.5753C83.0402 46.3546 87.6484 45.9312 92.0823 46.28C92.9042 46.3298 93.7263 46.4294 94.5234 46.5539C96.1674 46.8031 97.7616 47.1517 99.2811 47.625C101.249 48.198 103.117 48.9702 104.761 49.9416C113.455 54.9484 113.504 63.0689 104.836 68.1007Z" fill="#F9A83D"/>
<path d="M89.1991 68.8879C83.7951 68.8879 78.7526 67.6947 74.9996 65.5278C71.7782 63.6686 69.9291 61.2811 69.9258 58.9776C69.9224 56.6718 71.682 54.3784 74.8798 52.5203C78.6161 50.3489 83.6507 49.1523 89.0558 49.1523C94.4632 49.1523 99.5146 50.35 103.28 52.5237C106.485 54.3739 108.325 56.7524 108.328 59.0492C108.33 61.3628 106.563 63.6653 103.348 65.5323C99.6254 67.6959 94.5997 68.8879 89.1991 68.8879Z" fill="#FFD06C"/>
<path d="M98.7928 62.7019L97.6838 62.0616L96.6623 62.6553L97.7713 63.2956L96.3058 64.1472L95.1968 63.5069L94.9134 63.6717L93.2874 64.6165L91.6562 65.5645L89.2391 64.169L90.8703 63.221L81.8101 57.9901L80.1789 58.9381L77.7617 57.5425L79.393 56.5946L81.0189 55.6497L81.3023 55.4849L80.1557 54.8229L81.6211 53.9713L82.7678 54.6333L83.7893 54.0397L82.6427 53.3776L84.0653 52.5509L85.2497 53.2347C87.369 52.2401 89.7027 52.1686 91.7538 53.3527C93.3903 54.2976 93.8425 55.5067 92.7477 56.4298C93.9308 55.9356 95.9286 55.2922 98.7979 56.9488C100.273 57.8004 101.628 59.2457 99.0257 61.1883L100.215 61.8752L98.7928 62.7019ZM94.1275 61.3281L95.1009 60.7625C96.4059 60.0041 95.9938 59.2457 95.0517 58.7018C93.6574 57.8968 92.3861 57.9683 91.4127 58.534L90.3537 59.1494L94.1275 61.3281ZM88.1842 57.8968L89.0774 57.3778C90.1792 56.7375 90.0091 56.0755 89.0239 55.5067C88.3295 55.1057 87.1424 54.8913 85.9605 55.5782L85.0673 56.0972L88.1842 57.8968Z" fill="#F9A83D"/>
<path d="M111.309 49.3582L111.286 56.0912C111.263 59.3693 109.108 62.6243 104.821 65.123C96.2024 70.1433 82.1503 70.1433 73.4852 65.123C69.084 62.6014 66.9062 59.2776 66.9062 55.9766L66.9521 49.2207L111.309 49.3582Z" fill="#FFD06C"/>
<path d="M104.836 58.3781C103.167 59.3494 101.299 60.1465 99.2811 60.7196C97.7616 61.1928 96.1674 61.5415 94.5234 61.7657C93.7263 61.8902 92.9042 61.965 92.0823 62.0148C87.6484 62.3885 83.065 61.9401 78.9799 60.6946C77.012 60.1218 75.1687 59.3494 73.4998 58.3781C64.8064 53.3712 64.7565 45.2258 73.3753 40.2189C75.0691 39.2476 76.9622 38.4505 78.9799 37.8527C83.0402 36.632 87.6484 36.2085 92.0823 36.5573C92.9042 36.6072 93.7263 36.7068 94.5234 36.8313C96.1674 37.0805 97.7616 37.4291 99.2811 37.9024C101.249 38.4754 103.117 39.2476 104.761 40.2189C113.455 45.2258 113.504 53.3463 104.836 58.3781Z" fill="#F9A83D"/>
<path d="M89.1991 59.1653C83.7951 59.1653 78.7526 57.9721 74.9996 55.8051C71.7782 53.946 69.9291 51.5585 69.9258 49.2549C69.9224 46.9492 71.682 44.6557 74.8798 42.7977C78.6161 40.6262 83.6507 39.4297 89.0558 39.4297C94.4632 39.4297 99.5146 40.6273 103.28 42.801C106.485 44.6512 108.325 47.0298 108.328 49.3266C108.33 51.6402 106.563 53.9426 103.348 55.8096C99.6254 57.9732 94.5997 59.1653 89.1991 59.1653Z" fill="#FFD06C"/>
<path d="M98.7928 52.9793L97.6838 52.339L96.6623 52.9326L97.7713 53.5729L96.3058 54.4245L95.1968 53.7843L94.9134 53.949L93.2874 54.8939L91.6562 55.8419L89.2391 54.4463L90.8703 53.4984L81.8101 48.2674L80.1789 49.2154L77.7617 47.8199L79.393 46.8719L81.0189 45.927L81.3023 45.7623L80.1557 45.1003L81.6211 44.2486L82.7678 44.9107L83.7893 44.317L82.6427 43.655L84.0653 42.8282L85.2497 43.512C87.369 42.5174 89.7027 42.4459 91.7538 43.6301C93.3903 44.5749 93.8425 45.784 92.7477 46.7071C93.9308 46.2129 95.9286 45.5695 98.7979 47.2261C100.273 48.0778 101.628 49.523 99.0257 51.4656L100.215 52.1525L98.7928 52.9793ZM94.1275 51.6055L95.1009 51.0398C96.4059 50.2814 95.9938 49.5231 95.0517 48.9791C93.6574 48.1741 92.3861 48.2456 91.4127 48.8113L90.3537 49.4267L94.1275 51.6055ZM88.1842 48.1742L89.0774 47.6551C90.1792 47.0148 90.0091 46.3528 89.0239 45.784C88.3295 45.3831 87.1424 45.1686 85.9605 45.8555L85.0673 46.3746L88.1842 48.1742Z" fill="#F9A83D"/>
<path d="M111.309 39.6336L111.286 46.3666C111.263 49.6446 109.108 52.8997 104.821 55.3984C96.2024 60.4187 82.1503 60.4187 73.4852 55.3984C69.084 52.8768 66.9062 49.553 66.9062 46.252L66.9521 39.4961L111.309 39.6336Z" fill="#FFD06C"/>
<path d="M104.836 48.6535C103.167 49.6248 101.299 50.4219 99.2811 50.995C97.7616 51.4682 96.1674 51.8169 94.5234 52.0411C93.7263 52.1656 92.9042 52.2404 92.0823 52.2901C87.6484 52.6638 83.065 52.2155 78.9799 50.97C77.012 50.3971 75.1687 49.6248 73.4998 48.6535C64.8064 43.6466 64.7565 35.5012 73.3753 30.4943C75.0691 29.523 76.9622 28.7258 78.9799 28.128C83.0402 26.9073 87.6484 26.4839 92.0823 26.8327C92.9042 26.8826 93.7263 26.9822 94.5234 27.1067C96.1674 27.3559 97.7616 27.7045 99.2811 28.1778C101.249 28.7508 103.117 29.523 104.761 30.4943C113.455 35.5012 113.504 43.6217 104.836 48.6535Z" fill="#F9A83D"/>
<path d="M89.1991 49.4407C83.7951 49.4407 78.7526 48.2475 74.9996 46.0805C71.7782 44.2213 69.9291 41.8339 69.9258 39.5303C69.9224 37.2246 71.682 34.9311 74.8798 33.0731C78.6161 30.9016 83.6507 29.7051 89.0558 29.7051C94.4632 29.7051 99.5146 30.9027 103.28 33.0764C106.485 34.9266 108.325 37.3052 108.328 39.602C108.33 41.9156 106.563 44.218 103.348 46.085C99.6254 48.2486 94.5997 49.4407 89.1991 49.4407Z" fill="#FFD06C"/>
<path d="M98.7928 43.2546L97.6838 42.6144L96.6623 43.208L97.7713 43.8483L96.3058 44.6999L95.1968 44.0597L94.9134 44.2244L93.2874 45.1693L91.6562 46.1173L89.2391 44.7217L90.8703 43.7737L81.8101 38.5428L80.1789 39.4908L77.7617 38.0953L79.393 37.1473L81.0189 36.2024L81.3023 36.0377L80.1557 35.3757L81.6211 34.524L82.7678 35.1861L83.7893 34.5924L82.6427 33.9304L84.0653 33.1036L85.2497 33.7874C87.369 32.7928 89.7027 32.7213 91.7538 33.9055C93.3903 34.8503 93.8425 36.0594 92.7477 36.9825C93.9308 36.4883 95.9286 35.8449 98.7979 37.5015C100.273 38.3532 101.628 39.7984 99.0257 41.741L100.215 42.4279L98.7928 43.2546ZM94.1275 41.8809L95.1009 41.3152C96.4059 40.5568 95.9938 39.7984 95.0517 39.2545C93.6574 38.4495 92.3861 38.521 91.4127 39.0867L90.3537 39.7021L94.1275 41.8809ZM88.1842 38.4495L89.0774 37.9305C90.1792 37.2902 90.0091 36.6282 89.0239 36.0594C88.3295 35.6585 87.1424 35.444 85.9605 36.1309L85.0673 36.65L88.1842 38.4495Z" fill="#F9A83D"/>
<path d="M111.309 29.909L111.286 36.642C111.263 39.92 109.108 43.1751 104.821 45.6738C96.2024 50.694 82.1503 50.694 73.4852 45.6738C69.084 43.1522 66.9062 39.8284 66.9062 36.5274L66.9521 29.7715L111.309 29.909Z" fill="#FFD06C"/>
<path d="M104.836 38.9288C103.167 39.9002 101.299 40.6973 99.2811 41.2703C97.7616 41.7436 96.1674 42.0922 94.5234 42.3165C93.7263 42.441 92.9042 42.5158 92.0823 42.5655C87.6484 42.9392 83.065 42.4909 78.9799 41.2454C77.012 40.6725 75.1687 39.9002 73.4998 38.9288C64.8064 33.922 64.7565 25.7766 73.3753 20.7697C75.0691 19.7984 76.9622 19.0012 78.9799 18.4034C83.0402 17.1827 87.6484 16.7593 92.0823 17.1081C92.9042 17.158 93.7263 17.2575 94.5234 17.3821C96.1674 17.6312 97.7616 17.9799 99.2811 18.4532C101.249 19.0262 103.117 19.7984 104.761 20.7697C113.455 25.7766 113.504 33.8971 104.836 38.9288Z" fill="#F9A83D"/>
<path d="M89.1991 39.7161C83.7951 39.7161 78.7526 38.5229 74.9996 36.3559C71.7782 34.4967 69.9291 32.1093 69.9258 29.8057C69.9224 27.5 71.682 25.2065 74.8798 23.3485C78.6161 21.177 83.6507 19.9805 89.0558 19.9805C94.4632 19.9805 99.5146 21.1781 103.28 23.3518C106.485 25.202 108.325 27.5805 108.328 29.8774C108.33 32.191 106.563 34.4934 103.348 36.3604C99.6254 38.524 94.5997 39.7161 89.1991 39.7161Z" fill="#FFD06C"/>
<path d="M98.7928 33.53L97.6838 32.8898L96.6623 33.4834L97.7713 34.1237L96.3058 34.9753L95.1968 34.3351L94.9134 34.4998L93.2874 35.4447L91.6562 36.3926L89.2391 34.9971L90.8703 34.0491L81.8101 28.8182L80.1789 29.7662L77.7617 28.3707L79.393 27.4227L81.0189 26.4778L81.3023 26.3131L80.1557 25.6511L81.6211 24.7994L82.7678 25.4614L83.7893 24.8678L82.6427 24.2058L84.0653 23.379L85.2497 24.0628C87.369 23.0682 89.7027 22.9967 91.7538 24.1809C93.3903 25.1257 93.8425 26.3348 92.7477 27.2579C93.9308 26.7637 95.9286 26.1203 98.7979 27.7769C100.273 28.6285 101.628 30.0738 99.0257 32.0164L100.215 32.7033L98.7928 33.53ZM94.1275 32.1563L95.1009 31.5906C96.4059 30.8322 95.9938 30.0738 95.0517 29.5299C93.6574 28.7249 92.3861 28.7964 91.4127 29.3621L90.3537 29.9775L94.1275 32.1563ZM88.1842 28.7249L89.0774 28.2059C90.1792 27.5656 90.0091 26.9036 89.0239 26.3348C88.3295 25.9339 87.1424 25.7194 85.9605 26.4063L85.0673 26.9254L88.1842 28.7249Z" fill="#F9A83D"/>
<path d="M111.309 20.1844L111.286 26.9174C111.263 30.1954 109.108 33.4505 104.821 35.9492C96.2024 40.9694 82.1503 40.9694 73.4852 35.9492C69.084 33.4276 66.9062 30.1038 66.9062 26.8028L66.9521 20.0469L111.309 20.1844Z" fill="#FFD06C"/>
<path d="M104.836 29.2042C103.167 30.1756 101.299 30.9727 99.2811 31.5457C97.7616 32.019 96.1674 32.3676 94.5234 32.5919C93.7263 32.7164 92.9042 32.7912 92.0823 32.8409C87.6484 33.2146 83.065 32.7663 78.9799 31.5208C77.012 30.9479 75.1687 30.1756 73.4998 29.2042C64.8064 24.1974 64.7565 16.0519 73.3753 11.0451C75.0691 10.0738 76.9622 9.27663 78.9799 8.67883C83.0402 7.45813 87.6484 7.03471 92.0823 7.38348C92.9042 7.43335 93.7263 7.53293 94.5234 7.65745C96.1674 7.90664 97.7616 8.25525 99.2811 8.72854C101.249 9.30156 103.117 10.0738 104.761 11.0451C113.455 16.0519 113.504 24.1725 104.836 29.2042Z" fill="#F9A83D"/>
<path d="M89.1991 29.9914C83.7951 29.9914 78.7526 28.7983 74.9996 26.6313C71.7782 24.7721 69.9291 22.3846 69.9258 20.0811C69.9224 17.7754 71.682 15.4819 74.8798 13.6238C78.6161 11.4524 83.6507 10.2559 89.0558 10.2559C94.4632 10.2559 99.5146 11.4535 103.28 13.6272C106.485 15.4774 108.325 17.8559 108.328 20.1528C108.33 22.4664 106.563 24.7688 103.348 26.6358C99.6254 28.7994 94.5997 29.9914 89.1991 29.9914Z" fill="#FFD06C"/>
<path d="M98.7928 23.8054L97.6838 23.1652L96.6623 23.7588L97.7713 24.3991L96.3058 25.2507L95.1968 24.6104L94.9134 24.7752L93.2874 25.7201L91.6562 26.668L89.2391 25.2725L90.8703 24.3245L81.8101 19.0936L80.1789 20.0416L77.7617 18.6461L79.393 17.6981L81.0189 16.7532L81.3023 16.5885L80.1557 15.9264L81.6211 15.0748L82.7678 15.7368L83.7893 15.1432L82.6427 14.4812L84.0653 13.6544L85.2497 14.3382C87.369 13.3436 89.7027 13.2721 91.7538 14.4562C93.3903 15.4011 93.8425 16.6102 92.7477 17.5333C93.9308 17.0391 95.9286 16.3957 98.7979 18.0523C100.273 18.9039 101.628 20.3492 99.0257 22.2918L100.215 22.9787L98.7928 23.8054ZM94.1275 22.4317L95.1009 21.866C96.4059 21.1076 95.9938 20.3492 95.0517 19.8053C93.6574 19.0003 92.3861 19.0718 91.4127 19.6375L90.3537 20.2529L94.1275 22.4317ZM88.1842 19.0003L89.0774 18.4813C90.1792 17.841 90.0091 17.179 89.0239 16.6102C88.3295 16.2092 87.1424 15.9948 85.9605 16.6817L85.0673 17.2007L88.1842 19.0003Z" fill="#F9A83D"/>
<g opacity="0.35">
<path d="M92.0829 7.38348V32.8409C87.6489 33.2146 83.0655 32.7663 78.9805 31.5208V8.67883C83.0407 7.45813 87.6489 7.03471 92.0829 7.38348Z" fill="white"/>
<path d="M99.2811 8.72929V31.5465C97.7616 32.0198 96.1674 32.3684 94.5234 32.5926V7.6582C96.1674 7.90739 97.7616 8.25601 99.2811 8.72929Z" fill="white"/>
</g>
<path d="M71.9768 101.222L71.9538 107.955C71.9309 111.233 69.7761 114.488 65.4894 116.986C56.8703 122.007 42.8183 122.007 34.1532 116.986C29.752 114.465 27.5742 111.141 27.5742 107.84L27.6201 101.084L71.9768 101.222Z" fill="#FFD06C"/>
<path d="M65.504 110.241C63.8349 111.213 61.9667 112.01 59.949 112.583C58.4296 113.056 56.8353 113.405 55.1914 113.629C54.3943 113.754 53.5722 113.828 52.7503 113.878C48.3163 114.252 43.7329 113.803 39.6479 112.558C37.6799 111.985 35.8366 111.213 34.1678 110.241C25.4744 105.235 25.4245 97.0891 34.0432 92.0822C35.7371 91.1109 37.6302 90.3137 39.6479 89.7159C43.7081 88.4952 48.3163 88.0718 52.7503 88.4206C53.5722 88.4705 54.3943 88.57 55.1914 88.6946C56.8353 88.9437 58.4296 89.2924 59.949 89.7657C61.917 90.3387 63.7852 91.1109 65.4292 92.0822C74.1225 97.0891 74.1724 105.21 65.504 110.241Z" fill="#F9A83D"/>
<path d="M49.8671 111.029C44.4631 111.029 39.4206 109.835 35.6676 107.668C32.4462 105.809 30.5971 103.422 30.5938 101.118C30.5904 98.8125 32.3499 96.519 35.5478 94.661C39.284 92.4895 44.3187 91.293 49.7238 91.293C55.1312 91.293 60.1826 92.4906 63.9479 94.6643C67.1525 96.5145 68.9926 98.8931 68.996 101.19C68.9982 103.503 67.2309 105.806 64.0162 107.673C60.2934 109.836 55.2677 111.029 49.8671 111.029Z" fill="#FFD06C"/>
<path d="M59.4608 104.843L58.3518 104.202L57.3302 104.796L58.4392 105.436L56.9738 106.288L55.8648 105.648L55.5813 105.812L53.9554 106.757L52.3242 107.705L49.907 106.31L51.5383 105.362L42.4781 100.131L40.8468 101.079L38.4297 99.6832L40.0609 98.7352L41.6869 97.7903L41.9703 97.6256L40.8237 96.9636L42.2891 96.1119L43.4358 96.7739L44.4573 96.1803L43.3107 95.5183L44.7333 94.6915L45.9177 95.3753C48.0369 94.3807 50.3707 94.3092 52.4218 95.4934C54.0583 96.4382 54.5105 97.6473 53.4157 98.5704C54.5987 98.0762 56.5966 97.4328 59.4659 99.0894C60.941 99.941 62.296 101.386 59.6937 103.329L60.8834 104.016L59.4608 104.843ZM54.7955 103.469L55.7689 102.903C57.0739 102.145 56.6618 101.386 55.7197 100.842C54.3254 100.037 53.0541 100.109 52.0807 100.675L51.0217 101.29L54.7955 103.469ZM48.8522 100.037L49.7454 99.5184C50.8472 98.8781 50.6771 98.2161 49.6919 97.6473C48.9975 97.2464 47.8104 97.0319 46.6284 97.7188L45.7352 98.2379L48.8522 100.037Z" fill="#F9A83D"/>
<path d="M71.9768 91.4969L71.9538 98.2299C71.9309 101.508 69.7761 104.763 65.4894 107.262C56.8703 112.282 42.8183 112.282 34.1532 107.262C29.752 104.74 27.5742 101.416 27.5742 98.1153L27.6201 91.3594L71.9768 91.4969Z" fill="#FFD06C"/>
<path d="M65.504 100.517C63.8349 101.488 61.9667 102.285 59.949 102.858C58.4296 103.332 56.8353 103.68 55.1914 103.904C54.3943 104.029 53.5722 104.104 52.7503 104.153C48.3163 104.527 43.7329 104.079 39.6479 102.833C37.6799 102.26 35.8366 101.488 34.1678 100.517C25.4744 95.5099 25.4245 87.3644 34.0432 82.3576C35.7371 81.3863 37.6302 80.5891 39.6479 79.9913C43.7081 78.7706 48.3163 78.3472 52.7503 78.696C53.5722 78.7459 54.3943 78.8454 55.1914 78.97C56.8353 79.2191 58.4296 79.5678 59.949 80.041C61.917 80.6141 63.7852 81.3863 65.4292 82.3576C74.1225 87.3644 74.1724 95.485 65.504 100.517Z" fill="#F9A83D"/>
<path d="M49.8671 101.304C44.4631 101.304 39.4206 100.111 35.6676 97.9438C32.4462 96.0846 30.5971 93.6972 30.5938 91.3936C30.5904 89.0878 32.3499 86.7944 35.5478 84.9364C39.284 82.7649 44.3187 81.5684 49.7238 81.5684C55.1312 81.5684 60.1826 82.766 63.9479 84.9397C67.1525 86.7899 68.9926 89.1684 68.996 91.4653C68.9982 93.7789 67.2309 96.0813 64.0162 97.9483C60.2934 100.112 55.2677 101.304 49.8671 101.304Z" fill="#FFD06C"/>
<path d="M59.4608 95.1179L58.3518 94.4777L57.3302 95.0713L58.4392 95.7116L56.9738 96.5632L55.8648 95.9229L55.5813 96.0877L53.9554 97.0326L52.3242 97.9805L49.907 96.585L51.5383 95.637L42.4781 90.4061L40.8468 91.3541L38.4297 89.9586L40.0609 89.0106L41.6869 88.0657L41.9703 87.901L40.8237 87.2389L42.2891 86.3873L43.4358 87.0493L44.4573 86.4557L43.3107 85.7937L44.7333 84.9669L45.9177 85.6507C48.0369 84.6561 50.3707 84.5846 52.4218 85.7687C54.0583 86.7136 54.5105 87.9227 53.4157 88.8458C54.5987 88.3516 56.5966 87.7082 59.4659 89.3648C60.941 90.2164 62.296 91.6617 59.6937 93.6043L60.8834 94.2912L59.4608 95.1179ZM54.7955 93.7442L55.7689 93.1785C57.0739 92.4201 56.6618 91.6617 55.7197 91.1178C54.3254 90.3128 53.0541 90.3843 52.0807 90.95L51.0217 91.5654L54.7955 93.7442ZM48.8522 90.3128L49.7454 89.7938C50.8472 89.1535 50.6771 88.4915 49.6919 87.9227C48.9975 87.5217 47.8104 87.3073 46.6284 87.9942L45.7352 88.5132L48.8522 90.3128Z" fill="#F9A83D"/>
<path d="M71.9768 81.7723L71.9538 88.5053C71.9309 91.7833 69.7761 95.0384 65.4894 97.5371C56.8703 102.557 42.8183 102.557 34.1532 97.5371C29.752 95.0155 27.5742 91.6917 27.5742 88.3907L27.6201 81.6348L71.9768 81.7723Z" fill="#FFD06C"/>
<path d="M65.504 90.7921C63.8349 91.7635 61.9667 92.5606 59.949 93.1336C58.4296 93.6069 56.8353 93.9555 55.1914 94.1798C54.3943 94.3043 53.5722 94.3791 52.7503 94.4288C48.3163 94.8025 43.7329 94.3542 39.6479 93.1087C37.6799 92.5358 35.8366 91.7635 34.1678 90.7921C25.4744 85.7853 25.4245 77.6398 34.0432 72.633C35.7371 71.6616 37.6302 70.8645 39.6479 70.2667C43.7081 69.046 48.3163 68.6226 52.7503 68.9714C53.5722 69.0212 54.3943 69.1208 55.1914 69.2453C56.8353 69.4945 58.4296 69.8431 59.949 70.3164C61.917 70.8895 63.7852 71.6616 65.4292 72.633C74.1225 77.6398 74.1724 85.7604 65.504 90.7921Z" fill="#F9A83D"/>
<path d="M49.8671 91.5793C44.4631 91.5793 39.4206 90.3862 35.6676 88.2192C32.4462 86.36 30.5971 83.9725 30.5938 81.669C30.5904 79.3632 32.3499 77.0698 35.5478 75.2117C39.284 73.0403 44.3187 71.8438 49.7238 71.8438C55.1312 71.8438 60.1826 73.0414 63.9479 75.2151C67.1525 77.0653 68.9926 79.4438 68.996 81.7406C68.9982 84.0542 67.2309 86.3567 64.0162 88.2237C60.2934 90.3873 55.2677 91.5793 49.8671 91.5793Z" fill="#FFD06C"/>
<path d="M59.4608 85.3933L58.3518 84.7531L57.3302 85.3467L58.4392 85.987L56.9738 86.8386L55.8648 86.1983L55.5813 86.3631L53.9554 87.3079L52.3242 88.2559L49.907 86.8604L51.5383 85.9124L42.4781 80.6815L40.8468 81.6295L38.4297 80.2339L40.0609 79.286L41.6869 78.3411L41.9703 78.1764L40.8237 77.5143L42.2891 76.6627L43.4358 77.3247L44.4573 76.7311L43.3107 76.069L44.7333 75.2423L45.9177 75.9261C48.0369 74.9315 50.3707 74.86 52.4218 76.0441C54.0583 76.989 54.5105 78.1981 53.4157 79.1212C54.5987 78.627 56.5966 77.9836 59.4659 79.6402C60.941 80.4918 62.296 81.9371 59.6937 83.8797L60.8834 84.5666L59.4608 85.3933ZM54.7955 84.0196L55.7689 83.4539C57.0739 82.6955 56.6618 81.9371 55.7197 81.3932C54.3254 80.5882 53.0541 80.6597 52.0807 81.2254L51.0217 81.8408L54.7955 84.0196ZM48.8522 80.5882L49.7454 80.0692C50.8472 79.4289 50.6771 78.7669 49.6919 78.1981C48.9975 77.7971 47.8104 77.5827 46.6284 78.2696L45.7352 78.7886L48.8522 80.5882Z" fill="#F9A83D"/>
<path d="M71.9768 72.0496L71.9538 78.7826C71.9309 82.0607 69.7761 85.3157 65.4894 87.8145C56.8703 92.8347 42.8183 92.8347 34.1532 87.8145C29.752 85.2928 27.5742 81.969 27.5742 78.6681L27.6201 71.9121L71.9768 72.0496Z" fill="#FFD06C"/>
<path d="M65.504 81.0695C63.8349 82.0408 61.9667 82.8379 59.949 83.411C58.4296 83.8843 56.8353 84.2329 55.1914 84.4571C54.3943 84.5816 53.5722 84.6564 52.7503 84.7062C48.3163 85.0799 43.7329 84.6315 39.6479 83.386C37.6799 82.8132 35.8366 82.0408 34.1678 81.0695C25.4744 76.0626 25.4245 67.9172 34.0432 62.9103C35.7371 61.939 37.6302 61.1419 39.6479 60.5441C43.7081 59.3234 48.3163 58.8999 52.7503 59.2487C53.5722 59.2986 54.3943 59.3982 55.1914 59.5227C56.8353 59.7719 58.4296 60.1205 59.949 60.5938C61.917 61.1668 63.7852 61.939 65.4292 62.9103C74.1225 67.9172 74.1724 76.0377 65.504 81.0695Z" fill="#F9A83D"/>
<path d="M49.8671 81.8567C44.4631 81.8567 39.4206 80.6635 35.6676 78.4965C32.4462 76.6374 30.5971 74.2499 30.5938 71.9464C30.5904 69.6406 32.3499 67.3471 35.5478 65.4891C39.284 63.3176 44.3187 62.1211 49.7238 62.1211C55.1312 62.1211 60.1826 63.3188 63.9479 65.4924C67.1525 67.3427 68.9926 69.7212 68.996 72.018C68.9982 74.3316 67.2309 76.634 64.0162 78.501C60.2934 80.6646 55.2677 81.8567 49.8671 81.8567Z" fill="#FFD06C"/>
<path d="M59.4608 75.6707L58.3518 75.0304L57.3302 75.6241L58.4392 76.2643L56.9738 77.1159L55.8648 76.4757L55.5813 76.6404L53.9554 77.5853L52.3242 78.5333L49.907 77.1377L51.5383 76.1898L42.4781 70.9588L40.8468 71.9068L38.4297 70.5113L40.0609 69.5633L41.6869 68.6184L41.9703 68.4537L40.8237 67.7917L42.2891 66.94L43.4358 67.6021L44.4573 67.0084L43.3107 66.3464L44.7333 65.5196L45.9177 66.2034C48.0369 65.2088 50.3707 65.1373 52.4218 66.3215C54.0583 67.2663 54.5105 68.4754 53.4157 69.3985C54.5987 68.9043 56.5966 68.2609 59.4659 69.9176C60.941 70.7692 62.296 72.2144 59.6937 74.157L60.8834 74.8439L59.4608 75.6707ZM54.7955 74.2969L55.7689 73.7312C57.0739 72.9728 56.6618 72.2145 55.7197 71.6705C54.3254 70.8655 53.0541 70.937 52.0807 71.5027L51.0217 72.1181L54.7955 74.2969ZM48.8522 70.8656L49.7454 70.3465C50.8472 69.7062 50.6771 69.0442 49.6919 68.4754C48.9975 68.0745 47.8104 67.86 46.6284 68.5469L45.7352 69.066L48.8522 70.8656Z" fill="#F9A83D"/>
<path d="M71.9768 62.325L71.9538 69.058C71.9309 72.3361 69.7761 75.5911 65.4894 78.0898C56.8703 83.1101 42.8183 83.1101 34.1532 78.0898C29.752 75.5682 27.5742 72.2444 27.5742 68.9434L27.6201 62.1875L71.9768 62.325Z" fill="#FFD06C"/>
<path d="M65.504 71.3449C63.8349 72.3162 61.9667 73.1133 59.949 73.6864C58.4296 74.1596 56.8353 74.5083 55.1914 74.7325C54.3943 74.857 53.5722 74.9318 52.7503 74.9816C48.3163 75.3553 43.7329 74.9069 39.6479 73.6614C37.6799 73.0886 35.8366 72.3162 34.1678 71.3449C25.4744 66.338 25.4245 58.1926 34.0432 53.1857C35.7371 52.2144 37.6302 51.4173 39.6479 50.8195C43.7081 49.5988 48.3163 49.1753 52.7503 49.5241C53.5722 49.574 54.3943 49.6736 55.1914 49.7981C56.8353 50.0473 58.4296 50.3959 59.949 50.8692C61.917 51.4422 63.7852 52.2144 65.4292 53.1857C74.1225 58.1926 74.1724 66.3131 65.504 71.3449Z" fill="#F9A83D"/>
<path d="M49.8671 72.1321C44.4631 72.1321 39.4206 70.9389 35.6676 68.7719C32.4462 66.9128 30.5971 64.5253 30.5938 62.2217C30.5904 59.916 32.3499 57.6225 35.5478 55.7645C39.284 53.593 44.3187 52.3965 49.7238 52.3965C55.1312 52.3965 60.1826 53.5941 63.9479 55.7678C67.1525 57.618 68.9926 59.9966 68.996 62.2934C68.9982 64.607 67.2309 66.9094 64.0162 68.7764C60.2934 70.94 55.2677 72.1321 49.8671 72.1321Z" fill="#FFD06C"/>
<path d="M59.4608 65.9461L58.3518 65.3058L57.3302 65.8994L58.4392 66.5397L56.9738 67.3913L55.8648 66.7511L55.5813 66.9158L53.9554 67.8607L52.3242 68.8087L49.907 67.4131L51.5383 66.4652L42.4781 61.2342L40.8468 62.1822L38.4297 60.7867L40.0609 59.8387L41.6869 58.8938L41.9703 58.7291L40.8237 58.0671L42.2891 57.2154L43.4358 57.8775L44.4573 57.2838L43.3107 56.6218L44.7333 55.795L45.9177 56.4788C48.0369 55.4842 50.3707 55.4127 52.4218 56.5969C54.0583 57.5417 54.5105 58.7508 53.4157 59.6739C54.5987 59.1797 56.5966 58.5363 59.4659 60.1929C60.941 61.0446 62.296 62.4898 59.6937 64.4324L60.8834 65.1193L59.4608 65.9461ZM54.7955 64.5723L55.7689 64.0066C57.0739 63.2482 56.6618 62.4898 55.7197 61.9459C54.3254 61.1409 53.0541 61.2124 52.0807 61.7781L51.0217 62.3935L54.7955 64.5723ZM48.8522 61.141L49.7454 60.6219C50.8472 59.9816 50.6771 59.3196 49.6919 58.7508C48.9975 58.3499 47.8104 58.1354 46.6284 58.8223L45.7352 59.3414L48.8522 61.141Z" fill="#F9A83D"/>
<path d="M71.9768 52.6004L71.9538 59.3334C71.9309 62.6114 69.7761 65.8665 65.4894 68.3652C56.8703 73.3855 42.8183 73.3855 34.1532 68.3652C29.752 65.8436 27.5742 62.5198 27.5742 59.2188L27.6201 52.4629L71.9768 52.6004Z" fill="#FFD06C"/>
<path d="M65.504 61.6203C63.8349 62.5916 61.9667 63.3887 59.949 63.9617C58.4296 64.435 56.8353 64.7837 55.1914 65.0079C54.3943 65.1324 53.5722 65.2072 52.7503 65.2569C48.3163 65.6306 43.7329 65.1823 39.6479 63.9368C37.6799 63.3639 35.8366 62.5916 34.1678 61.6203C25.4744 56.6134 25.4245 48.468 34.0432 43.4611C35.7371 42.4898 37.6302 41.6926 39.6479 41.0948C43.7081 39.8741 48.3163 39.4507 52.7503 39.7995C53.5722 39.8494 54.3943 39.9489 55.1914 40.0735C56.8353 40.3227 58.4296 40.6713 59.949 41.1446C61.917 41.7176 63.7852 42.4898 65.4292 43.4611C74.1225 48.468 74.1724 56.5885 65.504 61.6203Z" fill="#F9A83D"/>
<path d="M49.8671 62.4075C44.4631 62.4075 39.4206 61.2143 35.6676 59.0473C32.4462 57.1881 30.5971 54.8007 30.5938 52.4971C30.5904 50.1914 32.3499 47.8979 35.5478 46.0399C39.284 43.8684 44.3187 42.6719 49.7238 42.6719C55.1312 42.6719 60.1826 43.8695 63.9479 46.0432C67.1525 47.8934 68.9926 50.272 68.996 52.5688C68.9982 54.8824 67.2309 57.1848 64.0162 59.0518C60.2934 61.2154 55.2677 62.4075 49.8671 62.4075Z" fill="#FFD06C"/>
<path d="M59.4608 56.2214L58.3518 55.5812L57.3302 56.1748L58.4392 56.8151L56.9738 57.6667L55.8648 57.0265L55.5813 57.1912L53.9554 58.1361L52.3242 59.084L49.907 57.6885L51.5383 56.7405L42.4781 51.5096L40.8468 52.4576L38.4297 51.0621L40.0609 50.1141L41.6869 49.1692L41.9703 49.0045L40.8237 48.3425L42.2891 47.4908L43.4358 48.1528L44.4573 47.5592L43.3107 46.8972L44.7333 46.0704L45.9177 46.7542C48.0369 45.7596 50.3707 45.6881 52.4218 46.8723C54.0583 47.8171 54.5105 49.0262 53.4157 49.9493C54.5987 49.4551 56.5966 48.8117 59.4659 50.4683C60.941 51.32 62.296 52.7652 59.6937 54.7078L60.8834 55.3947L59.4608 56.2214ZM54.7955 54.8477L55.7689 54.282C57.0739 53.5236 56.6618 52.7652 55.7197 52.2213C54.3254 51.4163 53.0541 51.4878 52.0807 52.0535L51.0217 52.6689L54.7955 54.8477ZM48.8522 51.4163L49.7454 50.8973C50.8472 50.257 50.6771 49.595 49.6919 49.0262C48.9975 48.6253 47.8104 48.4108 46.6284 49.0977L45.7352 49.6168L48.8522 51.4163Z" fill="#F9A83D"/>
<path d="M71.9768 42.8758L71.9538 49.6088C71.9309 52.8868 69.7761 56.1419 65.4894 58.6406C56.8703 63.6608 42.8183 63.6608 34.1532 58.6406C29.752 56.119 27.5742 52.7952 27.5742 49.4942L27.6201 42.7383L71.9768 42.8758Z" fill="#FFD06C"/>
<path d="M65.504 51.8956C63.8349 52.867 61.9667 53.6641 59.949 54.2371C58.4296 54.7104 56.8353 55.059 55.1914 55.2833C54.3943 55.4078 53.5722 55.4826 52.7503 55.5323C48.3163 55.906 43.7329 55.4577 39.6479 54.2122C37.6799 53.6393 35.8366 52.867 34.1678 51.8956C25.4744 46.8888 25.4245 38.7433 34.0432 33.7365C35.7371 32.7652 37.6302 31.968 39.6479 31.3702C43.7081 30.1495 48.3163 29.7261 52.7503 30.0749C53.5722 30.1248 54.3943 30.2243 55.1914 30.3489C56.8353 30.598 58.4296 30.9467 59.949 31.4199C61.917 31.993 63.7852 32.7652 65.4292 33.7365C74.1225 38.7433 74.1724 46.8639 65.504 51.8956Z" fill="#F9A83D"/>
<path d="M49.8671 52.6829C44.4631 52.6829 39.4206 51.4897 35.6676 49.3227C32.4462 47.4635 30.5971 45.0761 30.5938 42.7725C30.5904 40.4668 32.3499 38.1733 35.5478 36.3153C39.284 34.1438 44.3187 32.9473 49.7238 32.9473C55.1312 32.9473 60.1826 34.1449 63.9479 36.3186C67.1525 38.1688 68.9926 40.5473 68.996 42.8442C68.9982 45.1578 67.2309 47.4602 64.0162 49.3272C60.2934 51.4908 55.2677 52.6829 49.8671 52.6829Z" fill="#FFD06C"/>
<path d="M58.2103 39.7338L60.4484 41.7392L50.1285 47.7364L45.8108 43.9611L44.5444 45.1819L43.0551 44.322L44.5693 42.8627L39.1406 38.0581L43.3744 35.5977L47.9753 39.6366L49.495 38.1804L50.9843 39.0403L49.2222 40.7381L52.0864 43.2926L58.2103 39.7338Z" fill="#F9A83D"/>
<g opacity="0.35">
<path d="M52.7509 30.0749V55.5323C48.3169 55.906 43.7335 55.4577 39.6484 54.2122V31.3702C43.7087 30.1495 48.3169 29.7261 52.7509 30.0749Z" fill="white"/>
<path d="M59.9491 31.4207V54.2379C58.4296 54.7112 56.8354 55.0598 55.1914 55.284V30.3496C56.8354 30.5988 58.4296 30.9474 59.9491 31.4207Z" fill="white"/>
</g>
<path d="M126.35 70.9314C126.119 72.7776 125.859 74.6238 125.571 76.4409C125.571 76.4698 125.571 76.4987 125.542 76.5275C125.282 78.1429 124.994 79.7583 124.676 81.3448C124.532 81.9506 124.417 82.5564 124.273 83.1621C124.042 84.2294 123.811 85.2678 123.552 86.3353C123.378 87.0564 123.177 87.7776 122.975 88.5274C122.628 89.9698 122.196 91.4409 121.763 92.8544C121.244 94.6428 120.667 96.4026 120.061 98.1333C114.061 115.239 104.6 130.441 91.9072 143.306L91.4746 143.768L91.013 143.826C87.7534 144.287 84.6957 144.345 81.84 144.028C80.686 143.883 79.5899 143.681 78.5226 143.422C77.3977 143.133 76.3304 142.787 75.3207 142.383C75.0034 142.268 74.7149 142.153 74.4265 142.008C74.1381 141.922 73.8784 141.778 73.59 141.633C73.1572 141.431 72.7533 141.201 72.3496 140.97C72.263 140.941 72.2053 140.912 72.1188 140.854L61.3304 134.595C57.6091 132.403 54.4939 129.229 51.9265 124.96C45.9553 114.979 43.4746 99.4891 44.5996 78.9794L44.6861 77.5659L45.84 76.9025C47.6285 75.8641 49.388 74.7391 51.1187 73.4987C53.1957 72.0564 55.215 70.4699 57.2054 68.7679C58.5611 67.6429 59.8592 66.4314 61.1573 65.191C63.1188 63.3448 65.0226 61.3255 66.9265 59.191C71.3399 54.2295 75.5804 48.6045 79.5899 42.3449L79.8207 41.9699L80.3976 41.0468L80.4265 41.0757L80.4841 41.1044L81.2052 41.3929C88.0995 44.1909 95.5708 44.364 103.503 41.9986C105.696 41.3352 107.888 40.4987 110.138 39.4603C111.753 38.7391 113.398 37.8736 115.042 36.9505H115.071L116.196 36.2871L126.984 42.5467H127.013V42.6333L127.1 43.8159C127.677 53.1045 127.446 62.1622 126.35 70.9314Z" fill="#4263B0"/>
<path d="M120.065 98.14C114.058 115.261 104.596 130.46 91.9201 143.316L91.4696 143.767L91.019 143.827C83.6297 144.878 77.322 143.887 72.1256 140.853C68.486 135.384 41.402 138.218 44.6113 78.9761L44.7015 77.5643L45.8429 76.9035C59.8843 68.574 70.7244 56.1813 79.6049 42.3305L80.4157 41.069L81.2268 41.3994C92.6048 46.0201 104.284 43.0347 115.049 36.9539L116.22 36.293L127.004 42.5709L127.094 43.8324C128.325 63.0263 125.952 81.2891 120.065 98.14Z" fill="#4263B0"/>
<path d="M127.001 42.5608L125.855 43.2129C115.153 49.293 103.377 52.2482 92.013 47.6651L91.2036 47.3279L80.4102 41.0542L81.2198 41.3915C92.6175 46.0101 104.367 43.0155 115.061 36.9393L116.208 36.2871L127.001 42.5608Z" fill="#6C8BD1"/>
<path d="M72.1367 140.85C68.4615 135.335 41.3894 137.845 44.6137 78.9683L44.7036 77.5742L55.4746 83.8479L55.407 85.2195C54.3721 104.138 55.7493 131.373 72.1367 140.85Z" fill="#6C8BD1"/>
<path d="M91.1982 47.33L92.011 47.659C102.11 51.75 113.497 50.2505 125.848 43.2145L127.004 42.5566L127.086 43.8412C128.321 63.0161 125.95 81.2894 120.053 98.1368C114.061 115.252 104.592 130.448 91.9114 143.31L91.4715 143.755L91.0293 143.819C60.0529 148.202 53.7001 116.461 55.4063 85.2257L55.4809 83.8505L56.6369 83.1736C68.9876 75.9479 80.3458 64.3154 90.3885 48.5957L91.1982 47.33Z" fill="#1D3E74"/>
<path d="M116.191 56.8066C116.161 79.665 110.484 108.681 87.7457 133.131C83.7679 133.458 80.3219 133.017 77.3134 131.963C64.3049 124.359 62.3902 103.42 62.6646 88.2857C72.9072 81.1069 82.4891 71.1945 91.2301 58.7291C98.9497 60.8017 107.3 60.1407 116.191 56.8066Z" fill="white"/>
<path d="M119.964 55.2285C117.48 56.3079 118.914 55.7447 116.208 56.766C116.17 79.621 110.482 108.671 87.746 133.125C83.7148 133.451 80.2288 132.998 77.1953 131.938C80.9798 134.201 85.8719 135.417 91.6523 134.95C115.465 109.338 120.458 78.5241 119.964 55.2285Z" fill="#4163AE"/>
<path d="M93.5811 92.6581C94.8452 90.5517 95.6032 88.1927 95.6032 86.0862C95.6032 82.6313 93.4124 81.0304 90.4636 82.0415C90.9691 82.7157 91.2221 83.7267 91.2221 84.8221C91.2221 86.9286 90.4636 89.2876 89.1995 91.3102L93.4124 101.843L82.3745 108.162L81.1953 112.712L97.794 103.106L93.5811 92.6581Z" fill="#4C5C75"/>
<path d="M89.196 91.3098C90.4601 89.2871 91.2187 86.9282 91.2187 84.8217C91.2187 83.7263 90.9656 82.7152 90.4601 82.041C90.1233 82.1254 89.7859 82.294 89.3647 82.5465C85.9942 84.5687 83.214 89.3715 83.2983 93.2476C83.2983 95.354 83.972 96.8706 85.2361 97.4605L82.3711 108.162L93.409 101.842L89.196 91.3098Z" fill="#1D2943"/>
<path d="M91.2045 47.3303L90.3948 48.5896C81.7638 62.0908 70.5418 75.0813 56.6432 83.173L55.474 83.8477L44.7031 77.574L45.8499 76.8995C59.7606 68.7996 70.9083 55.8882 79.6016 42.3384L80.411 41.0566L91.2045 47.3303Z" fill="#4163AE"/>
</svg>
