<svg width="150" height="150" viewBox="0 0 150 150" fill="none" xmlns="http://www.w3.org/2000/svg">
<path d="M145.456 83.8835V91.7926C145.456 93.1562 144.342 94.2699 142.979 94.2699H7.04687C5.66051 94.2926 4.54688 93.179 4.54688 91.7926V83.8835C4.54688 82.5199 5.66051 81.4062 7.02415 81.4062H142.956C144.342 81.4062 145.456 82.5199 145.456 83.8835Z" fill="#2EC2F5"/>
<path d="M109.549 123.565H40.4805L67.0714 82.6328C70.8214 76.8828 79.2532 76.8828 82.9805 82.6328L109.549 123.565Z" fill="#A8E9FF"/>
<path d="M123.931 135.066V142.453C123.931 144.044 122.636 145.316 121.068 145.316H28.9769C27.386 145.316 26.1133 144.021 26.1133 142.453V135.066C26.1133 128.726 31.2496 123.566 37.6133 123.566H112.454C118.795 123.566 123.931 128.726 123.931 135.066Z" fill="#2EC2F5"/>
<path d="M75.0025 91.3839C76.9606 91.3839 78.5479 89.7965 78.5479 87.8384C78.5479 85.8803 76.9606 84.293 75.0025 84.293C73.0444 84.293 71.457 85.8803 71.457 87.8384C71.457 89.7965 73.0444 91.3839 75.0025 91.3839Z" fill="white"/>
<path d="M71.1825 142.268H45.728C44.5007 142.268 43.5234 141.291 43.5234 140.064C43.5234 138.837 44.5007 137.859 45.728 137.859H71.1825C72.4098 137.859 73.3871 138.837 73.3871 140.064C73.3871 141.291 72.4098 142.268 71.1825 142.268Z" fill="black"/>
<path d="M85.3203 49.4975V53.2021C85.3203 54.043 85.8658 54.793 86.6612 54.9975L91.9794 56.4975C92.593 59.293 93.7067 61.9066 95.2067 64.2702L92.4794 69.0884C92.093 69.8157 92.2067 70.7021 92.8203 71.293L95.4567 73.9293C96.0476 74.4975 96.9567 74.6339 97.6612 74.2248L102.479 71.5202C104.843 73.043 107.457 74.1339 110.252 74.7475L111.775 80.043C112.002 80.8612 112.729 81.4066 113.548 81.4066H117.252C118.093 81.4066 118.798 80.8612 119.025 80.043L120.525 74.7475C123.343 74.1339 125.957 73.0202 128.298 71.5202L133.116 74.2248C133.843 74.6339 134.752 74.5202 135.343 73.9293L137.957 71.293C138.548 70.7021 138.684 69.8157 138.275 69.0884L135.57 64.2702C137.093 61.9066 138.184 59.293 138.798 56.4975L144.093 54.9975C144.911 54.7702 145.457 54.0202 145.457 53.1793V49.4748C145.457 48.6339 144.911 47.9066 144.116 47.7021L138.82 46.2248C138.207 43.4066 137.093 40.7702 135.593 38.4293L138.298 33.6112C138.707 32.8839 138.593 31.9748 137.979 31.3839L135.366 28.7702C134.775 28.1793 133.866 28.0657 133.138 28.4521L128.32 31.1566C125.979 29.6339 123.366 28.543 120.548 27.9293L119.048 22.6339C118.798 21.8384 118.093 21.293 117.275 21.293H113.57C112.729 21.293 112.002 21.8384 111.798 22.6339L110.298 27.9293C107.479 28.543 104.866 29.6566 102.502 31.1566L97.6839 28.4521C96.9794 28.0657 96.0703 28.1566 95.4794 28.7702L92.8658 31.3839C92.2749 31.9748 92.1385 32.8839 92.5249 33.6112L95.2521 38.4293C93.7294 40.7702 92.6385 43.4066 92.0249 46.2248L86.7067 47.7021C85.8885 47.9293 85.3203 48.6566 85.3203 49.4975ZM106.252 51.3384C106.252 46.293 110.343 42.1793 115.411 42.1793C120.457 42.1793 124.57 46.293 124.57 51.3384C124.57 56.4066 120.457 60.4975 115.411 60.4975C110.343 60.4975 106.252 56.4066 106.252 51.3384Z" fill="#2EC2F5"/>
<path d="M34.6385 21.2695C18.0249 21.2695 4.57031 34.7241 4.57031 51.315C4.57031 67.9286 18.0249 81.3832 34.6385 81.3832C51.2521 81.3832 64.7067 67.9286 64.7067 51.315C64.7067 34.7468 51.2521 21.2695 34.6385 21.2695Z" fill="#FFC040"/>
<path d="M44.1402 77.9724C43.2311 77.9724 42.3674 77.4042 42.0493 76.4724C41.6629 75.3133 42.2765 74.0633 43.4129 73.6769C49.822 71.4951 54.9129 66.336 57.0493 59.9042C57.4356 58.7451 58.6856 58.1315 59.8447 58.5178C61.0038 58.9042 61.6174 60.1542 61.2311 61.3133C58.6629 69.0405 52.5265 75.2224 44.8447 77.8587C44.6174 77.9269 44.3674 77.9724 44.1402 77.9724Z" fill="#FFD683"/>
<path d="M13.207 51.3381C13.207 63.179 22.7979 72.7699 34.6388 72.7699C46.4798 72.7699 56.0707 63.179 56.0707 51.3381C56.0707 39.4972 46.4798 29.9062 34.6388 29.9062C22.7979 29.9062 13.207 39.4972 13.207 51.3381Z" fill="#E5AC39"/>
<path d="M40.3867 55.8391C40.3867 58.5664 38.4549 60.8846 35.8867 61.4528V62.8619C35.8867 63.5437 35.3185 64.1119 34.6367 64.1119C33.9549 64.1119 33.3867 63.5437 33.3867 62.8619V61.4528C30.8185 60.8846 28.8867 58.5664 28.8867 55.8391C28.8867 55.1346 29.4549 54.5891 30.1367 54.5891C30.8185 54.5891 31.3867 55.1346 31.3867 55.8391C31.3867 57.6119 32.8413 59.0891 34.6367 59.0891C36.4094 59.0891 37.8867 57.6346 37.8867 55.8391C37.8867 54.0437 36.4322 52.5891 34.6367 52.5891C31.4549 52.5891 28.8867 50.021 28.8867 46.8391C28.8867 44.1119 30.8185 41.7937 33.3867 41.2255V39.8164C33.3867 39.1346 33.9549 38.5664 34.6367 38.5664C35.3185 38.5664 35.8867 39.1346 35.8867 39.8164V41.2255C38.4549 41.7937 40.3867 44.1119 40.3867 46.8391C40.3867 47.521 39.8185 48.0891 39.1367 48.0891C38.4549 48.0891 37.8867 47.521 37.8867 46.8391C37.8867 45.0664 36.4322 43.5891 34.6367 43.5891C32.864 43.5891 31.3867 45.0437 31.3867 46.8391C31.3867 48.6346 32.8413 50.0891 34.6367 50.0891C37.8185 50.0891 40.3867 52.6573 40.3867 55.8391Z" fill="white"/>
<path d="M102.297 51.337C102.297 58.587 108.161 64.4279 115.388 64.4279C122.615 64.4279 128.479 58.5643 128.479 51.337C128.479 44.1097 122.592 38.2461 115.388 38.2461C108.161 38.2461 102.297 44.1097 102.297 51.337ZM106.251 51.337C106.251 46.2915 110.342 42.1779 115.411 42.1779C120.456 42.1779 124.57 46.2915 124.57 51.337C124.57 56.4052 120.456 60.4961 115.411 60.4961C110.342 60.4961 106.251 56.4052 106.251 51.337Z" fill="#2EC2F5"/>
<path d="M45.3867 15.3395C46.2049 15.1577 46.864 14.4759 46.9776 13.5895L47.8867 7.04405C48.0458 5.90769 47.2504 4.8395 46.114 4.68041C44.9776 4.52132 43.9322 5.31678 43.7731 6.45314L42.864 12.9986C42.7049 14.135 43.5004 15.2031 44.6367 15.3622C44.8867 15.4077 45.1595 15.4077 45.3867 15.3395Z" fill="#FFC040"/>
<path d="M58.4785 21.2719C58.9331 21.1582 59.3422 20.9082 59.6603 20.5219L63.9785 14.9764C64.6831 14.0673 64.524 12.7491 63.6149 12.0446C62.7058 11.34 61.3876 11.4991 60.6831 12.4082L56.3649 17.9537C55.6603 18.8628 55.8194 20.1809 56.7285 20.8855C57.2513 21.2946 57.8876 21.4082 58.4785 21.2719Z" fill="#FFC040"/>
<path d="M67.5458 31.8157C67.6594 31.793 67.7503 31.7475 67.864 31.7248L74.1594 29.1793C75.2276 28.7475 75.7503 27.543 75.3185 26.4748C74.8867 25.4066 73.6594 24.8839 72.614 25.3157L66.3185 27.8611C65.2503 28.293 64.7276 29.4975 65.1594 30.5657C65.5458 31.5202 66.5685 32.043 67.5458 31.8157Z" fill="#FFC040"/>
</svg>
