<svg width="150" height="150" viewBox="0 0 150 150" fill="none" xmlns="http://www.w3.org/2000/svg">
<g clip-path="url(#clip0_2321_322035)">
<path d="M141.734 67.627H102.983C102.131 67.627 101.561 68.5041 101.907 69.2822L104.675 75.5107C105.576 77.5375 107.586 78.8436 109.803 78.8436H134.913C137.131 78.8436 139.141 77.5375 140.041 75.5107L142.809 69.2822C143.156 68.5035 142.585 67.627 141.734 67.627Z" fill="#FCDD86"/>
<path d="M47.0144 67.627H8.26462C7.41267 67.627 6.84255 68.5041 7.18884 69.2822L9.95681 75.5107C10.8574 77.5375 12.8672 78.8436 15.0849 78.8436H40.1947C42.4125 78.8436 44.4222 77.5375 45.3228 75.5107L48.0908 69.2822C48.4365 68.5035 47.8664 67.627 47.0144 67.627Z" fill="#FCDD86"/>
<path opacity="0.7" d="M75.3137 103.77C79.4435 103.77 82.7914 100.422 82.7914 96.2922C82.7914 92.1623 79.4435 88.8145 75.3137 88.8145C71.1838 88.8145 67.8359 92.1623 67.8359 96.2922C67.8359 100.422 71.1838 103.77 75.3137 103.77Z" fill="#002145"/>
<path d="M67.8324 96.2918C67.8324 93.8789 68.9803 91.7391 70.7539 90.3721H41.0568C36.8305 90.3721 33.2369 87.6439 31.9215 83.8594C30.8434 84.9902 29.3258 85.6986 27.64 85.6986C26.4359 85.6986 25.3174 85.3371 24.3828 84.7195C26.1992 92.243 32.9838 97.8498 41.0568 97.8498H67.9977C67.8904 97.3471 67.8324 96.8268 67.8324 96.2918Z" fill="#EDF4FC"/>
<path d="M122.358 85.6986C120.672 85.6986 119.154 84.9902 118.076 83.8594C116.76 87.6439 113.167 90.3721 108.941 90.3721H79.8672C81.6408 91.7397 82.7887 93.8789 82.7887 96.2918C82.7887 96.8262 82.7301 97.3471 82.6234 97.8498H108.941C117.014 97.8498 123.798 92.243 125.615 84.7195C124.68 85.3371 123.562 85.6986 122.358 85.6986Z" fill="#EDF4FC"/>
<path d="M116.518 78.8438C116.47 79.149 116.438 79.4596 116.438 79.7783C116.438 83.0479 119.088 85.698 122.357 85.698C125.627 85.698 128.277 83.0479 128.277 79.7783C128.277 79.4596 128.245 79.149 128.196 78.8438H116.518Z" fill="#F5C84C"/>
<path d="M21.8035 78.8438C21.7549 79.149 21.7227 79.4596 21.7227 79.7783C21.7227 83.0479 24.3729 85.698 27.6424 85.698C30.9119 85.698 33.5621 83.0479 33.5621 79.7783C33.5621 79.4596 33.5299 79.149 33.4813 78.8438H21.8035Z" fill="#F5C84C"/>
<path opacity="0.7" d="M102.832 142.535H47.168C45.2268 142.535 43.6523 140.961 43.6523 139.02C43.6523 137.078 45.2268 135.504 47.168 135.504H102.832C104.773 135.504 106.348 137.078 106.348 139.02C106.348 140.961 104.773 142.535 102.832 142.535Z" fill="#002145"/>
<path opacity="0.7" d="M100.372 135.503L81.2996 100.754C79.9361 102.581 77.7646 103.769 75.3102 103.769C72.6436 103.769 70.3092 102.369 68.9855 100.268L50.1758 135.503H100.372Z" fill="#002145"/>
<path d="M147.971 55.951L126.289 20.1508C124.787 17.6711 121.189 17.6711 119.688 20.1508L98.0055 55.951C96.4481 58.5227 98.2997 61.8086 101.306 61.8086H144.67C147.677 61.8086 149.528 58.5227 147.971 55.951Z" fill="#6183E2"/>
<path d="M124.075 29.9721C123.363 29.7775 122.612 29.7775 121.899 29.9721C119.794 30.5463 118.497 32.658 118.937 34.7949L120.875 44.2092C121.082 45.2111 121.964 45.9307 122.987 45.9307C124.01 45.9307 124.893 45.2117 125.099 44.2092L127.037 34.7949C127.477 32.658 126.181 30.5463 124.075 29.9721Z" fill="#F5C84C"/>
<path d="M122.99 56.5324C124.859 56.5324 126.374 55.0172 126.374 53.148C126.374 51.2789 124.859 49.7637 122.99 49.7637C121.121 49.7637 119.605 51.2789 119.605 53.148C119.605 55.0172 121.121 56.5324 122.99 56.5324Z" fill="#F5C84C"/>
<path d="M21.9711 59.9891C33.4215 59.9891 42.7039 50.7067 42.7039 39.2563C42.7039 27.8058 33.4215 18.5234 21.9711 18.5234C10.5207 18.5234 1.23828 27.8058 1.23828 39.2563C1.23828 50.7067 10.5207 59.9891 21.9711 59.9891Z" fill="#FCDD86"/>
<path d="M34.2773 18.5234C32.1363 18.5234 30.0697 18.8498 28.125 19.4551C36.5625 22.0824 42.7055 29.965 42.7055 39.2557C42.7055 48.5463 36.5625 56.4295 28.125 59.0568C30.0697 59.6621 32.1363 59.9885 34.2773 59.9885C45.7096 59.9885 55.0102 50.6879 55.0102 39.2557C55.0102 27.8234 45.7096 18.5234 34.2773 18.5234Z" fill="#FCDD86"/>
<path d="M21.9717 54.6094C30.4517 54.6094 37.3262 47.7349 37.3262 39.2549C37.3262 30.7748 30.4517 23.9004 21.9717 23.9004C13.4916 23.9004 6.61719 30.7748 6.61719 39.2549C6.61719 47.7349 13.4916 54.6094 21.9717 54.6094Z" fill="#F5C84C"/>
<path d="M35.9922 24C40.1148 27.7916 42.7035 33.2268 42.7035 39.2561C42.7035 45.2854 40.1143 50.7199 35.9922 54.5115C43.6533 53.6549 49.6299 47.1416 49.6299 39.2555C49.6299 31.3693 43.6533 24.8561 35.9922 24Z" fill="#F5C84C"/>
<path d="M103.434 109.188H102.221V107.976C102.221 107.068 101.485 106.332 100.578 106.332C99.6699 106.332 98.934 107.068 98.934 107.976V109.188H97.7217C96.8141 109.188 96.0781 109.924 96.0781 110.832C96.0781 111.74 96.8141 112.476 97.7217 112.476H98.934V113.688C98.934 114.596 99.6699 115.332 100.578 115.332C101.485 115.332 102.221 114.596 102.221 113.688V112.476H103.434C104.342 112.476 105.078 111.74 105.078 110.832C105.077 109.924 104.342 109.188 103.434 109.188Z" fill="#3CAADC"/>
<path d="M57.7744 69.3107C56.6881 69.1144 55.8086 69.9271 55.8086 70.9214C55.8086 71.8291 56.5404 72.565 57.4521 72.565C58.3832 72.565 59.0957 71.7962 59.0957 70.9214C59.0951 70.1293 58.5221 69.4525 57.7744 69.3107Z" fill="#EF4460"/>
<path d="M114.552 104.467C113.761 104.617 113.23 105.325 113.23 106.078C113.23 107.068 114.099 107.881 115.196 107.689C115.92 107.552 116.518 106.897 116.518 106.078C116.517 105.065 115.606 104.271 114.552 104.467Z" fill="#87D147"/>
<path d="M43.0674 6.03C42.277 6.17941 41.7461 6.88781 41.7461 7.64074C41.7461 8.54836 42.4779 9.28429 43.3896 9.28429C44.2803 9.28429 45.0332 8.563 45.0332 7.64074C45.0326 6.62707 44.1221 5.83371 43.0674 6.03Z" fill="#3CAADC"/>
<path d="M62.2049 17.2055C59.8641 16.7696 58.019 14.962 57.5737 12.6686C57.5514 12.5532 57.3903 12.5532 57.368 12.6686C56.9227 14.962 55.0782 16.7696 52.7368 17.2055C52.619 17.2272 52.619 17.3848 52.7368 17.4071C55.0776 17.843 56.9227 19.6506 57.368 21.944C57.3903 22.0594 57.5514 22.0594 57.5737 21.944C58.019 19.6506 59.8635 17.843 62.2049 17.4071C62.3227 17.3848 62.3227 17.2272 62.2049 17.2055Z" fill="#F5C84C"/>
<path d="M144.67 63.2727H101.306C99.3581 63.2727 97.6243 62.2596 96.6681 60.5621C95.7118 58.8646 95.7435 56.8572 96.7524 55.1914L118.434 19.3906C119.407 17.784 121.109 16.8242 122.988 16.8242C124.866 16.8242 126.568 17.784 127.541 19.3906L149.223 55.1914C150.232 56.8572 150.263 58.8652 149.308 60.5621C148.352 62.259 146.618 63.2727 144.67 63.2727ZM122.988 19.7545C122.131 19.7545 121.385 20.1752 120.941 20.9088L99.2585 56.7096C98.805 57.4584 98.7903 58.3613 99.2204 59.1248C99.6505 59.8883 100.43 60.3436 101.306 60.3436H144.67C145.546 60.3436 146.326 59.8883 146.756 59.1248C147.186 58.3613 147.172 57.4584 146.718 56.7096L125.036 20.9088C124.592 20.1752 123.845 19.7545 122.988 19.7545Z" fill="black"/>
<path d="M134.913 80.3084H109.804C107.009 80.3084 104.471 78.659 103.337 76.1061L100.569 69.8775C100.204 69.0561 100.279 68.1168 100.768 67.3639C101.258 66.6115 102.086 66.1621 102.983 66.1621H141.734C142.631 66.1621 143.46 66.6121 143.949 67.3645C144.438 68.1174 144.513 69.0572 144.148 69.8775L141.379 76.1061C140.246 78.6584 137.708 80.3084 134.913 80.3084ZM103.426 69.0918L106.014 74.9154C106.679 76.4119 108.167 77.3781 109.804 77.3781H134.914C136.551 77.3781 138.039 76.4119 138.704 74.9154L141.292 69.0918H103.426Z" fill="black"/>
<path d="M40.195 80.3084H15.0853C12.2909 80.3084 9.75265 78.659 8.61886 76.1061L5.85031 69.8775C5.48527 69.0572 5.55968 68.1174 6.04894 67.3645C6.5382 66.6121 7.36671 66.1621 8.26437 66.1621H47.0148C47.9124 66.1621 48.7409 66.6121 49.2302 67.3645C49.7194 68.1174 49.7939 69.0572 49.4288 69.8775L46.6609 76.1061C45.5271 78.6584 42.9888 80.3084 40.195 80.3084ZM8.70675 69.0918L11.2954 74.9154C11.9605 76.4119 13.4482 77.3781 15.0853 77.3781H40.195C41.8321 77.3781 43.3198 76.4119 43.9849 74.9154L46.573 69.0918H8.70675Z" fill="black"/>
<path d="M75.3104 105.235C70.3791 105.235 66.3672 101.223 66.3672 96.2922C66.3672 91.3615 70.3791 87.3496 75.3104 87.3496C80.241 87.3496 84.2529 91.3615 84.2529 96.2922C84.2529 101.223 80.241 105.235 75.3104 105.235ZM75.3104 90.2793C71.9945 90.2793 69.2969 92.9769 69.2969 96.2922C69.2969 99.608 71.9945 102.306 75.3104 102.306C78.6256 102.306 81.3232 99.608 81.3232 96.2922C81.3232 92.9769 78.6256 90.2793 75.3104 90.2793Z" fill="black"/>
<path d="M67.9983 99.3141H41.0574C32.4272 99.3141 24.9852 93.4536 22.959 85.063C22.8178 84.4776 23.0481 83.8659 23.5408 83.5202C24.0336 83.1733 24.6869 83.1651 25.1897 83.4968C25.9192 83.9784 26.7664 84.2333 27.6401 84.2333C28.8658 84.2333 30.0096 83.7411 30.861 82.8481C31.2137 82.479 31.7328 82.3202 32.2315 82.4274C32.7307 82.5358 33.1373 82.8962 33.3049 83.3778C34.4545 86.6854 37.5694 88.9073 41.0569 88.9073H70.7539C71.3809 88.9073 71.9381 89.3063 72.1403 89.8999C72.343 90.4934 72.1449 91.1497 71.6481 91.5323C70.1539 92.6837 69.2967 94.418 69.2967 96.2913C69.2967 96.7073 69.3412 97.1292 69.4303 97.5446C69.5223 97.977 69.4145 98.4282 69.1362 98.7716C68.8578 99.1149 68.4401 99.3141 67.9983 99.3141ZM26.736 87.1073C29.2203 92.686 34.7645 96.3844 41.0574 96.3844H66.3682C66.3676 96.3534 66.3676 96.3223 66.3676 96.2913C66.3676 94.6969 66.7836 93.1712 67.5541 91.8364H41.0574C36.9969 91.8364 33.309 89.6198 31.3584 86.1593C29.9891 86.9637 28.342 87.3065 26.736 87.1073Z" fill="black"/>
<path d="M108.941 99.3149H82.6236C82.1818 99.3149 81.7628 99.1152 81.4851 98.7718C81.2074 98.4284 81.099 97.9778 81.191 97.5448C81.2794 97.1294 81.3245 96.7075 81.3245 96.2915C81.3245 94.4183 80.4673 92.6839 78.9732 91.5325C78.4763 91.1499 78.2783 90.4937 78.481 89.9001C78.6831 89.306 79.2404 88.9075 79.8673 88.9075H108.941C112.428 88.9075 115.543 86.6857 116.693 83.378C116.86 82.8958 117.267 82.5355 117.766 82.4276C118.266 82.3198 118.784 82.4792 119.137 82.8484C119.988 83.7413 121.132 84.2335 122.358 84.2335C123.231 84.2335 124.079 83.9786 124.808 83.497C125.31 83.1653 125.964 83.1735 126.457 83.5204C126.95 83.8661 127.18 84.4778 127.039 85.0632C125.013 93.4544 117.571 99.3149 108.941 99.3149ZM84.2531 96.3853H108.941C115.234 96.3853 120.778 92.6868 123.262 87.1081C121.656 87.3085 120.01 86.9652 118.639 86.1601C116.688 89.6206 113 91.8372 108.94 91.8372H83.0665C83.8371 93.1714 84.2531 94.6978 84.2531 96.2921C84.2536 96.3232 84.2536 96.3542 84.2531 96.3853Z" fill="black"/>
<path d="M122.357 87.1629C118.286 87.1629 114.973 83.85 114.973 79.7777C114.973 79.4115 115.005 79.0307 115.072 78.6129C115.185 77.9016 115.798 77.3789 116.518 77.3789H128.197C128.917 77.3789 129.531 77.9039 129.644 78.6152C129.71 79.0365 129.742 79.4162 129.742 79.7777C129.742 83.8494 126.429 87.1629 122.357 87.1629ZM117.934 80.3086C118.197 82.5164 120.08 84.2332 122.357 84.2332C124.635 84.2332 126.518 82.5158 126.781 80.3086H117.934Z" fill="black"/>
<path d="M27.643 87.1629C23.5713 87.1629 20.2578 83.85 20.2578 79.7777C20.2578 79.4162 20.29 79.0359 20.3562 78.6152C20.4682 77.9033 21.0822 77.3789 21.8035 77.3789H33.4818C34.202 77.3789 34.8148 77.9022 34.9285 78.6129C34.9947 79.0307 35.0275 79.4115 35.0275 79.7777C35.027 83.8494 31.7146 87.1629 27.643 87.1629ZM23.2191 80.3086C23.4822 82.5164 25.3654 84.2332 27.643 84.2332C29.9199 84.2332 31.8031 82.5158 32.0662 80.3086H23.2191Z" fill="black"/>
<path d="M102.832 144H47.168C44.4217 144 42.1875 141.766 42.1875 139.02C42.1875 136.273 44.4217 134.039 47.168 134.039H102.832C105.578 134.039 107.812 136.273 107.812 139.02C107.812 141.766 105.578 144 102.832 144ZM47.168 136.969C46.0371 136.969 45.1172 137.889 45.1172 139.02C45.1172 140.15 46.0371 141.07 47.168 141.07H102.832C103.963 141.07 104.883 140.15 104.883 139.02C104.883 137.889 103.963 136.969 102.832 136.969H47.168Z" fill="black"/>
<path d="M100.373 136.967H50.1761C49.6617 136.967 49.1847 136.697 48.9199 136.256C48.655 135.814 48.6409 135.267 48.8835 134.812L67.6933 99.577C67.9388 99.117 68.4117 98.8217 68.9326 98.8035C69.4687 98.7865 69.9456 99.0449 70.2245 99.4867C71.3355 101.251 73.2374 102.304 75.3099 102.304C77.2201 102.304 78.9749 101.42 80.1257 99.8781C80.424 99.4791 80.9021 99.2623 81.4019 99.2928C81.8993 99.3279 82.3441 99.6127 82.5843 100.049L101.657 134.798C101.906 135.251 101.897 135.803 101.634 136.249C101.369 136.694 100.89 136.967 100.373 136.967ZM52.6189 134.038H97.8978L80.9753 103.208C79.3962 104.513 77.4169 105.234 75.3099 105.234C73.0271 105.234 70.8849 104.378 69.2566 102.87L52.6189 134.038Z" fill="black"/>
<path d="M23.9516 47.8615H18.3465C17.5373 47.8615 16.8816 47.2059 16.8816 46.3967C16.8816 45.5875 17.5373 44.9318 18.3465 44.9318H23.9516C25.1123 44.9318 26.0574 43.9873 26.0574 42.826C26.0574 41.6647 25.1129 40.7195 23.9516 40.7195H19.9965C17.2203 40.7195 14.9609 38.4607 14.9609 35.684C14.9609 32.9072 17.2197 30.6484 19.9965 30.6484H26.3223C27.1314 30.6484 27.7871 31.3041 27.7871 32.1133C27.7871 32.9225 27.1314 33.5781 26.3223 33.5781H19.9965C18.8357 33.5781 17.8906 34.5227 17.8906 35.684C17.8906 36.8453 18.8352 37.7898 19.9965 37.7898H23.9516C26.7277 37.7898 28.9871 40.0486 28.9871 42.826C28.9871 45.6022 26.7277 47.8615 23.9516 47.8615Z" fill="black"/>
<path d="M21.9727 50.3051C21.1635 50.3051 20.5078 49.6494 20.5078 48.8402V29.6719C20.5078 28.8627 21.1635 28.207 21.9727 28.207C22.7818 28.207 23.4375 28.8627 23.4375 29.6719V48.8402C23.4375 49.6488 22.7818 50.3051 21.9727 50.3051Z" fill="black"/>
<path d="M122.987 47.3954C121.277 47.3954 119.785 46.1801 119.44 44.5049L117.502 35.0901C116.907 32.2026 118.67 29.3338 121.514 28.5586C122.477 28.2956 123.496 28.2956 124.46 28.5586C127.304 29.3338 129.065 32.2032 128.471 35.0901L126.532 44.5043C126.189 46.179 124.697 47.3954 122.987 47.3954ZM122.987 31.2903C122.751 31.2903 122.515 31.3219 122.286 31.384C120.929 31.7543 120.088 33.1225 120.371 34.4989L122.31 43.9131C122.376 44.2325 122.661 44.4645 122.987 44.4645C123.313 44.4645 123.598 44.2325 123.663 43.9131L125.603 34.4989C125.886 33.1219 125.046 31.7538 123.689 31.3846C123.46 31.3219 123.223 31.2903 122.987 31.2903Z" fill="black"/>
<path d="M122.99 57.9973C120.316 57.9973 118.141 55.8217 118.141 53.148C118.141 50.4744 120.316 48.2988 122.99 48.2988C125.663 48.2988 127.839 50.4744 127.839 53.148C127.839 55.8217 125.664 57.9973 122.99 57.9973ZM122.99 51.2285C121.931 51.2285 121.07 52.0898 121.07 53.148C121.07 54.2063 121.932 55.0676 122.99 55.0676C124.048 55.0676 124.909 54.2063 124.909 53.148C124.909 52.0898 124.049 51.2285 122.99 51.2285Z" fill="black"/>
<path d="M21.9711 61.4533C9.73086 61.4533 -0.226562 51.4959 -0.226562 39.2557C-0.226562 27.016 9.73086 17.0586 21.9711 17.0586C34.2113 17.0586 44.1688 27.016 44.1688 39.2557C44.1688 51.4959 34.2113 61.4533 21.9711 61.4533ZM21.9711 19.9883C11.3469 19.9883 2.70312 28.6314 2.70312 39.2557C2.70312 49.8799 11.3469 58.5236 21.9711 58.5236C32.5953 58.5236 41.2391 49.8799 41.2391 39.2557C41.2391 28.6314 32.5953 19.9883 21.9711 19.9883Z" fill="black"/>
<path d="M34.2773 61.4533C32.0326 61.4533 29.816 61.1176 27.6896 60.4555C27.0773 60.265 26.6602 59.6984 26.6602 59.0568C26.6602 58.4152 27.0773 57.8486 27.6896 57.6582C35.7949 55.1334 41.2406 47.7383 41.2406 39.2557C41.2406 30.773 35.7949 23.3773 27.6896 20.8537C27.0773 20.6633 26.6602 20.0967 26.6602 19.4551C26.6602 18.8135 27.0773 18.2469 27.6896 18.0564C29.816 17.3943 32.0326 17.0586 34.2773 17.0586C46.5176 17.0586 56.475 27.016 56.475 39.2557C56.475 51.4959 46.5176 61.4533 34.2773 61.4533ZM33.0768 58.4861C33.4758 58.5107 33.876 58.523 34.2773 58.523C44.9016 58.523 53.5453 49.8793 53.5453 39.2551C53.5453 28.6309 44.9016 19.9883 34.2773 19.9883C33.876 19.9883 33.4764 20.0006 33.0773 20.0252C39.8637 23.9217 44.1703 31.1586 44.1703 39.2551C44.1703 47.3527 39.8643 54.5891 33.0768 58.4861Z" fill="black"/>
<path d="M21.9717 56.0756C12.6975 56.0756 5.15234 48.5305 5.15234 39.2563C5.15234 29.9826 12.6975 22.4375 21.9717 22.4375C31.2459 22.4375 38.791 29.9826 38.791 39.2563C38.791 48.5305 31.2459 56.0756 21.9717 56.0756ZM21.9717 25.3672C14.3129 25.3672 8.08203 31.598 8.08203 39.2563C8.08203 46.915 14.3129 53.1459 21.9717 53.1459C29.6305 53.1459 35.8613 46.915 35.8613 39.2563C35.8613 31.598 29.6305 25.3672 21.9717 25.3672Z" fill="black"/>
<path d="M35.9921 55.9766C35.4232 55.9766 34.8999 55.6456 34.6597 55.1188C34.3972 54.5428 34.5349 53.862 35.0013 53.4336C38.9658 49.7862 41.2392 44.6188 41.2392 39.2557C41.2392 33.8926 38.9652 28.7252 35.0007 25.0784C34.5343 24.65 34.3966 23.9692 34.6591 23.3932C34.9222 22.8166 35.5304 22.4721 36.155 22.5448C44.6722 23.4969 51.0953 30.6817 51.0953 39.2563C51.0953 47.8315 44.6722 55.0157 36.155 55.9678C36.1005 55.9737 36.046 55.9766 35.9921 55.9766ZM40.2747 26.7231C42.7849 30.3899 44.1689 34.7627 44.1689 39.2557C44.1689 43.7487 42.7855 48.1215 40.2747 51.7889C44.9804 49.5407 48.1656 44.7436 48.1656 39.2557C48.1656 33.769 44.9816 28.9707 40.2747 26.7231Z" fill="black"/>
</g>
<defs>
<clipPath id="clip0_2321_322035">
<rect width="150" height="150" fill="white"/>
</clipPath>
</defs>
</svg>
