<svg width="150" height="150" viewBox="0 0 150 150" fill="none" xmlns="http://www.w3.org/2000/svg">
<path d="M139.991 74.712C139.991 77.4313 139.822 80.1098 139.502 82.7456C136.719 106.038 121.905 125.59 101.462 135.089C92.9615 139.043 83.4837 141.252 73.4744 141.252C67.5879 141.252 61.8922 140.487 56.4515 139.062C40.1294 134.748 26.2522 124.377 17.3701 110.5C10.783 100.171 6.95581 87.8884 6.95581 74.712C6.95581 37.9684 36.7501 8.21484 73.4744 8.21484C110.218 8.21484 139.991 37.9684 139.991 74.712Z" fill="#A5E5FC"/>
<path d="M59.9144 122.847V131.879C59.9144 134.684 58.6394 137.065 56.4494 139.062C40.1272 134.748 26.2501 124.377 17.3679 110.5C21.7458 109.289 26.7408 108.672 31.7122 108.672C45.7179 108.672 59.9144 113.538 59.9144 122.847Z" fill="#3F8FEF"/>
<path d="M55.6651 122.845V131.878C55.6651 137.361 44.9551 141.782 31.7144 141.782C18.4951 141.782 7.76367 137.361 7.76367 131.878V122.845C7.76367 117.362 18.4951 112.922 31.7144 112.922C44.953 112.922 55.6651 117.362 55.6651 122.845Z" fill="#FEBC00"/>
<path d="M139.502 82.7461C136.719 106.039 121.905 125.59 101.462 135.09L100.867 134.687C93.5979 129.608 89.2629 121.277 89.2629 112.395V88.9519C89.2629 85.4461 92.1108 82.5769 95.5951 82.5769C96.0622 82.5769 96.5079 82.6411 96.9558 82.7247C97.8279 82.9154 98.7837 83.0226 99.7822 83.0226C106.179 83.0226 113.002 79.1333 114.956 77.944C115.954 77.3269 117.103 76.9883 118.271 76.9883C119.439 76.9883 120.609 77.329 121.607 77.944C123.54 79.1333 130.406 83.0226 136.781 83.0226C137.739 83.0226 138.652 82.9154 139.502 82.7461Z" fill="#3F8FEF"/>
<path d="M126.517 74.7123C126.517 76.6258 126.409 78.5158 126.219 80.3651C124.072 100.639 110.535 117.514 92.0894 124.42C86.308 126.589 80.0187 127.778 73.4723 127.778C68.7966 127.778 64.2494 127.161 59.9144 126.014C49.1187 123.188 39.6623 117.025 32.7344 108.694C25.0415 99.4922 20.4087 87.6551 20.4087 74.7123C20.4087 45.4065 44.1901 21.668 73.4744 21.668C102.78 21.668 126.517 45.4065 126.517 74.7123Z" fill="white"/>
<path d="M59.9144 122.845V126.012C49.1187 123.186 39.6622 117.023 32.7344 108.691C46.3994 108.904 59.9144 113.77 59.9144 122.845Z" fill="#D8D7E7"/>
<path d="M94.3971 73.1204H75.0707V44.899C75.0707 44.0183 74.3571 43.3047 73.4764 43.3047C72.5957 43.3047 71.8821 44.0183 71.8821 44.899V74.5218L53.6935 87.0661C53.2114 87.3983 53.0892 88.0604 53.4235 88.5447C53.7578 89.0311 54.4242 89.1468 54.9021 88.8147L73.1357 76.2404C73.2492 76.2661 73.3564 76.309 73.4764 76.309H94.3949C95.2757 76.309 95.9892 75.5954 95.9892 74.7147C95.9892 73.834 95.2757 73.1204 94.3971 73.1204Z" fill="#2EC2F5"/>
<path d="M81.6107 74.721C81.6107 79.2188 77.9615 82.8638 73.4679 82.8638C68.97 82.8638 65.3186 79.2188 65.3186 74.721C65.3186 70.2231 68.9679 66.5781 73.4679 66.5781C77.9615 66.5781 81.6107 70.2231 81.6107 74.721Z" fill="#FF564C"/>
<path d="M126.221 80.3654C124.074 100.639 110.537 117.514 92.0916 124.42C90.2423 120.743 89.2651 116.62 89.2651 112.393V88.9519C89.2651 85.4461 92.113 82.5769 95.5973 82.5769C96.0644 82.5769 96.5101 82.6411 96.958 82.7247C97.8301 82.9154 98.7859 83.0226 99.7844 83.0226C106.181 83.0226 113.004 79.1333 114.958 77.944C115.957 77.3269 117.105 76.9883 118.273 76.9883C119.441 76.9883 120.611 77.329 121.609 77.944C122.415 78.4326 124.095 79.4097 126.221 80.3654Z" fill="#D8D7E7"/>
<path d="M140.529 86.8779C141.829 86.5929 143.049 87.6258 143.049 88.9586V112.399C143.049 119.893 139.397 126.917 133.267 131.214L119.497 140.859C118.766 141.371 117.791 141.371 117.06 140.859L103.307 131.214C97.1744 126.917 93.5251 119.893 93.5251 112.399V88.9586C93.5251 87.6258 94.7444 86.595 96.0451 86.8779C104.462 88.7208 113.985 83.5136 117.174 81.5572C117.857 81.1372 118.699 81.1372 119.385 81.5572C122.574 83.5136 132.109 88.7208 140.529 86.8779Z" fill="#FF564C"/>
<path d="M118.286 122.131C126.114 122.131 132.461 115.785 132.461 107.956C132.461 100.128 126.114 93.7812 118.286 93.7812C110.457 93.7812 104.111 100.128 104.111 107.956C104.111 115.785 110.457 122.131 118.286 122.131Z" fill="white"/>
<path d="M55.6736 122.844V131.867C55.6736 137.351 44.9443 141.789 31.7164 141.789C18.4886 141.789 7.75928 137.351 7.75928 131.867V122.844C7.75928 128.327 18.4886 132.765 31.7164 132.765C44.9443 132.765 55.6736 128.327 55.6736 122.844Z" fill="#FEBC00"/>
<path d="M31.7164 132.769C44.9476 132.769 55.6736 128.327 55.6736 122.847C55.6736 117.368 44.9476 112.926 31.7164 112.926C18.4853 112.926 7.75928 117.368 7.75928 122.847C7.75928 128.327 18.4853 132.769 31.7164 132.769Z" fill="white"/>
<path d="M73.4764 24.9297C72.5957 24.9297 71.8821 25.6433 71.8821 26.524V32.8818C71.8821 33.7625 72.5957 34.4761 73.4764 34.4761C74.3571 34.4761 75.0707 33.7625 75.0707 32.8818V26.524C75.0707 25.6454 74.3571 24.9297 73.4764 24.9297Z" fill="#2EC2F5"/>
<path d="M50.7557 32.1784C50.3185 31.4198 49.3414 31.1563 48.5785 31.5956C47.8178 32.0348 47.5564 33.012 47.9957 33.7727L51.1757 39.2798C51.6171 40.0427 52.5921 40.302 53.3528 39.8627C54.1135 39.4234 54.375 38.4463 53.9357 37.6856L50.7557 32.1784Z" fill="#2EC2F5"/>
<path d="M38.0337 52.4132L32.5266 49.2332C31.7637 48.7918 30.7866 49.0575 30.3494 49.8161C29.9102 50.5768 30.1716 51.5539 30.9323 51.9932L36.4394 55.1732C37.2002 55.6125 38.1752 55.3532 38.6166 54.5904C39.058 53.8297 38.7944 52.8547 38.0337 52.4132Z" fill="#2EC2F5"/>
<path d="M33.2185 74.7115C33.2185 73.8308 32.505 73.1172 31.6243 73.1172H25.2664C24.3857 73.1172 23.6721 73.8308 23.6721 74.7115C23.6721 75.5922 24.3857 76.3058 25.2664 76.3058H31.6243C32.505 76.3058 33.2185 75.5922 33.2185 74.7115Z" fill="#2EC2F5"/>
<path d="M36.4265 94.2528L30.9194 97.4328C30.1586 97.872 29.8972 98.8492 30.3365 99.6099C30.7779 100.373 31.7529 100.632 32.5136 100.193L38.0208 97.0128C38.7815 96.5735 39.0429 95.5963 38.6036 94.8356C38.1644 94.077 37.1915 93.8113 36.4265 94.2528Z" fill="#2EC2F5"/>
<path d="M73.4529 114.973C72.5722 114.973 71.8586 115.686 71.8586 116.567V122.925C71.8586 123.806 72.5722 124.519 73.4529 124.519C74.3336 124.519 75.0472 123.806 75.0472 122.925V116.567C75.0472 115.686 74.3336 114.973 73.4529 114.973Z" fill="#2EC2F5"/>
<path d="M113.713 74.7349C113.713 75.6156 114.426 76.3292 115.307 76.3292H121.665C122.546 76.3292 123.259 75.6156 123.259 74.7349C123.259 73.8542 122.546 73.1406 121.665 73.1406H115.307C114.429 73.1428 113.713 73.8563 113.713 74.7349Z" fill="#2EC2F5"/>
<path d="M110.503 55.1937L116.01 52.0137C116.771 51.5744 117.032 50.5973 116.593 49.8366C116.156 49.078 115.179 48.8101 114.416 49.2537L108.909 52.4337C108.148 52.873 107.886 53.8501 108.326 54.6109C108.767 55.3737 109.744 55.633 110.503 55.1937Z" fill="#2EC2F5"/>
<path d="M93.6 39.8763C94.3607 40.3156 95.3357 40.0563 95.7771 39.2935L98.9571 33.7863C99.3964 33.0256 99.135 32.0485 98.3743 31.6092C97.6093 31.1656 96.6364 31.4335 96.1971 32.192L93.0171 37.6992C92.5757 38.4599 92.8371 39.4349 93.6 39.8763Z" fill="#2EC2F5"/>
<g filter="url(#filter0_d_2785_303639)">
<path d="M142.888 86.4293C142.166 85.8486 141.27 85.5872 140.364 85.6493C140.906 82.2057 141.217 78.6871 141.217 75.0936C141.217 37.5486 110.67 7 73.1233 7C35.5612 7 4.99976 37.5486 4.99976 75.0936C4.99976 89.3821 9.46761 102.625 17.0148 113.59C10.1619 115.611 5.80761 119.099 5.80761 123.231V132.254C5.80761 138.818 16.7919 143.77 31.3569 143.77C39.594 143.77 46.6826 142.184 51.2919 139.621C58.149 141.951 65.4905 143.219 73.1255 143.219C84.7205 143.219 95.6126 140.245 105.176 135.104L115.788 142.544C116.424 142.992 117.174 143.215 117.924 143.215C118.672 143.215 119.415 142.992 120.056 142.546L133.826 132.899C140.377 128.307 144.288 120.786 144.288 112.778V89.3414C144.285 88.2036 143.778 87.1407 142.888 86.4293ZM31.359 114.904C42.774 114.904 51.1805 118.195 53.229 121.636H9.48904C11.5398 118.195 19.944 114.904 31.359 114.904ZM53.229 124.823C51.1805 128.264 42.7719 131.558 31.359 131.558C19.9462 131.558 11.5398 128.264 9.49118 124.823H53.229ZM8.99618 132.252V128.971C14.3833 133.388 24.3155 134.744 31.359 134.744C38.3148 134.744 48.3412 133.375 53.724 128.971V132.252C53.724 136.191 44.5376 140.581 31.359 140.581C18.1805 140.581 8.99618 136.193 8.99618 132.252ZM73.1255 140.031C66.654 140.031 60.4312 139.015 54.5319 137.241C56.049 135.745 56.9105 134.065 56.9105 132.252V123.229C56.9105 120.4 54.8619 117.876 51.3755 115.913L53.5569 112.135C53.9962 111.374 53.7348 110.397 52.974 109.958C52.2112 109.514 51.234 109.782 50.7969 110.541L48.4805 114.554C44.0126 112.776 38.0769 111.715 31.359 111.715C27.3498 111.715 23.6276 112.101 20.3169 112.782C12.7033 102.145 8.18833 89.1443 8.18833 75.0936C8.18833 39.3036 37.3205 10.1886 73.1255 10.1886C108.915 10.1886 138.03 39.3036 138.03 75.0936C138.03 78.8243 137.685 82.4714 137.077 86.0286C129.845 86.2793 122.231 82.0343 119.859 80.5814C118.663 79.8464 117.18 79.8464 115.98 80.5814C113.308 82.2207 103.965 87.4429 96.0262 85.7029C94.9419 85.465 93.8298 85.7307 92.964 86.4293C92.079 87.1407 91.5712 88.2014 91.5712 89.3393V112.778C91.5712 120.784 95.484 128.307 102.033 132.899L102.198 133.015C93.4419 137.455 83.5955 140.031 73.1255 140.031ZM141.097 112.78C141.097 119.746 137.694 126.293 131.992 130.289L118.224 139.936C118.038 140.061 117.795 140.061 117.615 139.934L103.863 130.289C98.1626 126.295 94.7576 119.749 94.7576 112.78V89.3414C94.7576 89.1057 94.9012 88.9643 94.9612 88.9129C95.0255 88.8636 95.124 88.8079 95.2483 88.8079C95.2805 88.8079 95.3105 88.8121 95.3447 88.8186C104.193 90.76 113.891 85.6043 117.648 83.3007C117.819 83.1936 118.016 83.1936 118.194 83.3007C121.955 85.6043 131.668 90.7579 140.514 88.8186C140.677 88.7864 140.812 88.8507 140.893 88.915C140.955 88.9643 141.099 89.1057 141.099 89.3436L141.097 112.78Z" fill="white"/>
</g>
<path d="M125.593 110.369L121.472 107.99L125.533 105.646C126.294 105.207 126.555 104.23 126.116 103.469C125.679 102.71 124.701 102.442 123.939 102.886L119.88 105.23V100.473C119.88 99.5925 119.166 98.8789 118.286 98.8789C117.405 98.8789 116.691 99.5925 116.691 100.473V105.23L112.633 102.886C111.868 102.442 110.893 102.71 110.456 103.469C110.016 104.23 110.278 105.207 111.039 105.646L115.097 107.99L110.976 110.369C110.216 110.808 109.954 111.785 110.394 112.546C110.835 113.309 111.81 113.568 112.571 113.129L116.691 110.75V115.437C116.691 116.317 117.405 117.031 118.286 117.031C119.166 117.031 119.88 116.317 119.88 115.437V110.75L123.999 113.129C124.759 113.568 125.734 113.309 126.176 112.546C126.617 111.783 126.356 110.808 125.593 110.369Z" fill="#2EC2F5"/>
<defs>
<filter id="filter0_d_2785_303639" x="3.99976" y="7" width="141.288" height="141.77" filterUnits="userSpaceOnUse" color-interpolation-filters="sRGB">
<feFlood flood-opacity="0" result="BackgroundImageFix"/>
<feColorMatrix in="SourceAlpha" type="matrix" values="0 0 0 0 0 0 0 0 0 0 0 0 0 0 0 0 0 0 127 0" result="hardAlpha"/>
<feOffset dy="4"/>
<feGaussianBlur stdDeviation="0.5"/>
<feComposite in2="hardAlpha" operator="out"/>
<feColorMatrix type="matrix" values="0 0 0 0 0.180392 0 0 0 0 0.760784 0 0 0 0 0.960784 0 0 0 0.1 0"/>
<feBlend mode="normal" in2="BackgroundImageFix" result="effect1_dropShadow_2785_303639"/>
<feBlend mode="normal" in="SourceGraphic" in2="effect1_dropShadow_2785_303639" result="shape"/>
</filter>
</defs>
</svg>
