<svg width="142" height="142" viewBox="0 0 142 142" fill="none" xmlns="http://www.w3.org/2000/svg">
<path d="M141.456 79.8874V87.7965C141.456 89.1602 140.342 90.2738 138.979 90.2738H3.04687C1.66051 90.2965 0.546875 89.1829 0.546875 87.7965V79.8874C0.546875 78.5238 1.66051 77.4102 3.02415 77.4102H138.956C140.342 77.4102 141.456 78.5238 141.456 79.8874Z" fill="#67819E"/>
<path d="M105.549 119.569H36.4805L63.0714 78.6367C66.8214 72.8867 75.2532 72.8867 78.9805 78.6367L105.549 119.569Z" fill="#4D647D"/>
<path d="M119.931 131.068V138.455C119.931 140.046 118.636 141.318 117.068 141.318H24.9769C23.386 141.318 22.1133 140.023 22.1133 138.455V131.068C22.1133 124.727 27.2496 119.568 33.6133 119.568H108.454C114.795 119.568 119.931 124.727 119.931 131.068Z" fill="#67819E"/>
<path d="M71.0025 87.3858C72.9606 87.3858 74.5479 85.7985 74.5479 83.8404C74.5479 81.8823 72.9606 80.2949 71.0025 80.2949C69.0444 80.2949 67.457 81.8823 67.457 83.8404C67.457 85.7985 69.0444 87.3858 71.0025 87.3858Z" fill="white"/>
<path d="M67.1825 138.274H41.728C40.5007 138.274 39.5234 137.297 39.5234 136.07C39.5234 134.843 40.5007 133.865 41.728 133.865H67.1825C68.4098 133.865 69.3871 134.843 69.3871 136.07C69.3871 137.297 68.4098 138.274 67.1825 138.274Z" fill="#84A3AD"/>
<path d="M81.3203 45.5014V49.206C81.3203 50.0469 81.8658 50.7969 82.6612 51.0014L87.9794 52.5014C88.593 55.2969 89.7067 57.9105 91.2067 60.2741L88.4794 65.0923C88.093 65.8196 88.2067 66.706 88.8203 67.2969L91.4567 69.9332C92.0476 70.5014 92.9567 70.6378 93.6612 70.2287L98.4794 67.5241C100.843 69.0469 103.457 70.1378 106.252 70.7514L107.775 76.0469C108.002 76.8651 108.729 77.4105 109.548 77.4105H113.252C114.093 77.4105 114.798 76.8651 115.025 76.0469L116.525 70.7514C119.343 70.1378 121.957 69.0241 124.298 67.5241L129.116 70.2287C129.843 70.6378 130.752 70.5241 131.343 69.9332L133.957 67.2969C134.548 66.706 134.684 65.8196 134.275 65.0923L131.57 60.2741C133.093 57.9105 134.184 55.2969 134.798 52.5014L140.093 51.0014C140.911 50.7742 141.457 50.0241 141.457 49.1832V45.4787C141.457 44.6378 140.911 43.9105 140.116 43.706L134.82 42.2287C134.207 39.4105 133.093 36.7741 131.593 34.4332L134.298 29.6151C134.707 28.8878 134.593 27.9787 133.979 27.3878L131.366 24.7741C130.775 24.1832 129.866 24.0696 129.138 24.456L124.32 27.1605C121.979 25.6378 119.366 24.5469 116.548 23.9332L115.048 18.6378C114.798 17.8423 114.093 17.2969 113.275 17.2969H109.57C108.729 17.2969 108.002 17.8423 107.798 18.6378L106.298 23.9332C103.479 24.5469 100.866 25.6605 98.5021 27.1605L93.6839 24.456C92.9794 24.0696 92.0703 24.1605 91.4794 24.7741L88.8658 27.3878C88.2749 27.9787 88.1385 28.8878 88.5249 29.6151L91.2521 34.4332C89.7294 36.7741 88.6385 39.4105 88.0249 42.2287L82.7067 43.706C81.8885 43.9332 81.3203 44.6605 81.3203 45.5014ZM102.252 47.3423C102.252 42.2969 106.343 38.1832 111.411 38.1832C116.457 38.1832 120.57 42.2969 120.57 47.3423C120.57 52.4105 116.457 56.5014 111.411 56.5014C106.343 56.5014 102.252 52.4105 102.252 47.3423Z" fill="#6183E2"/>
<path d="M30.6385 17.2734C14.0249 17.2734 0.570312 30.728 0.570312 47.3189C0.570312 63.9325 14.0249 77.3871 30.6385 77.3871C47.2521 77.3871 60.7067 63.9325 60.7067 47.3189C60.7067 30.7507 47.2521 17.2734 30.6385 17.2734Z" fill="#FFC040"/>
<path d="M40.1402 73.9782C39.2311 73.9782 38.3674 73.41 38.0493 72.4782C37.6629 71.3191 38.2765 70.0691 39.4129 69.6828C45.822 67.5009 50.9129 62.3419 53.0493 55.91C53.4356 54.7509 54.6856 54.1373 55.8447 54.5237C57.0038 54.91 57.6174 56.16 57.2311 57.3191C54.6629 65.0464 48.5265 71.2282 40.8447 73.8646C40.6174 73.9328 40.3674 73.9782 40.1402 73.9782Z" fill="#FFD683"/>
<path d="M9.20703 47.342C9.20703 59.1829 18.7979 68.7738 30.6388 68.7738C42.4798 68.7738 52.0707 59.1829 52.0707 47.342C52.0707 35.5011 42.4798 25.9102 30.6388 25.9102C18.7979 25.9102 9.20703 35.5011 9.20703 47.342Z" fill="#E5AC39"/>
<path d="M36.3867 51.8411C36.3867 54.5684 34.4549 56.8865 31.8867 57.4547V58.8638C31.8867 59.5456 31.3185 60.1138 30.6367 60.1138C29.9549 60.1138 29.3867 59.5456 29.3867 58.8638V57.4547C26.8185 56.8865 24.8867 54.5684 24.8867 51.8411C24.8867 51.1365 25.4549 50.5911 26.1367 50.5911C26.8185 50.5911 27.3867 51.1365 27.3867 51.8411C27.3867 53.6138 28.8413 55.0911 30.6367 55.0911C32.4094 55.0911 33.8867 53.6365 33.8867 51.8411C33.8867 50.0456 32.4322 48.5911 30.6367 48.5911C27.4549 48.5911 24.8867 46.0229 24.8867 42.8411C24.8867 40.1138 26.8185 37.7956 29.3867 37.2275V35.8184C29.3867 35.1365 29.9549 34.5684 30.6367 34.5684C31.3185 34.5684 31.8867 35.1365 31.8867 35.8184V37.2275C34.4549 37.7956 36.3867 40.1138 36.3867 42.8411C36.3867 43.5229 35.8185 44.0911 35.1367 44.0911C34.4549 44.0911 33.8867 43.5229 33.8867 42.8411C33.8867 41.0684 32.4322 39.5911 30.6367 39.5911C28.864 39.5911 27.3867 41.0456 27.3867 42.8411C27.3867 44.6365 28.8413 46.0911 30.6367 46.0911C33.8185 46.0911 36.3867 48.6593 36.3867 51.8411Z" fill="white"/>
<path d="M98.2969 47.3409C98.2969 54.5909 104.161 60.4318 111.388 60.4318C118.615 60.4318 124.479 54.5682 124.479 47.3409C124.479 40.1136 118.592 34.25 111.388 34.25C104.161 34.25 98.2969 40.1136 98.2969 47.3409ZM102.251 47.3409C102.251 42.2955 106.342 38.1818 111.411 38.1818C116.456 38.1818 120.57 42.2955 120.57 47.3409C120.57 52.4091 116.456 56.5 111.411 56.5C106.342 56.5 102.251 52.4091 102.251 47.3409Z" fill="#4D647D"/>
<path d="M41.3867 11.3415C42.2049 11.1596 42.864 10.4778 42.9776 9.59146L43.8867 3.046C44.0458 1.90964 43.2504 0.841457 42.114 0.682366C40.9776 0.523275 39.9322 1.31873 39.7731 2.45509L38.864 9.00055C38.7049 10.1369 39.5004 11.2051 40.6367 11.3642C40.8867 11.4096 41.1595 11.4096 41.3867 11.3415Z" fill="#FFC040"/>
<path d="M54.4785 17.2738C54.9331 17.1602 55.3422 16.9102 55.6603 16.5238L59.9785 10.9784C60.6831 10.0693 60.524 8.75108 59.6149 8.04653C58.7058 7.34199 57.3876 7.50108 56.6831 8.41017L52.3649 13.9556C51.6603 14.8647 51.8194 16.1829 52.7285 16.8874C53.2513 17.2965 53.8876 17.4102 54.4785 17.2738Z" fill="#FFC040"/>
<path d="M63.5458 27.8196C63.6594 27.7969 63.7503 27.7514 63.864 27.7287L70.1594 25.1832C71.2276 24.7514 71.7503 23.5469 71.3185 22.4787C70.8867 21.4105 69.6594 20.8878 68.614 21.3196L62.3185 23.865C61.2503 24.2969 60.7276 25.5014 61.1594 26.5696C61.5458 27.5241 62.5685 28.0469 63.5458 27.8196Z" fill="#FFC040"/>
</svg>
