<svg width="100" height="100" viewBox="0 0 100 100" fill="none" xmlns="http://www.w3.org/2000/svg">
<g clip-path="url(#clip0_2785_302456)">
<path opacity="0.3" d="M39.4294 37.2969H1.49784C0.54502 37.2969 -0.226562 38.0693 -0.226562 39.0213V51.0903C-0.226562 52.0423 0.54502 52.8139 1.49784 52.8139H3.22137V73.5041C3.22137 74.456 3.99295 75.2285 4.94577 75.2285H35.9806C36.9335 75.2285 37.705 74.456 37.705 73.5041V52.8139H39.4294C40.3823 52.8139 41.153 52.0423 41.153 51.0903V39.0213C41.153 38.0685 40.3823 37.2969 39.4294 37.2969ZM18.7392 40.7448H22.1872V44.1936C22.1872 45.1456 21.4165 45.918 20.4636 45.918C19.5108 45.918 18.7392 45.1456 18.7392 44.1936V40.7448ZM22.1872 66.0909C22.1872 67.0428 21.4165 67.8144 20.4636 67.8144C19.5108 67.8144 18.7392 67.0428 18.7392 66.0909V52.8139H22.1872V66.0909Z" fill="#5FD6FC"/>
<path opacity="0.3" d="M96.1528 41.2184C95.6302 40.4213 94.563 40.1979 93.7668 40.7143C93.663 40.782 93.5961 40.8806 93.5125 40.965L89.8438 37.2963C89.9282 37.2127 90.0268 37.1458 90.0945 37.0429C90.6145 36.2458 90.3892 35.1769 89.5913 34.6569C85.9542 32.2858 81.725 31.0312 77.3638 31.0312C65.0053 31.0312 54.9492 41.0865 54.9492 53.4459C54.9492 65.8044 65.0044 75.8596 77.3638 75.8596C89.7223 75.8596 99.7776 65.8044 99.7776 53.4459C99.7776 49.0847 98.523 44.8555 96.1528 41.2184ZM71.617 41.6645C74.1508 41.6645 76.2131 43.7267 76.2131 46.2614C76.2131 48.797 74.1508 50.8593 71.617 50.8593C69.0814 50.8593 67.0183 48.797 67.0183 46.2614C67.0183 43.7267 69.0814 41.6645 71.617 41.6645ZM83.1098 65.2272C80.576 65.2272 78.5137 63.1641 78.5137 60.6303C78.5137 58.0947 80.576 56.0316 83.1098 56.0316C85.6462 56.0316 87.7085 58.0947 87.7085 60.6303C87.7085 63.1641 85.6462 65.2272 83.1098 65.2272ZM87.2035 46.0441L69.9612 63.2855C69.6251 63.6225 69.1835 63.7905 68.7427 63.7905C68.3019 63.7905 67.8603 63.6225 67.5233 63.2855C66.8502 62.6125 66.8502 61.5215 67.5233 60.8476L84.7656 43.6062C85.4386 42.9323 86.5296 42.9323 87.2035 43.6062C87.8765 44.2792 87.8765 45.3702 87.2035 46.0441Z" fill="#5FD6FC"/>
<path opacity="0.6" d="M35.9806 75.2276H4.94577C3.99383 75.2276 3.22137 74.4569 3.22137 73.5041V52.8139H1.49784C0.5459 52.8139 -0.226562 52.0423 -0.226562 51.0895V39.0204C-0.226562 38.0685 0.5459 37.2969 1.49784 37.2969H39.4294C40.3814 37.2969 41.153 38.0685 41.153 39.0204V51.0895C41.153 52.0423 40.3814 52.8139 39.4294 52.8139H37.705V73.5041C37.705 74.4569 36.9335 75.2276 35.9806 75.2276ZM6.67017 71.7797H34.2562V52.8139H13.5669C12.615 52.8139 11.8425 52.0423 11.8425 51.0895C11.8425 50.1366 12.615 49.3651 13.5669 49.3651H37.705V40.7448H3.22137V49.3651H4.94577C5.89771 49.3651 6.67017 50.1366 6.67017 51.0895V71.7797Z" fill="black"/>
<path opacity="0.6" d="M20.4666 45.9171C19.5147 45.9171 18.7422 45.1447 18.7422 44.1927V39.0204C18.7422 38.0685 19.5147 37.2969 20.4666 37.2969C21.4185 37.2969 22.1901 38.0685 22.1901 39.0204V44.1927C22.1901 45.1456 21.4185 45.9171 20.4666 45.9171Z" fill="black"/>
<path opacity="0.6" d="M20.4666 68.333C19.5147 68.333 18.7422 67.5614 18.7422 66.6086V51.0907C18.7422 50.1379 19.5147 49.3672 20.4666 49.3672C21.4185 49.3672 22.1901 50.1379 22.1901 51.0907V66.6086C22.1901 67.5614 21.4185 68.333 20.4666 68.333Z" fill="black"/>
<path opacity="0.6" d="M17.7767 34.0502C15.564 34.0502 12.6114 33.6727 10.5905 31.9607C9.1538 30.743 8.39453 29.0116 8.39453 26.952C8.39453 26.1302 8.97432 25.422 9.77933 25.2619C17.8788 23.6439 21.4015 28.7696 22.1361 31.7064C22.2522 32.1736 22.1686 32.668 21.9056 33.0701C21.6408 33.4722 21.2211 33.7458 20.7469 33.825C20.4689 33.8716 19.2979 34.0502 17.7767 34.0502ZM12.1231 28.4212C12.2824 28.7714 12.5137 29.0705 12.8199 29.3292C13.9856 30.3181 16.0514 30.5838 17.76 30.5917C16.8292 29.433 15.1215 28.2418 12.1231 28.4212Z" fill="black"/>
<path opacity="0.6" d="M27.3642 33.848C26.7316 33.848 26.1228 33.4996 25.821 32.8951C25.3961 32.0461 25.7383 31.015 26.5829 30.5865C26.6296 30.561 28.1974 29.7243 28.8282 28.219C27.5428 28.1706 25.843 28.6475 24.3896 29.5449C22.8711 30.4836 22.1901 31.5165 22.1901 32.1236C22.1901 33.0755 21.4185 33.848 20.4666 33.848C19.5147 33.848 18.7422 33.0755 18.7422 32.1236C18.7422 30.1273 20.1402 28.1178 22.5772 26.6116C25.1172 25.0429 28.8871 24.062 31.5828 25.4089C32.167 25.701 32.5357 26.2984 32.5357 26.9512C32.5357 31.4144 28.3135 33.5761 28.134 33.6658C27.8868 33.7899 27.6229 33.848 27.3642 33.848Z" fill="black"/>
<path opacity="0.6" d="M68.7398 63.7915C68.2982 63.7915 67.8574 63.6235 67.5204 63.2865C66.8474 62.6126 66.8474 61.5217 67.5204 60.8486L84.7627 43.6063C85.4357 42.9333 86.5267 42.9333 87.2006 43.6063C87.8737 44.2803 87.8737 45.3712 87.2006 46.0451L69.9583 63.2865C69.6222 63.6235 69.1806 63.7915 68.7398 63.7915Z" fill="black"/>
<path opacity="0.3" d="M74.489 46.264C74.489 47.8512 73.2028 49.1375 71.6156 49.1375C70.0285 49.1375 68.7422 47.8512 68.7422 46.264C68.7422 44.6769 70.0285 43.3906 71.6156 43.3906C73.2028 43.3906 74.489 44.6769 74.489 46.264Z" fill="#5FD6FC"/>
<path opacity="0.6" d="M71.6143 50.8597C69.0788 50.8597 67.0156 48.7975 67.0156 46.2628C67.0156 43.7263 69.0788 41.6641 71.6143 41.6641C74.1481 41.6641 76.2104 43.7263 76.2104 46.2628C76.2104 48.7975 74.1481 50.8597 71.6143 50.8597ZM71.6143 45.112C70.9791 45.112 70.4644 45.6284 70.4644 46.2628C70.4644 46.8962 70.9791 47.4118 71.6143 47.4118C72.2469 47.4118 72.7625 46.8962 72.7625 46.2628C72.7625 45.6284 72.2469 45.112 71.6143 45.112Z" fill="black"/>
<path opacity="0.3" d="M85.9812 60.6312C85.9812 62.2184 84.695 63.5047 83.1078 63.5047C81.5206 63.5047 80.2344 62.2184 80.2344 60.6312C80.2344 59.0441 81.5206 57.7578 83.1078 57.7578C84.695 57.7578 85.9812 59.0441 85.9812 60.6312Z" fill="#5FD6FC"/>
<path opacity="0.6" d="M83.1078 65.2308C80.574 65.2308 78.5117 63.1677 78.5117 60.6339C78.5117 58.0983 80.574 56.0352 83.1078 56.0352C85.6442 56.0352 87.7065 58.0983 87.7065 60.6339C87.7065 63.1677 85.6442 65.2308 83.1078 65.2308ZM83.1078 59.484C82.4752 59.484 81.9596 59.9986 81.9596 60.6339C81.9596 61.2664 82.4752 61.782 83.1078 61.782C83.743 61.782 84.2586 61.2664 84.2586 60.6339C84.2577 59.9986 83.743 59.484 83.1078 59.484Z" fill="black"/>
<path opacity="0.6" d="M12.8058 20.6899C12.4143 20.6899 12.0201 20.557 11.6972 20.286C10.9679 19.6728 10.8738 18.5854 11.4861 17.856C15.2525 13.3752 19.7236 9.62112 24.7737 6.69755C25.5972 6.21982 26.6538 6.50136 27.1289 7.32485C27.6066 8.14922 27.3251 9.2041 26.5016 9.68095C21.7982 12.4039 17.635 15.9011 14.1264 20.0749C13.7859 20.4813 13.2976 20.6899 12.8058 20.6899Z" fill="black"/>
<path opacity="0.6" d="M86.7489 20.6902C86.2571 20.6902 85.7688 20.4817 85.4274 20.0752C76.5467 9.50798 63.5539 3.44881 49.7771 3.44881C44.6523 3.44881 39.6181 4.27582 34.8135 5.90696C33.9091 6.21137 32.9316 5.73012 32.6272 4.82833C32.3211 3.92654 32.8032 2.94732 33.7059 2.64203C38.8676 0.889475 44.2749 0 49.7771 0C64.5736 0 78.5307 6.50874 88.0677 17.8564C88.68 18.5857 88.5859 19.6732 87.8565 20.2855C87.5337 20.5574 87.1395 20.6902 86.7489 20.6902Z" fill="black"/>
<path opacity="0.6" d="M86.747 20.6901H78.1267C77.173 20.6901 76.4023 19.9177 76.4023 18.9657C76.4023 18.0138 77.173 17.2422 78.1267 17.2422H86.747C87.6998 17.2422 88.4714 18.0138 88.4714 18.9657C88.4714 19.9177 87.6998 20.6901 86.747 20.6901Z" fill="black"/>
<path opacity="0.6" d="M86.7439 20.6902C85.7911 20.6902 85.0195 19.9177 85.0195 18.9658V10.3446C85.0195 9.39268 85.7911 8.62109 86.7439 8.62109C87.6968 8.62109 88.4683 9.39268 88.4683 10.3446V18.9658C88.4683 19.9177 87.6968 20.6902 86.7439 20.6902Z" fill="black"/>
<path opacity="0.6" d="M27.5385 17.3578C27.0053 17.3578 26.4801 17.1106 26.1422 16.6469C25.5818 15.8753 25.7534 14.7985 26.5232 14.238C31.2838 10.7813 36.5986 8.37682 42.3226 7.08967C43.2481 6.8794 44.1737 7.46447 44.3831 8.39354C44.5916 9.3226 44.0083 10.2455 43.0792 10.454C37.8163 11.6365 32.9272 13.8483 28.5502 17.0279C28.2441 17.2505 27.8895 17.3578 27.5385 17.3578Z" fill="black"/>
<path opacity="0.6" d="M73.9138 93.5376C73.3199 93.5376 72.7402 93.2297 72.4208 92.6772C71.9422 91.8537 72.2237 90.7979 73.0481 90.3219C77.7541 87.5963 81.9182 84.0991 85.4242 79.9263C86.0383 79.1987 87.1249 79.1045 87.8533 79.716C88.5827 80.3292 88.6768 81.4166 88.0636 82.1451C84.2989 86.6242 79.8287 90.3791 74.776 93.3053C74.505 93.4637 74.2068 93.5376 73.9138 93.5376Z" fill="black"/>
<path opacity="0.6" d="M49.7756 100.002C34.9774 100.002 21.022 93.4951 11.4859 82.1457C10.8735 81.4172 10.9686 80.3298 11.6961 79.7166C12.4264 79.1051 13.5138 79.1975 14.1262 79.9268C23.0051 90.4941 35.9988 96.5541 49.7756 96.5541C54.8986 96.5541 59.9319 95.7271 64.7392 94.0942C65.6427 93.7907 66.6193 94.2711 66.9263 95.1737C67.2307 96.0738 66.7495 97.0539 65.8468 97.3609C60.6833 99.1135 55.2761 100.002 49.7756 100.002Z" fill="black"/>
<path opacity="0.6" d="M21.4267 82.7613H12.8064C11.8545 82.7613 11.082 81.9897 11.082 81.0369C11.082 80.0841 11.8545 79.3125 12.8064 79.3125H21.4267C22.3795 79.3125 23.1511 80.0841 23.1511 81.0369C23.1511 81.9906 22.3795 82.7613 21.4267 82.7613Z" fill="black"/>
<path opacity="0.6" d="M12.8064 91.3816C11.8545 91.3816 11.082 90.61 11.082 89.6572V81.036C11.082 80.0832 11.8545 79.3125 12.8064 79.3125C13.7584 79.3125 14.5308 80.0832 14.5308 81.036V89.6572C14.5308 90.61 13.7584 91.3816 12.8064 91.3816Z" fill="black"/>
<path opacity="0.6" d="M56.8477 92.9553C56.0594 92.9553 55.3477 92.4116 55.1673 91.6101C54.9588 90.6802 55.5412 89.7581 56.4703 89.5487C61.7385 88.3636 66.6267 86.151 70.9993 82.974C71.7709 82.4153 72.8477 82.5834 73.4073 83.355C73.9677 84.1239 73.7979 85.2034 73.0263 85.7621C68.2737 89.2179 62.9579 91.6233 57.2278 92.9131C57.1002 92.9421 56.9744 92.9553 56.8477 92.9553Z" fill="black"/>
<path opacity="0.6" d="M77.3638 75.8635C65.0044 75.8635 54.9492 65.8083 54.9492 53.4498C54.9492 41.0895 65.0044 31.0352 77.3638 31.0352C81.7241 31.0352 85.9524 32.2889 89.5904 34.6608C90.3884 35.1816 90.6145 36.2497 90.0945 37.0477C89.5719 37.8448 88.5012 38.0691 87.7085 37.5501C84.6301 35.5441 81.0537 34.4831 77.3638 34.4831C66.9057 34.4831 58.3971 42.9916 58.3971 53.4498C58.3971 63.907 66.9057 72.4156 77.3638 72.4156C87.8211 72.4156 96.3296 63.907 96.3296 53.4498C96.3296 49.7581 95.2686 46.1818 93.2635 43.1051C92.7427 42.3071 92.9688 41.2391 93.7668 40.7182C94.563 40.1991 95.6302 40.4226 96.1528 41.2206C98.523 44.8594 99.7776 49.0868 99.7776 53.4489C99.7776 65.8083 89.7223 75.8635 77.3638 75.8635Z" fill="black"/>
</g>
<defs>
<clipPath id="clip0_2785_302456">
<rect width="100" height="100" fill="white"/>
</clipPath>
</defs>
</svg>
