<svg width="100" height="100" viewBox="0 0 100 100" fill="none" xmlns="http://www.w3.org/2000/svg">
<g clip-path="url(#clip0_2785_302435)">
<path fill-rule="evenodd" clip-rule="evenodd" d="M63.0531 64.2355C62.752 64.2355 62.4508 64.1218 62.2229 63.8939L55.7693 57.4403C54.6865 56.3575 56.3219 54.6823 57.4293 55.7804L63.8828 62.2339C64.6129 62.964 64.1008 64.2361 63.0526 64.2361L63.0531 64.2355Z" fill="#5FD6FC"/>
<path fill-rule="evenodd" clip-rule="evenodd" d="M33.6422 51.8336C32.335 51.8336 32.0163 49.9867 33.2596 49.5549C39.2409 47.4713 43.3589 43.3047 45.5075 37.1769C46.0161 35.7191 48.2275 36.4996 47.713 37.9498C45.3206 44.7936 40.7145 49.4406 34.0249 51.768C33.8942 51.809 33.7641 51.833 33.6422 51.833V51.8336Z" fill="#5FD6FC"/>
<path fill-rule="evenodd" clip-rule="evenodd" d="M29.9708 40.3428C29.0684 40.3428 26.5928 37.4535 25.4379 36.298C24.3522 35.2123 25.9952 33.5459 27.0979 34.6381L29.979 37.5109L40.1843 27.2974C41.27 26.2111 42.9364 27.8558 41.8442 28.9574L30.7928 40.0006C30.5649 40.2285 30.2637 40.3422 29.9708 40.3422V40.3428Z" fill="#5FD6FC"/>
<path opacity="0.7" fill-rule="evenodd" clip-rule="evenodd" d="M33.6424 67.2943C24.6582 67.2943 16.2025 63.795 9.84677 57.4387C-3.27184 44.3201 -3.27184 22.9743 9.84677 9.85574C30.9869 -11.2844 67.2935 3.73853 67.2935 33.6513C67.2935 52.2637 52.2337 67.2943 33.6424 67.2943ZM11.5067 11.5163C-0.700735 23.7232 -0.700735 43.5801 11.5067 55.7876C31.1902 75.471 64.9491 61.4589 64.9491 33.6519C64.9491 5.8192 31.1515 -8.15546 11.5067 11.5163Z" fill="black"/>
<path opacity="0.7" fill-rule="evenodd" clip-rule="evenodd" d="M91.9259 99.9994C89.8587 99.9994 87.7915 99.2101 86.2212 97.6392L62.2222 73.6403C57.2101 68.6282 60.6877 59.8789 67.927 59.8789C70.0838 59.8789 72.1182 60.7174 73.6317 62.2309L97.6306 86.2298C102.697 91.2958 99.1001 99.9994 91.9259 99.9994ZM67.927 62.2145C62.8539 62.2145 60.274 68.3879 63.874 71.9879L87.8729 95.9869C90.103 98.2169 93.7405 98.2169 95.97 95.9869C98.2001 93.7568 98.2001 90.1193 95.97 87.8898L71.9711 63.8908C70.8643 62.7764 69.3918 62.2145 67.9264 62.2145H67.927Z" fill="black"/>
<path opacity="0.7" fill-rule="evenodd" clip-rule="evenodd" d="M33.6434 57.5528C33.5134 57.5528 33.3833 57.5282 33.2608 57.4877C9.9369 49.366 12.7934 22.0302 13.2 18.9382C13.2732 18.3845 13.7291 17.8964 14.2828 17.8559C27.7676 16.8634 32.6503 10.3038 32.6989 10.2387C33.1384 9.62876 34.1555 9.62876 34.595 10.2387C34.6436 10.3038 39.6241 16.8716 53.0117 17.8559C53.5894 17.8964 54.0535 18.3604 54.0939 18.9464C54.5005 22.039 57.3494 49.3748 34.0331 57.4965C33.903 57.5287 33.7729 57.5534 33.6429 57.5534L33.6434 57.5528ZM15.4143 20.1013C14.8852 25.4234 13.8926 47.9662 33.6352 55.1276C53.3779 47.9662 52.3853 25.4239 51.8562 20.1013C41.1628 19.0841 35.6778 14.7387 33.6352 12.6797C31.6008 14.7387 26.1071 19.0923 15.4143 20.1013Z" fill="black"/>
</g>
<defs>
<clipPath id="clip0_2785_302435">
<rect width="100" height="100" fill="white"/>
</clipPath>
</defs>
</svg>
