<svg width="100" height="100" viewBox="0 0 100 100" fill="none" xmlns="http://www.w3.org/2000/svg">
<path opacity="0.3" fill-rule="evenodd" clip-rule="evenodd" d="M17.7686 81.508C16.9775 81.508 16.1863 81.251 15.5758 80.7414C14.985 80.2482 14.6094 79.5506 14.6094 78.7734C14.6094 77.9959 14.9846 77.2975 15.5758 76.8039C16.1863 76.2941 16.9775 76.0371 17.7687 76.0371C18.5465 76.0371 20.1787 76.6457 20.6125 77.3113C20.8492 77.6746 21.3326 77.7697 21.6939 77.5332C22.0537 77.2977 22.1572 76.8129 21.9203 76.4529C21.3295 75.5545 19.9744 74.9281 18.96 74.6584L18.5326 74.5447L18.5064 73.0654C18.4988 72.6389 18.1463 72.3068 17.7229 72.3068C17.7105 72.3068 17.6982 72.3068 17.693 72.3068C17.2709 72.3168 16.9266 72.6742 16.9391 73.1043L16.9805 74.5127L16.5234 74.6272C14.5996 75.1092 13.0518 76.734 13.0518 78.7736C13.0518 79.9402 13.5664 81.009 14.4182 81.7932C15.3285 82.6313 16.5359 83.0703 17.7687 83.0703C18.56 83.0703 19.3512 83.3273 19.9617 83.8371C20.5529 84.3307 20.9281 85.0291 20.9281 85.8066C20.9281 86.5844 20.5531 87.2824 19.9615 87.7756C19.351 88.2848 18.5598 88.5412 17.7689 88.5412C16.5145 88.5412 15.9012 88.0816 15.0137 87.2422C14.6979 86.9436 14.2008 86.9609 13.9027 87.276C13.6082 87.5873 13.6246 88.0873 13.9352 88.3814C14.7232 89.1281 15.4713 89.7227 16.5592 89.9742L16.9982 90.0758L17.0406 91.3814V91.3873C17.0459 91.8078 17.3973 92.1428 17.815 92.1428H17.8449C18.2703 92.1328 18.6084 91.7725 18.5986 91.3414L18.5695 90.065L19.0234 89.9512C20.9475 89.4689 22.4859 87.8445 22.4859 85.8066C22.4859 84.64 21.974 83.5701 21.1227 82.7852C20.2111 81.9451 19.0025 81.508 17.7686 81.508ZM17.7686 68.3576C25.4166 68.3576 31.6348 74.577 31.6348 82.2248C31.6348 89.8725 25.4166 96.0918 17.7686 96.0918C10.1205 96.0918 3.90234 89.8727 3.90234 82.2248C3.90234 74.577 10.1203 68.3576 17.7686 68.3576ZM56.049 70.717H62.1377V96.0918H56.049V70.717ZM90.0078 66.9064H96.0875V96.0916H90.0078V66.9064ZM48.7564 47.7441C48.7564 50.025 45.9221 51.4008 44.108 52.0537C40.8443 53.2281 36.9158 53.6215 33.4658 53.6215C30.0158 53.6215 26.0875 53.2281 22.8236 52.0537C21.0096 51.401 18.1752 50.0252 18.1752 47.7441C18.1752 42.8432 20.5687 38.1973 24.5391 35.3318L25.0355 34.9734L32.816 46.817C32.9594 47.0354 33.2043 47.1699 33.466 47.1699C33.7318 47.1699 33.9803 47.0336 34.1264 46.8152L41.8961 34.9709L42.393 35.3297C46.3623 38.1969 48.7564 42.8426 48.7564 47.7441ZM33.4658 26.6098C29.7982 26.6098 26.8232 23.6295 26.8232 19.9631C26.8232 16.2967 29.798 13.3164 33.4658 13.3164C37.1322 13.3164 40.1174 16.2955 40.1174 19.9631C40.1174 23.6307 37.1322 26.6098 33.4658 26.6098Z" fill="#5FD6FC"/>
<path opacity="0.7" fill-rule="evenodd" clip-rule="evenodd" d="M33.4648 4.49199C49.4471 4.49199 62.4424 17.492 62.4424 33.4705C62.4424 49.449 49.4471 62.4492 33.4648 62.4492C17.4826 62.4492 4.4873 49.449 4.4873 33.4705C4.4873 17.492 17.4826 4.49199 33.4648 4.49199ZM33.4648 65.1834C50.9543 65.1834 65.1811 50.9568 65.1811 33.4705C65.1813 15.9842 50.9543 1.75781 33.4648 1.75781C15.9846 1.75781 1.75781 15.9842 1.75781 33.4705C1.75781 50.9568 15.9846 65.1834 33.4648 65.1834ZM24.8809 35.8088C21.076 38.5549 18.76 43.0176 18.76 47.7461C18.76 50.7129 25.2209 53.0375 33.4646 53.0375C41.7084 53.0375 48.1693 50.7129 48.1693 47.7461C48.1693 43.0176 45.8533 38.5549 42.0484 35.8066L34.6133 47.1408C34.3559 47.5256 33.924 47.7578 33.4645 47.7578C33.0049 47.7578 32.573 47.5256 32.3248 47.1408L24.8809 35.8088ZM32.6652 37.1326L32.0494 41.74L33.4648 43.8982L34.8801 41.74L34.2643 37.1326H32.6652ZM35.0641 33.0408H31.8658L32.307 34.3984H34.623L35.0641 33.0408ZM21.94 54.0217C25.0096 55.1504 29.0994 55.7715 33.4648 55.7715C42.1498 55.7715 50.9084 53.2889 50.9084 47.7461C50.9084 41.6211 47.6273 35.8713 42.3521 32.7404C41.7271 32.3674 40.9184 32.5549 40.5141 33.1662L37.1779 38.2521L36.8746 36.0041C37.0033 35.8105 37.1043 35.5994 37.1871 35.3693L37.7385 33.6465C37.9959 32.8711 37.858 32.0137 37.3801 31.3574C36.9021 30.699 36.1303 30.3066 35.3123 30.3066H31.6178C30.7998 30.3066 30.0277 30.699 29.5498 31.3574C29.0719 32.0139 28.934 32.8711 29.1914 33.6465L29.752 35.3693C29.8254 35.5994 29.9266 35.8105 30.0553 36.0041L29.7611 38.2521L26.4158 33.1662C26.0115 32.5549 25.2027 32.3676 24.5777 32.7404C19.3023 35.8713 16.0215 41.6211 16.0215 47.7461C16.0213 49.6152 17.0506 52.2205 21.94 54.0217ZM33.4648 13.9041C30.1195 13.9041 27.4082 16.6229 27.4082 19.9648C27.4082 23.3068 30.1193 26.0256 33.4648 26.0256C36.8102 26.0256 39.5305 23.3068 39.5305 19.9648C39.5305 16.6229 36.8102 13.9041 33.4648 13.9041ZM33.4648 28.7598C38.3174 28.7598 42.2602 24.8143 42.2602 19.9648C42.2602 15.115 38.3174 11.1701 33.4648 11.1701C28.6123 11.1701 24.6695 15.1152 24.6695 19.9648C24.6695 24.8143 28.6123 28.7598 33.4648 28.7598ZM44.567 95.5076H39.6594V82.1053H44.567V95.5076ZM45.9363 79.3711H38.2898C37.5361 79.3711 36.9205 79.9824 36.9205 80.7381V96.875C36.9205 97.6307 37.5363 98.2422 38.2898 98.2422H45.9363C46.6898 98.2422 47.3057 97.6309 47.3057 96.875V80.7383C47.3057 79.9824 46.6898 79.3711 45.9363 79.3711ZM61.5508 95.5076H56.634V71.3047H61.5508V95.5076ZM62.9203 68.5703H55.2647C54.5111 68.5703 53.9045 69.1816 53.9045 69.9375V96.875C53.9045 97.6307 54.5111 98.2422 55.2647 98.2422H62.9203C63.6738 98.2422 64.2805 97.6309 64.2805 96.875V69.9373C64.2805 69.1816 63.6738 68.5703 62.9203 68.5703ZM95.5006 95.5076H90.5928V67.4941H95.5006V95.5076ZM96.8699 64.7598H89.2234C88.4699 64.7598 87.8541 65.3729 87.8541 66.1268V96.875C87.8541 97.6307 88.4699 98.2422 89.2234 98.2422H96.8699C97.6234 98.2422 98.2393 97.6309 98.2393 96.875V66.1268C98.2393 65.3729 97.6234 64.7598 96.8699 64.7598ZM78.5258 95.5076H73.609V78.2441H78.5258V95.5076ZM79.8951 75.5098H72.2486C71.4859 75.5098 70.8793 76.123 70.8793 76.877V96.875C70.8793 97.6307 71.4859 98.2422 72.2486 98.2422H79.8951C80.6486 98.2422 81.2553 97.6309 81.2553 96.875V76.8768C81.2553 76.1229 80.6486 75.5098 79.8951 75.5098ZM76.0719 68.5059C76.9541 68.5059 77.6803 69.2287 77.6803 70.1152C77.6803 71.0037 76.9543 71.7264 76.0719 71.7264C75.1805 71.7264 74.4543 71.0037 74.4543 70.1152C74.4543 69.2287 75.1803 68.5059 76.0719 68.5059ZM59.0879 63.9746C59.9793 63.9746 60.7055 63.2519 60.7055 62.3633C60.7055 61.4766 59.9795 60.7539 59.0879 60.7539C58.2057 60.7539 57.4795 61.4766 57.4795 62.3633C57.4795 63.2519 58.2055 63.9746 59.0879 63.9746ZM42.1131 75.5234C41.2309 75.5234 40.5047 74.8008 40.5047 73.9123C40.5047 73.0256 41.2307 72.3029 42.1131 72.3029C43.0045 72.3029 43.7215 73.0256 43.7215 73.9123C43.7215 74.8006 43.0045 75.5234 42.1131 75.5234ZM63.4074 62.8318C63.4258 62.6773 63.435 62.5213 63.435 62.3633C63.435 59.9687 61.4865 58.0193 59.0879 58.0193C56.6984 58.0193 54.75 59.9687 54.75 62.3633C54.75 62.7752 54.8051 63.1736 54.9154 63.5527L44.7508 70.4646C44.0156 69.9041 43.1057 69.5682 42.1131 69.5682C39.7145 69.5682 37.766 71.5176 37.766 73.9121C37.766 76.3084 39.7145 78.2578 42.1131 78.2578C44.5117 78.2578 46.4602 76.3084 46.4602 73.9121C46.4602 73.5018 46.3959 73.1033 46.2947 72.7244L56.4502 65.8121C57.1854 66.3729 58.0953 66.7086 59.0879 66.7086C60.3471 66.7086 61.4773 66.1715 62.2678 65.3182L71.7523 69.6463C71.734 69.8008 71.7248 69.9568 71.7248 70.1152C71.7248 72.5115 73.6732 74.4605 76.0719 74.4605C78.4613 74.4605 80.4098 72.5115 80.4098 70.1152C80.4098 69.7305 80.3639 69.3592 80.2719 69.0037L94.7744 59.5232L94.4711 60.8396C94.2965 61.576 94.7561 62.3084 95.4912 62.4781C95.6016 62.5037 95.7025 62.5156 95.8037 62.5156C96.4287 62.5156 96.9893 62.0877 97.1363 61.4551L98.2023 56.8279C98.377 56.0916 97.9174 55.3574 97.173 55.1895L92.5961 54.1328C91.8609 53.9609 91.1348 54.4197 90.9602 55.1559C90.7947 55.8922 91.2451 56.6268 91.9803 56.7965L93.4324 57.1307L78.7736 66.7164C78.0291 66.1248 77.0918 65.7711 76.0717 65.7711C74.8125 65.7711 73.6822 66.3064 72.8918 67.1598L63.4074 62.8318ZM23.0703 85.8084C23.0703 88.0564 21.416 89.957 19.1645 90.5213L19.1828 91.3297C19.2012 92.0857 18.6037 92.7125 17.8502 92.7303C17.841 92.7303 17.8227 92.7303 17.8135 92.7303C17.0783 92.7303 16.4625 92.1404 16.4533 91.3963L16.4258 90.5469C15.1666 90.2557 14.3303 89.5604 13.5309 88.8086C12.9887 88.2891 12.9611 87.424 13.4758 86.875C13.9996 86.3262 14.8635 86.3006 15.415 86.8184C16.3156 87.6738 16.7844 87.9572 17.7678 87.9572C19.183 87.9572 20.341 86.9943 20.341 85.8086C20.341 84.6232 19.183 83.6582 17.7678 83.6582C14.8451 83.6582 12.4648 81.467 12.4648 78.7754C12.4648 76.5254 14.1283 74.6248 16.3801 74.0605L16.3525 73.1232C16.3342 72.3672 16.9316 71.7404 17.6852 71.7227H17.7219C18.4662 71.7227 19.0729 72.3125 19.0912 73.0568L19.1096 74.0939C20.3502 74.4238 21.7564 75.1426 22.409 76.1328C22.8225 76.7639 22.6479 77.6115 22.0139 78.0254C21.3797 78.4416 20.5342 78.2656 20.1207 77.633C19.8727 77.25 18.5123 76.625 17.768 76.625C16.3525 76.625 15.1947 77.59 15.1947 78.7754C15.1947 79.959 16.3527 80.924 17.768 80.924C20.6992 80.9238 23.0703 83.1152 23.0703 85.8084ZM17.7676 95.5076C25.0924 95.5076 31.0479 89.5508 31.0479 82.2266C31.0479 74.9021 25.0924 68.9453 17.7676 68.9453C10.4428 68.9453 4.4873 74.9021 4.4873 82.2266C4.4873 89.5508 10.4428 95.5076 17.7676 95.5076ZM17.7676 66.2109C8.93555 66.2109 1.75781 73.3963 1.75781 82.2268C1.75781 91.0586 8.93555 98.2424 17.7676 98.2424C26.5996 98.2424 33.7865 91.0588 33.7865 82.2268C33.7865 73.3963 26.5996 66.2109 17.7676 66.2109Z" fill="black"/>
</svg>
